<svg width="20" height="20" viewBox="0 0 20 20" fill="none" xmlns="http://www.w3.org/2000/svg">
<path fill-rule="evenodd" clip-rule="evenodd" d="M7.5 5C6.67157 5 6 5.67157 6 6.5C6 7.32843 6.67157 8 7.5 8C8.32843 8 9 7.32843 9 6.5C9 5.67157 8.32843 5 7.5 5ZM5 6.5C5 5.11929 6.11929 4 7.5 4C8.88071 4 10 5.11929 10 6.5C10 7.88071 8.88071 9 7.5 9C6.11929 9 5 7.88071 5 6.5ZM14 6C14.2761 6 14.5 6.22386 14.5 6.5V8.5H16.5C16.7761 8.5 17 8.72386 17 9C17 9.27614 16.7761 9.5 16.5 9.5H14.5V11.5C14.5 11.7761 14.2761 12 14 12C13.7239 12 13.5 11.7761 13.5 11.5V9.5H11.5C11.2239 9.5 11 9.27614 11 9C11 8.72386 11.2239 8.5 11.5 8.5H13.5V6.5C13.5 6.22386 13.7239 6 14 6ZM4 13.5025V15.5C4 15.7761 3.77614 16 3.5 16C3.22386 16 3 15.7761 3 15.5V13.5L3 13.4986L3.00001 13.4968L3.00004 13.4925L3.00024 13.4806C3.00044 13.4713 3.00081 13.459 3.00147 13.4441C3.0028 13.4143 3.00531 13.3736 3.01006 13.3237C3.01956 13.224 3.0381 13.0862 3.07441 12.9228C3.14673 12.5973 3.29167 12.1611 3.58397 11.7227C4.18804 10.8165 5.35435 10 7.5 10C9.64565 10 10.812 10.8165 11.416 11.7227C11.7083 12.1611 11.8533 12.5973 11.9256 12.9228C11.9619 13.0862 11.9804 13.224 11.9899 13.3237C11.9947 13.3736 11.9972 13.4143 11.9985 13.4441C11.9992 13.459 11.9996 13.4713 11.9998 13.4806L12 13.4925L12 13.4968L12 13.4986L12 13.5L12 15.5C12 15.7761 11.7761 16 11.5 16C11.2239 16 11 15.7761 11 15.5L11 13.5025L10.9995 13.4885C10.9989 13.4744 10.9975 13.4506 10.9944 13.4185C10.9883 13.3541 10.9756 13.2576 10.9494 13.1397C10.8967 12.9027 10.7917 12.5889 10.584 12.2773C10.188 11.6835 9.35435 11 7.5 11C5.64565 11 4.81196 11.6835 4.41603 12.2773C4.20833 12.5889 4.10327 12.9027 4.05059 13.1397C4.0244 13.2576 4.01169 13.3541 4.00556 13.4185C4.0025 13.4506 4.00111 13.4744 4.00048 13.4885L4 13.5025Z" fill="#2161ED"/>
</svg>
