<svg width="36" height="36" viewBox="0 0 36 36" fill="none" xmlns="http://www.w3.org/2000/svg">
<path d="M6.57628 19.9829C6.31802 20.1012 6.20407 20.3992 6.31916 20.6539L7.49884 23.1276C7.55679 23.2508 7.66253 23.3467 7.79256 23.394C7.84954 23.4142 7.90996 23.4247 7.9707 23.4247C8.04672 23.4253 8.12175 23.4094 8.19088 23.3788L17.1038 19.3121L16.2965 27.5576C16.2809 27.7199 16.345 27.8795 16.4693 27.9879C16.86 28.3038 17.347 28.4838 17.8537 28.5C17.9934 28.4998 18.1323 28.4827 18.2677 28.449C18.9913 28.2646 19.5523 27.6347 19.935 26.559L23.4425 16.4135L30.3892 13.2482C32.434 12.3162 33.4877 10.4264 32.7801 8.9514C32.3785 8.18044 31.6093 7.65598 30.7301 7.55318C29.7532 7.40915 28.7548 7.55927 27.8675 7.98365L19.851 11.6556L11.2319 8.36247C10.1465 7.96312 9.28681 7.97338 8.68392 8.39856C8.17807 8.804 7.89025 9.41346 7.90257 10.0526C7.90782 10.2147 7.99139 10.3647 8.12799 10.4574L13.9318 14.3547L10.608 15.8912L5.03458 14.5082C4.8062 14.4533 4.56846 14.5539 4.45271 14.7541L3.06354 17.1968C2.99146 17.3263 2.98013 17.4799 3.0325 17.6182C3.08455 17.7566 3.19521 17.8661 3.33625 17.919L7.46239 19.5837L6.57628 19.9829ZM8.97716 9.79661C9.00803 9.5801 9.12017 9.38299 9.2919 9.24345C9.59088 9.03335 10.1361 9.06415 10.8648 9.33038L18.5405 12.2548L15.0381 13.8527L8.97716 9.79661ZM4.2588 17.1919L5.17102 15.6094L10.5345 16.9101C10.65 16.9386 10.772 16.9279 10.8807 16.8796L28.3133 8.9259C29.0063 8.59198 29.7868 8.47041 30.5519 8.57754C31.0885 8.62582 31.5664 8.9283 31.8313 9.38668C32.2713 10.3087 31.4063 11.6556 29.9435 12.3214L23.9037 15.0872L24.2709 14.0267C24.3636 13.7539 24.2121 13.4591 23.9328 13.3687C23.6532 13.2782 23.3516 13.4262 23.259 13.6991L18.944 26.2413C18.6871 26.9534 18.3672 27.3786 18.0108 27.4705C17.79 27.512 17.5614 27.4697 17.3711 27.3529L18.4198 16.5977C18.4472 16.3149 18.2349 16.0639 17.9451 16.0371C17.6557 16.01 17.3987 16.2177 17.3711 16.5005L17.2088 18.1444L8.21173 22.2415L7.47289 20.7051L8.95105 20.0292C9.14135 19.9473 9.26399 19.7635 9.26399 19.5606C9.26399 19.3575 9.14135 19.1737 8.95105 19.0919L4.2588 17.1919Z" fill="#C91052"/>
</svg>
