<svg width="21" height="20" viewBox="0 0 21 20" fill="none" xmlns="http://www.w3.org/2000/svg">
<path fill-rule="evenodd" clip-rule="evenodd" d="M7.07037 4C6.56884 4 6.10049 4.25065 5.82229 4.66795L4.93426 6H16.0657L15.1777 4.66795C14.8995 4.25065 14.4312 4 13.9296 4H7.07037ZM16.5 7H4.5V14.5C4.5 15.3284 5.17157 16 6 16H15C15.8284 16 16.5 15.3284 16.5 14.5V7ZM4.99024 4.11325C5.45391 3.41775 6.23448 3 7.07037 3H13.9296C14.7655 3 15.5461 3.41775 16.0098 4.11325L17.416 6.22265C17.4708 6.30478 17.5 6.40129 17.5 6.5V14.5C17.5 15.8807 16.3807 17 15 17H6C4.61929 17 3.5 15.8807 3.5 14.5V6.5C3.5 6.40129 3.52922 6.30478 3.58397 6.22265L4.99024 4.11325ZM10.5 8C10.7761 8 11 8.22386 11 8.5V12.7929L12.6464 11.1464C12.8417 10.9512 13.1583 10.9512 13.3536 11.1464C13.5488 11.3417 13.5488 11.6583 13.3536 11.8536L10.8536 14.3536C10.6583 14.5488 10.3417 14.5488 10.1464 14.3536L7.64645 11.8536C7.45118 11.6583 7.45118 11.3417 7.64645 11.1464C7.84171 10.9512 8.15829 10.9512 8.35355 11.1464L10 12.7929V8.5C10 8.22386 10.2239 8 10.5 8Z" fill="#2161ED"/>
</svg>
