<svg width="36" height="36" viewBox="0 0 36 36" fill="none" xmlns="http://www.w3.org/2000/svg">
<path d="M32.5455 14.6211C32.2943 14.6211 32.0909 14.8421 32.0909 15.1149V16.7364H3.90909V9.49375C3.90909 9.22125 3.70566 9 3.45455 9C3.20343 9 3 9.22125 3 9.49375V26.5062C3 26.779 3.20343 27 3.45455 27C3.70566 27 3.90909 26.779 3.90909 26.5062V22.5204H32.0909V26.5062C32.0909 26.779 32.2943 27 32.5455 27C32.7966 27 33 26.779 33 26.5062V15.1146C32.9997 14.8421 32.7963 14.6211 32.5455 14.6211ZM3.90909 21.5329V17.7239H32.0909V21.5329H3.90909Z" fill="white"/>
<path d="M6.43395 16.1016H7.73138C9.02298 16.1027 10.0721 14.9691 10.0779 13.5661V13.2595C10.0708 11.8598 9.01994 10.732 7.73138 10.7408H6.43395C5.9548 10.737 5.49391 10.9414 5.15402 11.3084C4.81387 11.6751 4.62287 12.1744 4.62338 12.6952V14.1304C4.62236 14.6528 4.8126 15.1543 5.15224 15.5241C5.49188 15.8938 5.95302 16.1016 6.43395 16.1016ZM5.53247 12.6952C5.53171 12.4364 5.62683 12.1882 5.79652 12.0063C5.96596 11.8245 6.19577 11.7242 6.43395 11.7283H7.73138C8.10907 11.7236 8.47306 11.8826 8.74269 12.17C9.01233 12.4571 9.16553 12.8492 9.16883 13.2595V13.5661C9.1635 14.4239 8.521 15.1157 7.73138 15.1141H6.43395C6.19425 15.1143 5.96418 15.0107 5.79474 14.8261C5.62556 14.6415 5.5312 14.3911 5.53247 14.1304V12.6952Z" fill="white"/>
<path d="M11.1169 11.2139V15.6117C11.1154 15.7415 11.1618 15.8663 11.2457 15.9586C11.33 16.0506 11.4446 16.1021 11.5638 16.1016H30.069C30.3212 16.1041 30.5279 15.8856 30.5325 15.6117V15.1639C30.5325 12.7136 28.6884 10.7408 26.4327 10.7408H11.5638C11.4461 10.7364 11.332 10.7844 11.2475 10.8739C11.163 10.9632 11.1159 11.0861 11.1169 11.2139ZM12.026 11.7283H26.4327C28.171 11.7118 29.594 13.2258 29.6145 15.1141H12.026V11.7283Z" fill="white"/>
</svg>
