<svg width="24" height="24" viewBox="0 0 24 24" fill="none" xmlns="http://www.w3.org/2000/svg">
<path fill-rule="evenodd" clip-rule="evenodd" d="M8.00004 9.00071L8.00004 15C8.00004 15.6462 7.72046 16.1383 7.37244 16.5H16.6276C16.2796 16.1383 16 15.6462 16 15V9.00082L16 8.99515C15.9999 8.98941 15.9997 8.97964 15.9992 8.96612C15.9983 8.93906 15.9964 8.89706 15.9925 8.84226C15.9847 8.73251 15.9688 8.57245 15.9365 8.37907C15.8717 7.98995 15.7429 7.47875 15.4903 6.97361C15.2387 6.47042 14.8692 5.98245 14.3242 5.61915C13.7824 5.25794 13.0375 5 12 5C10.9625 5 10.2176 5.25794 9.67582 5.61915C9.13088 5.98245 8.76134 6.47042 8.50975 6.97361C8.25718 7.47875 8.1284 7.98995 8.06355 8.37907C8.03132 8.57245 8.01539 8.73251 8.00755 8.84226C8.00364 8.89706 8.00176 8.93906 8.00086 8.96612C8.00041 8.97964 8.0002 8.98941 8.00011 8.99515L8.00004 9.00071ZM18.6216 16.515C18.8664 16.5764 19.0271 16.8106 18.9963 17.0611C18.9654 17.3117 18.7526 17.5 18.5 17.5H14.9495C14.9035 17.7643 14.8135 18.1161 14.6347 18.4736C14.4488 18.8454 14.1621 19.2324 13.7227 19.5254C13.2801 19.8204 12.7125 20 12 20C11.2875 20 10.7199 19.8204 10.2774 19.5254C9.83794 19.2324 9.55123 18.8454 9.36532 18.4736C9.18659 18.1161 9.09656 17.7643 9.05053 17.5H5.50004C5.24752 17.5 5.03464 17.3117 5.00378 17.0611C4.97298 16.8109 5.13326 16.577 5.37755 16.5152L5.37877 16.5149L5.38992 16.5119C5.40059 16.509 5.41785 16.5041 5.44073 16.4971C5.4866 16.4832 5.5545 16.4612 5.63697 16.4303C5.80355 16.3678 6.0213 16.2721 6.23504 16.1385C6.67672 15.8624 7.00004 15.4947 7.00004 15V9.00082L7.00004 8.99946L7.00004 8.99721L7.00007 8.99277L7.00024 8.97903C7.00042 8.96774 7.00076 8.95224 7.00141 8.93281C7.00271 8.89395 7.00522 8.83927 7.0101 8.77102C7.01983 8.63468 7.03907 8.44317 7.07715 8.21468C7.15292 7.76005 7.30539 7.14625 7.61532 6.52639C7.92623 5.90458 8.40044 5.26755 9.12112 4.7871C9.84493 4.30456 10.7875 4 12 4C13.2125 4 14.1551 4.30456 14.8789 4.7871C15.5996 5.26755 16.0738 5.90458 16.3847 6.52639C16.6947 7.14625 16.8472 7.76005 16.9229 8.21468C16.961 8.44317 16.9802 8.63468 16.99 8.77102C16.9949 8.83927 16.9974 8.89395 16.9987 8.93281C16.9993 8.95224 16.9997 8.96774 16.9998 8.97903L17 8.99277L17 8.99721L17 8.99881L17 9.00005V15C17 15.4947 17.3234 15.8624 17.765 16.1385C17.9788 16.2721 18.1965 16.3678 18.3631 16.4303C18.4456 16.4612 18.5135 16.4832 18.5593 16.4971C18.5822 16.5041 18.5995 16.509 18.6102 16.5119L18.6216 16.515ZM10.0711 17.5C10.1102 17.6631 10.1697 17.8462 10.2597 18.0264C10.3863 18.2796 10.5684 18.5176 10.8321 18.6933C11.0926 18.8671 11.4625 19 12 19C12.5375 19 12.9074 18.8671 13.168 18.6933C13.4317 18.5176 13.6137 18.2796 13.7403 18.0264C13.8304 17.8462 13.8899 17.6631 13.9289 17.5H10.0711Z" fill="#83858A"/>
<circle cx="15.5" cy="7.5" r="2.5" fill="#C91052"/>
</svg>
