<svg width="80" height="80" viewBox="0 0 80 80" fill="none" xmlns="http://www.w3.org/2000/svg">
<path fill-rule="evenodd" clip-rule="evenodd" d="M44.1807 8C44.2876 8 44.394 8.00439 44.5 8.01282V21C44.5 23.4852 46.5146 25.5 49 25.5H62.9927C62.9976 25.5815 63 25.6635 63 25.7456V68C63 70.2091 61.209 72 59 72H21C18.791 72 17 70.2091 17 68V12C17 9.79089 18.791 8 21 8H44.1807ZM46 43C45.7236 43 45.5 43.2239 45.5 43.5C45.5 43.7761 45.7236 44 46 44H50.2393L43.0107 50.8035L38.3535 46.1465C38.1699 45.9629 37.8765 45.9503 37.6777 46.1176L28.1777 54.1176C27.9668 54.2954 27.9395 54.6108 28.1177 54.822C28.2954 55.0333 28.6108 55.0603 28.8223 54.8824L37.9712 47.1781L42.6465 51.8535C42.8374 52.0447 43.146 52.0493 43.3428 51.8641L51 44.6572V49C51 49.2761 51.2236 49.5 51.5 49.5C51.7764 49.5 52 49.2761 52 49V43.5C52 43.2239 51.7764 43 51.5 43H46Z" fill="#0030AD"/>
<path d="M61.7202 22.8129C62.2227 23.2792 62.5918 23.8615 62.8013 24.5H49C47.0669 24.5 45.5 22.933 45.5 21V8.22388C46.0156 8.40405 46.4937 8.68945 46.9009 9.06726L61.7202 22.8129Z" fill="#0030AD"/>
</svg>
