<svg width="80" height="80" viewBox="0 0 80 80" fill="none" xmlns="http://www.w3.org/2000/svg">
<path fill-rule="evenodd" clip-rule="evenodd" d="M44.1807 8C44.2437 8 44.3062 8.00146 44.3687 8.00452L44.4243 8.00757L44.5 8.01282V21C44.5 23.4852 46.5146 25.5 49 25.5H62.9927C62.9951 25.5409 62.9971 25.5818 62.9985 25.6228L63 25.7456V68C63 70.2091 61.209 72 59 72H21C18.791 72 17 70.2091 17 68V12C17 9.79089 18.791 8 21 8H44.1807ZM33 37C30.2385 37 28 39.2385 28 42V56C28 58.7615 30.2385 61 33 61H39.5C40.0522 61 40.5 60.5522 40.5 60C40.5 59.4478 40.0522 59 39.5 59H33C31.3433 59 30 57.6569 30 56V42C30 40.3431 31.3433 39 33 39H39.5C40.0522 39 40.5 38.5522 40.5 38C40.5 37.4478 40.0522 37 39.5 37H33ZM42.2476 45.1643C42.6143 44.7516 42.5771 44.1195 42.1646 43.7526C41.7515 43.3856 41.1196 43.4229 40.7524 43.8357L36.7527 48.3357C36.4158 48.7145 36.4158 49.2855 36.7527 49.6643L40.7524 54.1643C41.1196 54.5771 41.7515 54.6144 42.1646 54.2474C42.5771 53.8805 42.6143 53.2484 42.2476 52.8357L39.7271 50H51C51.5522 50 52 49.5522 52 49C52 48.4478 51.5522 48 51 48H39.7271L42.2476 45.1643Z" fill="#0030AD"/>
<path d="M62.8013 24.5C62.5918 23.8615 62.2227 23.2792 61.7202 22.8129L46.9009 9.06726C46.4937 8.68945 46.0156 8.40405 45.5 8.22388V21C45.5 22.933 47.0669 24.5 49 24.5H62.8013Z" fill="#0030AD"/>
</svg>
