<svg width="80" height="80" viewBox="0 0 80 80" fill="none" xmlns="http://www.w3.org/2000/svg">
<path d="M29 49.5C29 47.567 30.5669 46 32.5 46H39.9175C40.2026 46 40.4824 46.0813 40.7231 46.2345L49.3789 51.7429C50.3887 52.3854 51 53.4991 51 54.6958V56.5C51 58.433 49.4331 60 47.5 60H32.5C30.5669 60 29 58.433 29 56.5V49.5Z" fill="#0030AD"/>
<path fill-rule="evenodd" clip-rule="evenodd" d="M44.1807 8C44.2876 8 44.394 8.00439 44.5 8.01282V21C44.5 23.4852 46.5146 25.5 49 25.5H62.9927C62.9976 25.5815 63 25.6635 63 25.7456V68C63 70.2091 61.209 72 59 72H21C18.791 72 17 70.2091 17 68V12C17 9.79089 18.791 8 21 8H44.1807ZM35 42C35 40.788 34.6953 39.8398 34.1821 39.1107C33.6714 38.3845 32.9785 37.9111 32.2593 37.6029C30.8525 36.9999 29.2686 37 28.519 37H28.5C28.2236 37 28 37.2239 28 37.5C28 37.7761 28.2236 38 28.5 38C29.2588 38 30.6597 38.0054 31.8657 38.5221C32.459 38.7762 32.9849 39.1467 33.3647 39.6862C33.7422 40.2225 34 40.962 34 42V45H32.5C30.0146 45 28 47.0148 28 49.5V56.5C28 58.9852 30.0146 61 32.5 61H47.5C49.9854 61 52 58.9852 52 56.5V54.6958C52 53.1572 51.2139 51.7253 49.916 50.8993L41.2598 45.3909C40.8589 45.1356 40.3931 45 39.9175 45H35V42Z" fill="#0030AD"/>
<path d="M62.8013 24.5C62.5918 23.8615 62.2227 23.2792 61.7202 22.8129L46.9009 9.06726C46.4937 8.68945 46.0156 8.40405 45.5 8.22388V21C45.5 22.933 47.0669 24.5 49 24.5H62.8013Z" fill="#0030AD"/>
</svg>
