<svg width="80" height="80" viewBox="0 0 80 80" fill="none" xmlns="http://www.w3.org/2000/svg">
<path fill-rule="evenodd" clip-rule="evenodd" d="M44.1807 8C44.2876 8 44.394 8.00439 44.5 8.01282V21C44.5 23.4852 46.5146 25.5 49 25.5H62.9927C62.9976 25.5815 63 25.6635 63 25.7456V68C63 70.2091 61.209 72 59 72H21C18.791 72 17 70.2091 17 68V12C17 9.79089 18.791 8 21 8H44.1807ZM32.5 37C30.0146 37 28 39.0148 28 41.5V56.5C28 58.9852 30.0146 61 32.5 61H39.5C39.7764 61 40 60.7761 40 60.5C40 60.2239 39.7764 60 39.5 60H32.5C30.5669 60 29 58.433 29 56.5V41.5C29 39.567 30.5669 38 32.5 38H39.5C39.7764 38 40 37.7761 40 37.5C40 37.2239 39.7764 37 39.5 37H32.5ZM41.8735 44.8322C42.0571 44.6257 42.0386 44.3098 41.832 44.1263C41.626 43.9429 41.3096 43.9614 41.1265 44.1678L37.1265 48.6678C36.958 48.8573 36.958 49.1427 37.1265 49.3322L41.1265 53.8322C41.1948 53.9089 41.2812 53.9597 41.3735 53.9838C41.5298 54.0244 41.7026 53.9889 41.832 53.8737C41.9595 53.7605 42.0151 53.5968 41.9961 53.4396C41.9844 53.342 41.9438 53.2469 41.8735 53.1678L38.6133 49.5H51.5C51.7764 49.5 52 49.2761 52 49C52 48.8539 51.9375 48.7223 51.8374 48.6309C51.7485 48.5496 51.6299 48.5 51.5 48.5H38.6133L41.8735 44.8322Z" fill="#0030AD"/>
<path d="M61.7202 22.8129C62.2227 23.2792 62.5918 23.8615 62.8013 24.5H49C47.0669 24.5 45.5 22.933 45.5 21V8.22388C46.0156 8.40405 46.4937 8.68945 46.9009 9.06726L61.7202 22.8129Z" fill="#0030AD"/>
</svg>
