<svg width="80" height="80" viewBox="0 0 80 80" fill="none" xmlns="http://www.w3.org/2000/svg">
<path d="M35 45C35 44.5089 35.0073 42.9539 35.6582 41.5441C35.9761 40.855 36.4341 40.2318 37.0967 39.7781C37.7524 39.3285 38.6743 39 40 39C41.3257 39 42.2476 39.3285 42.9033 39.7781C43.5659 40.2318 44.0239 40.855 44.3418 41.5441C44.9927 42.9539 45 44.5089 45 45V47H35V45Z" fill="#0030AD"/>
<path fill-rule="evenodd" clip-rule="evenodd" d="M30 52C30 50.3431 31.3433 49 33 49H47C48.6567 49 50 50.3431 50 52V56C50 57.6569 48.6567 59 47 59H33C31.3433 59 30 57.6569 30 56V52ZM37.707 50.2928C37.3164 49.9023 36.6836 49.9023 36.293 50.2928C35.9023 50.6835 35.9023 51.3165 36.293 51.7072L38.5859 54L36.293 56.2928C35.9023 56.6835 35.9023 57.3165 36.293 57.7072C36.6836 58.0977 37.3164 58.0977 37.707 57.7072L40 55.4142L42.293 57.7072C42.6836 58.0977 43.3164 58.0977 43.707 57.7072C44.0977 57.3165 44.0977 56.6835 43.707 56.2928L41.4141 54L43.707 51.7072C44.0977 51.3165 44.0977 50.6835 43.707 50.2928C43.3164 49.9023 42.6836 49.9023 42.293 50.2928L40 52.5858L37.707 50.2928Z" fill="#0030AD"/>
<path fill-rule="evenodd" clip-rule="evenodd" d="M44.1807 8C44.2197 8 44.2583 8.00061 44.2969 8.00171C44.3647 8.00366 44.4326 8.00745 44.5 8.01282V21C44.5 23.4852 46.5146 25.5 49 25.5H62.9927C62.9976 25.5815 63 25.6635 63 25.7456V68C63 70.2091 61.209 72 59 72H21C18.791 72 17 70.2091 17 68V12C17 9.79089 18.791 8 21 8H44.1807ZM47 44.9871V47C49.7612 47 52 49.2385 52 52V56C52 58.7615 49.7612 61 47 61H33C30.2388 61 28 58.7615 28 56V52C28 49.2385 30.2388 47 33 47V44.9871C33 44.459 32.9995 42.531 33.8418 40.7059C34.2739 39.77 34.9409 38.8307 35.9658 38.1282C36.9976 37.4215 38.3257 37 40 37C41.6743 37 43.0024 37.4215 44.0342 38.1282C45.0591 38.8307 45.7261 39.77 46.1582 40.7059C47.0005 42.531 47 44.459 47 44.9871Z" fill="#0030AD"/>
<path d="M62.8013 24.5C62.5918 23.8615 62.2227 23.2792 61.7202 22.8129L46.9009 9.06726C46.4937 8.68945 46.0156 8.40405 45.5 8.22388V21C45.5 22.933 47.0669 24.5 49 24.5H62.8013Z" fill="#0030AD"/>
</svg>
