<svg width="80" height="80" viewBox="0 0 80 80" fill="none" xmlns="http://www.w3.org/2000/svg">
<path fill-rule="evenodd" clip-rule="evenodd" d="M44.1807 8C44.2876 8 44.394 8.00439 44.5 8.01282V21C44.5 23.4852 46.5146 25.5 49 25.5H62.9927C62.9976 25.5815 63 25.6635 63 25.7456V68C63 70.2091 61.209 72 59 72H21C18.7908 72 17 70.2091 17 68V12C17 9.79089 18.7908 8 21 8H44.1807ZM51.8535 37.8535C52.0488 37.6583 52.0488 37.3417 51.8535 37.1465C51.6582 36.9512 51.3418 36.9512 51.1465 37.1465L46.5 41.7928L43.8535 39.1465C43.6582 38.9512 43.3418 38.9512 43.1465 39.1465C42.9512 39.3417 42.9512 39.6583 43.1465 39.8535L46.1465 42.8535C46.3418 43.0488 46.6582 43.0488 46.8535 42.8535L51.8535 37.8535ZM28.5 40C28.2236 40 28 40.2239 28 40.5C28 40.7761 28.2236 41 28.5 41H41.5C41.7051 41 41.8809 40.8768 41.9585 40.7006C41.9854 40.6392 42 40.5713 42 40.5C42 40.3306 41.916 40.1808 41.7871 40.0903C41.7056 40.0334 41.6069 40 41.5 40H28.5ZM28.5 50C28.2236 50 28 50.2239 28 50.5C28 50.7761 28.2236 51 28.5 51H51.5C51.7764 51 52 50.7761 52 50.5C52 50.2239 51.7764 50 51.5 50H28.5ZM28.5 60C28.2236 60 28 60.2239 28 60.5C28 60.7761 28.2236 61 28.5 61H51.5C51.7764 61 52 60.7761 52 60.5C52 60.2239 51.7764 60 51.5 60H28.5Z" fill="#0030AD"/>
<path d="M61.7202 22.8129C62.2227 23.2792 62.5918 23.8615 62.8013 24.5H49C47.0669 24.5 45.5 22.933 45.5 21V8.22388C46.0156 8.40405 46.4937 8.68945 46.9009 9.06726L61.7202 22.8129Z" fill="#0030AD"/>
</svg>
