<svg width="80" height="80" viewBox="0 0 80 80" fill="none" xmlns="http://www.w3.org/2000/svg">
<path fill-rule="evenodd" clip-rule="evenodd" d="M44.1807 8C44.2876 8 44.394 8.00439 44.5 8.01282V21C44.5 23.4852 46.5146 25.5 49 25.5H62.9927L62.9976 25.6023C62.999 25.6499 63 25.6978 63 25.7456V68C63 70.2091 61.209 72 59 72H21C18.791 72 17 70.2091 17 68V12C17 9.79089 18.791 8 21 8H44.1807ZM51.707 40.7072C52.0977 40.3165 52.0977 39.6835 51.707 39.2928C51.3164 38.9023 50.6836 38.9023 50.293 39.2928L46 43.5858L43.707 41.2928C43.3164 40.9023 42.6836 40.9023 42.293 41.2928C41.9023 41.6835 41.9023 42.3165 42.293 42.7072L45.293 45.7072C45.6836 46.0977 46.3164 46.0977 46.707 45.7072L51.707 40.7072ZM29 41C28.4478 41 28 41.4478 28 42C28 42.5522 28.4478 43 29 43H39C39.5522 43 40 42.5522 40 42C40 41.4478 39.5522 41 39 41H29ZM29 49C28.4478 49 28 49.4478 28 50C28 50.5522 28.4478 51 29 51H51C51.5522 51 52 50.5522 52 50C52 49.4478 51.5522 49 51 49H29ZM29 57C28.4478 57 28 57.4478 28 58C28 58.5522 28.4478 59 29 59H51C51.5522 59 52 58.5522 52 58C52 57.4478 51.5522 57 51 57H29Z" fill="#0030AD"/>
<path d="M62.8013 24.5C62.5918 23.8615 62.2227 23.2792 61.7202 22.8129L46.9009 9.06726C46.4937 8.68945 46.0156 8.40405 45.5 8.22388V21C45.5 22.933 47.0669 24.5 49 24.5H62.8013Z" fill="#0030AD"/>
</svg>
