<svg width="80" height="80" viewBox="0 0 80 80" fill="none" xmlns="http://www.w3.org/2000/svg">
<path fill-rule="evenodd" clip-rule="evenodd" d="M44.3813 8.00513C44.4209 8.00708 44.4604 8.00964 44.5 8.01282V21C44.5 23.4852 46.5146 25.5 49 25.5H62.9927C62.9976 25.5815 63 25.6635 63 25.7456V68C63 70.2091 61.209 72 59 72H21C18.791 72 17 70.2091 17 68V12C17 9.79089 18.791 8 21 8H44.1807C44.2476 8 44.3145 8.00171 44.3813 8.00513ZM45.5 42C44.9478 42 44.5 42.4478 44.5 43C44.5 43.5522 44.9478 44 45.5 44H48.7729L42.896 50.6117L37.6401 46.2318C37.2427 45.9006 36.6587 45.9271 36.293 46.2928L28.293 54.2928C27.9023 54.6835 27.9023 55.3165 28.293 55.7072C28.6836 56.0977 29.3164 56.0977 29.707 55.7072L37.0615 48.3529L42.3599 52.7682C42.7744 53.1139 43.3887 53.0679 43.7476 52.6643L50 45.6302V49C50 49.5522 50.4478 50 51 50C51.5522 50 52 49.5522 52 49V43C52 42.4478 51.5522 42 51 42H45.5Z" fill="#0030AD"/>
<path d="M62.8013 24.5C62.5918 23.8615 62.2227 23.2792 61.7202 22.8129L46.9009 9.06726C46.4937 8.68945 46.0156 8.40405 45.5 8.22388V21C45.5 22.933 47.0669 24.5 49 24.5H62.8013Z" fill="#0030AD"/>
</svg>
