<svg width="80" height="80" viewBox="0 0 80 80" fill="none" xmlns="http://www.w3.org/2000/svg">
<path d="M32.9258 41.4683C33.8159 40.5262 35.6567 39.5803 39.5 39.5049V48.4951C35.6567 48.4197 33.8159 47.4738 32.9258 46.5317C32.0034 45.5548 32 44.4771 32 44C32 43.5229 32.0034 42.4452 32.9258 41.4683Z" fill="#0030AD"/>
<path d="M47.0742 56.5317C46.1841 57.4738 44.3433 58.4197 40.5 58.4951V49.5049C44.3433 49.5803 46.1841 50.5262 47.0742 51.4683C47.9966 52.4452 48 53.5229 48 54C48 54.4771 47.9966 55.5548 47.0742 56.5317Z" fill="#0030AD"/>
<path fill-rule="evenodd" clip-rule="evenodd" d="M44.1807 8C44.2876 8 44.394 8.00439 44.5 8.01282V21C44.5 23.4852 46.5146 25.5 49 25.5H62.9927C62.9976 25.5815 63 25.6635 63 25.7456V68C63 70.2091 61.209 72 59 72H21C18.7908 72 17 70.2091 17 68V12C17 9.79089 18.7908 8 21 8H44.1807ZM40.5 37.5C40.5 37.2239 40.2764 37 40 37C39.7236 37 39.5 37.2239 39.5 37.5V38.5046C35.5068 38.5802 33.3496 39.5636 32.1992 40.7817C31 42.0513 31 43.4692 31 43.9956V44.0044C31 44.5308 31 45.9487 32.1992 47.2183C33.3496 48.4364 35.5068 49.4198 39.5 49.4954V58.4951C35.6567 58.4197 33.8159 57.4738 32.9258 56.5317C32.0034 55.5548 32 54.4771 32 54C32 53.7239 31.7764 53.5 31.5 53.5C31.2236 53.5 31 53.7239 31 54V54.0044C31 54.5308 31 55.9487 32.1992 57.2183C33.3496 58.4364 35.5068 59.4198 39.5 59.4954V60.5C39.5 60.7761 39.7236 61 40 61C40.2764 61 40.5 60.7761 40.5 60.5V59.4954C44.4932 59.4198 46.6504 58.4364 47.8008 57.2183C49 55.9487 49 54.5308 49 54.0044V53.9956C49 53.4692 49 52.0513 47.8008 50.7817C46.6504 49.5636 44.4932 48.5802 40.5 48.5046V39.5049C44.3433 39.5803 46.1841 40.5262 47.0742 41.4683C47.9966 42.4452 48 43.5229 48 44C48 44.1176 48.0405 44.2257 48.1084 44.311C48.2002 44.4261 48.3413 44.5 48.5 44.5C48.7764 44.5 49 44.2761 49 44V43.9956C49 43.4692 49 42.0513 47.8008 40.7817C46.6504 39.5636 44.4932 38.5802 40.5 38.5046V37.5Z" fill="#0030AD"/>
<path d="M61.7202 22.8129C62.2227 23.2792 62.5918 23.8615 62.8013 24.5H49C47.0669 24.5 45.5 22.933 45.5 21V8.22388C46.0156 8.40405 46.4937 8.68945 46.9009 9.06726L61.7202 22.8129Z" fill="#0030AD"/>
</svg>
