<svg width="80" height="80" viewBox="0 0 80 80" fill="none" xmlns="http://www.w3.org/2000/svg">
<path d="M32 49V51.8293C30.835 51.4175 30 50.3063 30 49V45C30 43.3431 31.3433 42 33 42H43C44.3062 42 45.4175 42.8348 45.8291 44H37C34.2388 44 32 46.2385 32 49Z" fill="#0030AD"/>
<path d="M40 51C40 49.8954 40.8955 49 42 49C43.1045 49 44 49.8954 44 51C44 52.1046 43.1045 53 42 53C40.8955 53 40 52.1046 40 51Z" fill="#0030AD"/>
<path fill-rule="evenodd" clip-rule="evenodd" d="M34 49C34 47.3431 35.3433 46 37 46H47C48.6567 46 50 47.3431 50 49V53C50 54.6569 48.6567 56 47 56H37C35.3433 56 34 54.6569 34 53V49ZM42 47C39.791 47 38 48.7909 38 51C38 53.2091 39.791 55 42 55C44.209 55 46 53.2091 46 51C46 48.7909 44.209 47 42 47Z" fill="#0030AD"/>
<path fill-rule="evenodd" clip-rule="evenodd" d="M44.1807 8C44.2876 8 44.394 8.00439 44.5 8.01282V21C44.5 23.4852 46.5146 25.5 49 25.5H62.9927C62.9976 25.5815 63 25.6635 63 25.7456V68C63 70.2091 61.209 72 59 72H21C18.791 72 17 70.2091 17 68V12C17 9.79089 18.791 8 21 8H44.1807ZM33 40C30.2388 40 28 42.2385 28 45V49C28 51.4485 29.7598 53.4858 32.084 53.9163C32.5142 56.2401 34.5518 58 37 58H47C49.7612 58 52 55.7615 52 53V49C52 46.5515 50.2402 44.5142 47.916 44.0837C47.4858 41.7599 45.4482 40 43 40H33Z" fill="#0030AD"/>
<path d="M62.8013 24.5C62.5918 23.8615 62.2227 23.2792 61.7202 22.8129L46.9009 9.06726C46.4937 8.68945 46.0156 8.40405 45.5 8.22388V21C45.5 22.933 47.0669 24.5 49 24.5H62.8013Z" fill="#0030AD"/>
</svg>
