<svg width="80" height="80" viewBox="0 0 80 80" fill="none" xmlns="http://www.w3.org/2000/svg">
<path d="M34.5 43C34.5 42.5963 34.7222 41.3228 35.5347 40.1617C36.3257 39.0315 37.6792 38 40 38C42.3208 38 43.6743 39.0315 44.4653 40.1617C45.2778 41.3228 45.5 42.5963 45.5 43V47.5L34.5 47.499V43Z" fill="#0030AD"/>
<path fill-rule="evenodd" clip-rule="evenodd" d="M29 50C29 49.1716 29.6714 48.5 30.5 48.5H49.5C50.3286 48.5 51 49.1716 51 50V58.5C51 59.3284 50.3286 60 49.5 60H30.5C29.6714 60 29 59.3284 29 58.5V50ZM44.3345 52.3717C44.5396 52.1869 44.5562 51.8707 44.3716 51.6655C44.187 51.4602 43.8706 51.4436 43.6655 51.6283L39.0181 55.811L36.3535 53.1465C36.1582 52.9512 35.8418 52.9512 35.6465 53.1465C35.4512 53.3417 35.4512 53.6583 35.6465 53.8535L38.6465 56.8535C38.8345 57.0416 39.1367 57.0496 39.3345 56.8717L44.3345 52.3717Z" fill="#0030AD"/>
<path fill-rule="evenodd" clip-rule="evenodd" d="M44.1807 8C44.2876 8 44.394 8.00439 44.5 8.01282V21C44.5 23.4852 46.5146 25.5 49 25.5H62.9927C62.9976 25.5815 63 25.6635 63 25.7456V68C63 70.2091 61.209 72 59 72H21C18.7908 72 17 70.2091 17 68V12C17 9.79089 18.7908 8 21 8H44.1807ZM46.5 43V47.5H49.5C50.8809 47.5 52 48.6193 52 50V58.5C52 59.8807 50.8809 61 49.5 61H30.5C29.1191 61 28 59.8807 28 58.5V50C28 48.6193 29.1191 47.5 30.5 47.5L33.5 47.499V43C33.5 42.4037 33.7778 40.9272 34.7153 39.5883C35.6743 38.2185 37.3208 37 40 37C42.6792 37 44.3257 38.2185 45.2847 39.5883C46.2222 40.9272 46.5 42.4037 46.5 43Z" fill="#0030AD"/>
<path d="M62.5181 23.8427C62.5791 23.9552 62.6348 24.0706 62.6846 24.1882C62.7275 24.2904 62.7666 24.3944 62.8013 24.5H49C47.0669 24.5 45.5 22.933 45.5 21V8.22388C46.0156 8.40405 46.4937 8.68945 46.9009 9.06726L61.7202 22.8129C62.0439 23.1133 62.3125 23.4619 62.5181 23.8427Z" fill="#0030AD"/>
</svg>
