<svg width="80" height="80" viewBox="0 0 80 80" fill="none" xmlns="http://www.w3.org/2000/svg">
<path d="M32.832 41.8322C33.6172 41.0469 35.3154 40.1549 39 40.0181V47.9819C35.3154 47.8451 33.6172 46.9531 32.832 46.1678C32.0039 45.3395 32 44.4446 32 44C32 43.5554 32.0039 42.6605 32.832 41.8322Z" fill="#0030AD"/>
<path d="M47.168 56.1678C46.3828 56.9531 44.6846 57.8451 41 57.9819V50.0181C44.6846 50.1549 46.3828 51.0469 47.168 51.8322C47.9961 52.6605 48 53.5554 48 54C48 54.4446 47.9961 55.3395 47.168 56.1678Z" fill="#0030AD"/>
<path fill-rule="evenodd" clip-rule="evenodd" d="M44.1807 8C44.2876 8 44.394 8.00439 44.5 8.01282V21C44.5 23.4852 46.5146 25.5 49 25.5H62.9927C62.9956 25.5463 62.9976 25.5925 62.9985 25.639L63 25.7456V68C63 70.2091 61.209 72 59 72H21C18.791 72 17 70.2091 17 68V12C17 9.79089 18.791 8 21 8H44.1807ZM41 38C41 37.4478 40.5522 37 40 37C39.4478 37 39 37.4478 39 38V38.0168C35.0073 38.1545 32.7104 39.1252 31.418 40.4178C30 41.8358 30 43.4364 30 43.9957V44.0043C30 44.5636 30 46.1642 31.418 47.5822C32.7104 48.8748 35.0073 49.8455 39 49.9832V57.9819C35.3154 57.8451 33.6172 56.9531 32.832 56.1678C32.0039 55.3395 32 54.4446 32 54C32 53.4478 31.5522 53 31 53C30.4478 53 30 53.4478 30 54V54.0043C30 54.5636 30 56.1642 31.418 57.5822C32.7104 58.8748 35.0073 59.8455 39 59.9832V60C39 60.5522 39.4478 61 40 61C40.5522 61 41 60.5522 41 60V59.9832C44.9927 59.8455 47.2896 58.8748 48.582 57.5822C50 56.1642 50 54.5636 50 54.0043V53.9957C50 53.4364 50 51.8358 48.582 50.4178C47.2896 49.1252 44.9927 48.1545 41 48.0168V40.0181C44.6846 40.1549 46.3828 41.0469 47.168 41.8322C47.9961 42.6605 48 43.5554 48 44C48 44.5522 48.4478 45 49 45C49.5522 45 50 44.5522 50 44V43.9957C50 43.4364 50 41.8358 48.582 40.4178C47.2896 39.1252 44.9927 38.1545 41 38.0168V38Z" fill="#0030AD"/>
<path d="M62.8013 24.5C62.5918 23.8615 62.2227 23.2792 61.7202 22.8129L46.9009 9.06726C46.4937 8.68945 46.0156 8.40405 45.5 8.22388V21C45.5 22.933 47.0669 24.5 49 24.5H62.8013Z" fill="#0030AD"/>
</svg>
