<svg width="80" height="80" viewBox="0 0 80 80" fill="none" xmlns="http://www.w3.org/2000/svg">
<path d="M29 42.5C29 41.6716 29.6714 41 30.5 41H45.5C46.3286 41 47 41.6716 47 42.5V44H34.5C33.1191 44 32 45.1193 32 46.5V53H30.5C29.6714 53 29 52.3284 29 51.5V42.5Z" fill="#0030AD"/>
<path d="M39.5 51C39.5 49.6193 40.6191 48.5 42 48.5C43.3809 48.5 44.5 49.6193 44.5 51C44.5 52.3807 43.3809 53.5 42 53.5C40.6191 53.5 39.5 52.3807 39.5 51Z" fill="#0030AD"/>
<path fill-rule="evenodd" clip-rule="evenodd" d="M33 46.5C33 45.6716 33.6714 45 34.5 45H49.5C50.3286 45 51 45.6716 51 46.5V55.5C51 56.3284 50.3286 57 49.5 57H34.5C33.6714 57 33 56.3284 33 55.5V46.5ZM42 47.5C40.0669 47.5 38.5 49.067 38.5 51C38.5 52.933 40.0669 54.5 42 54.5C43.9331 54.5 45.5 52.933 45.5 51C45.5 49.067 43.9331 47.5 42 47.5Z" fill="#0030AD"/>
<path fill-rule="evenodd" clip-rule="evenodd" d="M44.3481 8.00354C44.3989 8.00574 44.4497 8.00879 44.5 8.01282V21C44.5 23.4852 46.5146 25.5 49 25.5H62.9927L62.9985 25.63L63 25.7456V68C63 70.2091 61.209 72 59 72H21C18.791 72 17 70.2091 17 68V12C17 9.79089 18.791 8 21 8H44.1807C44.2368 8 44.2925 8.00122 44.3481 8.00354ZM48 42.5V44H49.5C50.8809 44 52 45.1193 52 46.5V55.5C52 56.8807 50.8809 58 49.5 58H34.5C33.1191 58 32 56.8807 32 55.5V54H30.5C29.1191 54 28 52.8807 28 51.5V42.5C28 41.1193 29.1191 40 30.5 40H45.5C46.8809 40 48 41.1193 48 42.5Z" fill="#0030AD"/>
<path d="M62.8013 24.5C62.5918 23.8615 62.2227 23.2792 61.7202 22.8129L46.9009 9.06726C46.4937 8.68945 46.0156 8.40405 45.5 8.22388V21C45.5 22.933 47.0669 24.5 49 24.5H62.8013Z" fill="#0030AD"/>
</svg>
