<svg width="80" height="80" viewBox="0 0 80 80" fill="none" xmlns="http://www.w3.org/2000/svg">
<path d="M34.5 43C34.5 42.5963 34.7222 41.3228 35.5347 40.1617C36.3257 39.0315 37.6792 38 40 38C42.3208 38 43.6743 39.0315 44.4653 40.1617C45.2778 41.3228 45.5 42.5963 45.5 43V47.5L34.5 47.499V43Z" fill="#0030AD"/>
<path fill-rule="evenodd" clip-rule="evenodd" d="M29 50C29 49.1716 29.6714 48.5 30.5 48.5H49.5C50.3286 48.5 51 49.1716 51 50V58.5C51 59.3284 50.3286 60 49.5 60H30.5C29.6714 60 29 59.3284 29 58.5V50ZM37.3535 50.6465C37.1582 50.4512 36.8418 50.4512 36.6465 50.6465C36.4985 50.7946 36.4624 51.0126 36.5391 51.1943C36.5635 51.2522 36.5991 51.3064 36.6465 51.3535L39.293 54L36.6465 56.6465C36.4512 56.8417 36.4512 57.1583 36.6465 57.3535C36.8418 57.5488 37.1582 57.5488 37.3535 57.3535L40 54.7072L42.6465 57.3535C42.8418 57.5488 43.1582 57.5488 43.3535 57.3535C43.5488 57.1583 43.5488 56.8417 43.3535 56.6465L40.707 54L43.3535 51.3535C43.5488 51.1583 43.5488 50.8417 43.3535 50.6465C43.1582 50.4512 42.8418 50.4512 42.6465 50.6465L40 53.2928L37.3535 50.6465Z" fill="#0030AD"/>
<path fill-rule="evenodd" clip-rule="evenodd" d="M44.1807 8C44.2876 8 44.394 8.00439 44.5 8.01282V21C44.5 23.4852 46.5146 25.5 49 25.5H62.9927C62.9976 25.5815 63 25.6635 63 25.7456V68C63 70.2091 61.209 72 59 72H21C18.7908 72 17 70.2091 17 68V12C17 9.79089 18.7908 8 21 8H44.1807ZM46.5 43V47.5H49.5C50.8809 47.5 52 48.6193 52 50V58.5C52 59.8807 50.8809 61 49.5 61H30.5C29.1191 61 28 59.8807 28 58.5V50C28 48.6193 29.1191 47.5 30.5 47.5L33.5 47.499V43C33.5 42.4037 33.7778 40.9272 34.7153 39.5883C35.6743 38.2185 37.3208 37 40 37C42.6792 37 44.3257 38.2185 45.2847 39.5883C46.2222 40.9272 46.5 42.4037 46.5 43Z" fill="#0030AD"/>
<path d="M61.7202 22.8129C62.2227 23.2792 62.5918 23.8615 62.8013 24.5H49C47.0669 24.5 45.5 22.933 45.5 21V8.22388C46.0156 8.40405 46.4937 8.68945 46.9009 9.06726L61.7202 22.8129Z" fill="#0030AD"/>
</svg>
