<svg width="36" height="36" viewBox="0 0 36 36" fill="none" xmlns="http://www.w3.org/2000/svg">
<path fill-rule="evenodd" clip-rule="evenodd" d="M19.0077 6.3115C18.385 5.942 17.615 5.942 16.9923 6.3115L7.99226 11.6517C7.37781 12.0163 7 12.6854 7 13.4089V27.9355C7 29.0572 7.89362 29.9656 9 29.9656H13V21.8281C13 19.581 14.7909 17.7594 17 17.7594H19C21.2091 17.7594 23 19.581 23 21.8281V29.9656H27C28.1046 29.9656 29 29.0548 29 27.9313V13.409C29 12.6854 28.6222 12.0163 28.0077 11.6517L19.0077 6.3115ZM21 29.9656V21.8281C21 20.7046 20.1046 19.7938 19 19.7938H17C15.8954 19.7938 15 20.7046 15 21.8281V29.9656H21ZM15.9845 4.55425C17.23 3.81525 18.77 3.81525 20.0155 4.55425L29.0155 9.89448C30.2444 10.6236 31 11.9619 31 13.409V27.9313C31 30.1784 29.2091 32 27 32H9C6.79267 32 5 30.1844 5 27.9355V13.4089C5 11.9618 5.75566 10.6236 6.98452 9.89448L15.9845 4.55425Z" fill="#2161ED"/>
</svg>
