<svg width="36" height="36" viewBox="0 0 36 36" fill="none" xmlns="http://www.w3.org/2000/svg">
<path fill-rule="evenodd" clip-rule="evenodd" d="M5 5C5 4.44772 5.44772 4 6 4H30C30.5523 4 31 4.44772 31 5V31C31 31.5523 30.5523 32 30 32H22C21.4477 32 21 31.5523 21 31V20H15V31C15 31.5523 14.5523 32 14 32H6C5.44772 32 5 31.5523 5 31V5ZM7 6V30H13V19C13 18.4477 13.4477 18 14 18H22C22.5523 18 23 18.4477 23 19V30H29V6H7ZM9 9C9 8.44772 9.44772 8 10 8H16C16.5523 8 17 8.44772 17 9V15C17 15.5523 16.5523 16 16 16H10C9.44772 16 9 15.5523 9 15V9ZM11 10V14H15V10H11ZM19 9C19 8.44772 19.4477 8 20 8H26C26.5523 8 27 8.44772 27 9V15C27 15.5523 26.5523 16 26 16H20C19.4477 16 19 15.5523 19 15V9ZM21 10V14H25V10H21Z" fill="#2161ED"/>
</svg>
