<svg width="36" height="36" viewBox="0 0 36 36" fill="none" xmlns="http://www.w3.org/2000/svg">
<path fill-rule="evenodd" clip-rule="evenodd" d="M10 13L10 12.9989L10 12.9977L10 12.9948L10.0001 12.987L10.0003 12.9638C10.0006 12.945 10.0012 12.9196 10.0023 12.8881C10.0044 12.825 10.0084 12.7371 10.0162 12.628C10.0318 12.41 10.0624 12.1051 10.123 11.7419C10.2433 11.0201 10.4857 10.0425 10.9806 9.05279C11.4774 8.05916 12.2383 7.03511 13.3984 6.2617C14.5648 5.48412 16.075 5 18 5C19.925 5 21.4352 5.48412 22.6016 6.2617C23.7617 7.03511 24.5226 8.05916 25.0194 9.05279C25.5143 10.0425 25.7567 11.0201 25.877 11.7419C25.9376 12.1051 25.9682 12.41 25.9838 12.628C25.9916 12.7371 25.9956 12.825 25.9977 12.8881C25.9988 12.9196 25.9994 12.945 25.9997 12.9638L25.9999 12.987L26 12.9948L26 12.9977L26 12.9989V13V16H28C30.2091 16 32 17.7909 32 20V27C32 29.2091 30.2091 31 28 31H8C5.79086 31 4 29.2091 4 27V20C4 17.7909 5.79086 16 8 16H10V13ZM8 18C6.89543 18 6 18.8954 6 20V27C6 28.1046 6.89543 29 8 29H28C29.1046 29 30 28.1046 30 27V20C30 18.8954 29.1046 18 28 18H8ZM24 16H12V13.0025L12.0001 12.996C12.0002 12.9883 12.0005 12.9744 12.0012 12.9547C12.0025 12.9152 12.0053 12.8527 12.0111 12.7705C12.0229 12.6056 12.0469 12.3637 12.0958 12.0706C12.1942 11.4799 12.3893 10.7075 12.7694 9.94721C13.1476 9.19084 13.6992 8.46489 14.5078 7.9258C15.3102 7.39088 16.425 7 18 7C19.575 7 20.6898 7.39088 21.4922 7.9258C22.3008 8.46489 22.8524 9.19084 23.2306 9.94721C23.6107 10.7075 23.8058 11.4799 23.9042 12.0706C23.9531 12.3637 23.9771 12.6056 23.9889 12.7705C23.9947 12.8527 23.9975 12.9152 23.9988 12.9547C23.9995 12.9744 23.9998 12.9883 23.9999 12.996L24 13.0009V13.0024V16ZM18 21C18.5523 21 19 21.4477 19 22V26C19 26.5523 18.5523 27 18 27C17.4477 27 17 26.5523 17 26V22C17 21.4477 17.4477 21 18 21Z" fill="#2161ED"/>
</svg>
