<svg width="36" height="36" viewBox="0 0 36 36" fill="none" xmlns="http://www.w3.org/2000/svg">
<path fill-rule="evenodd" clip-rule="evenodd" d="M12 12.0025V16H24V12.0024V12.0009L23.9999 11.996C23.9998 11.9883 23.9995 11.9744 23.9988 11.9547C23.9975 11.9152 23.9947 11.8527 23.9889 11.7705C23.9771 11.6056 23.9531 11.3637 23.9042 11.0706C23.8058 10.4799 23.6107 9.7075 23.2306 8.94721C22.8524 8.19084 22.3008 7.46489 21.4922 6.9258C20.6898 6.39088 19.575 6 18 6C16.425 6 15.3102 6.39088 14.5078 6.9258C13.6992 7.46489 13.1476 8.19084 12.7694 8.94721C12.3893 9.7075 12.1942 10.4799 12.0958 11.0706C12.0469 11.3637 12.0229 11.6056 12.0111 11.7705C12.0053 11.8527 12.0025 11.9152 12.0012 11.9547C12.0005 11.9744 12.0002 11.9883 12.0001 11.996L12 12.0025ZM26 12V11.9989L26 11.9977L26 11.9948L25.9999 11.987L25.9997 11.9638C25.9994 11.945 25.9988 11.9196 25.9977 11.8881C25.9956 11.825 25.9916 11.7371 25.9838 11.628C25.9682 11.41 25.9376 11.1051 25.877 10.7419C25.7567 10.0201 25.5143 9.0425 25.0194 8.05279C24.5226 7.05916 23.7617 6.03511 22.6016 5.2617C21.4352 4.48412 19.925 4 18 4C16.075 4 14.5648 4.48412 13.3984 5.2617C12.2383 6.03511 11.4774 7.05916 10.9806 8.05279C10.4857 9.0425 10.2433 10.0201 10.123 10.7419C10.0624 11.1051 10.0318 11.41 10.0162 11.628C10.0084 11.7371 10.0044 11.825 10.0023 11.8881C10.0012 11.9196 10.0006 11.945 10.0003 11.9638L10.0001 11.987L10 11.9948L10 11.9977L10 11.9989L10 12V16H7C5.34315 16 4 17.3431 4 19V29C4 30.6569 5.34315 32 7 32H29C30.6569 32 32 30.6569 32 29V19C32 17.3431 30.6569 16 29 16H26V12ZM7 18C6.44772 18 6 18.4477 6 19V29C6 29.5523 6.44772 30 7 30H29C29.5523 30 30 29.5523 30 29V19C30 18.4477 29.5523 18 29 18H7ZM18 20C18.5523 20 19 20.4477 19 21V25C19 25.5523 18.5523 26 18 26C17.4477 26 17 25.5523 17 25V21C17 20.4477 17.4477 20 18 20Z" fill="#2161ED"/>
</svg>
