<svg width="24" height="24" viewBox="0 0 24 24" fill="none" xmlns="http://www.w3.org/2000/svg">
<path fill-rule="evenodd" clip-rule="evenodd" d="M9 5C9.27614 5 9.5 5.22386 9.5 5.5V7H14.5V5.5C14.5 5.22386 14.7239 5 15 5C15.2761 5 15.5 5.22386 15.5 5.5V7H16.5C17.8807 7 19 8.11929 19 9.5V16.5C19 17.8807 17.8807 19 16.5 19H7.5C6.11929 19 5 17.8807 5 16.5V9.5C5 8.11929 6.11929 7 7.5 7H8.5V5.5C8.5 5.22386 8.72386 5 9 5ZM8.5 8H7.5C6.67157 8 6 8.67157 6 9.5V11H18V9.5C18 8.67157 17.3284 8 16.5 8H15.5V9C15.5 9.27614 15.2761 9.5 15 9.5C14.7239 9.5 14.5 9.27614 14.5 9V8H9.5V9C9.5 9.27614 9.27614 9.5 9 9.5C8.72386 9.5 8.5 9.27614 8.5 9V8ZM18 12H6V16.5C6 17.3284 6.67157 18 7.5 18H16.5C17.3284 18 18 17.3284 18 16.5V12Z" fill="#83858A"/>
</svg>
