<svg width="20" height="20" viewBox="0 0 20 20" fill="none" xmlns="http://www.w3.org/2000/svg">
<path fill-rule="evenodd" clip-rule="evenodd" d="M3 5.5C3 4.11929 4.11929 3 5.5 3H9.5C9.77614 3 10 3.22386 10 3.5C10 3.77614 9.77614 4 9.5 4H5.5C4.67157 4 4 4.67157 4 5.5V14.5C4 15.3284 4.67157 16 5.5 16H9.5C9.77614 16 10 16.2239 10 16.5C10 16.7761 9.77614 17 9.5 17H5.5C4.11929 17 3 15.8807 3 14.5V5.5ZM14.1877 7.10957C14.4033 6.93706 14.7179 6.97202 14.8904 7.18765L16.8904 9.68765C17.0365 9.87026 17.0365 10.1297 16.8904 10.3123L14.8904 12.8123C14.7179 13.028 14.4033 13.0629 14.1877 12.8904C13.972 12.7179 13.9371 12.4033 14.1096 12.1877L15.4597 10.5H8.5C8.22386 10.5 8 10.2761 8 10C8 9.72386 8.22386 9.5 8.5 9.5H15.4597L14.1096 7.81235C13.9371 7.59672 13.972 7.28207 14.1877 7.10957Z" fill="#C91052"/>
</svg>
