<svg width="24" height="24" viewBox="0 0 24 24" fill="none" xmlns="http://www.w3.org/2000/svg">
<path fill-rule="evenodd" clip-rule="evenodd" d="M5 7.5C5 6.11929 6.11929 5 7.5 5H11.5C11.7761 5 12 5.22386 12 5.5C12 5.77614 11.7761 6 11.5 6H7.5C6.67157 6 6 6.67157 6 7.5V16.5C6 17.3284 6.67157 18 7.5 18H11.5C11.7761 18 12 18.2239 12 18.5C12 18.7761 11.7761 19 11.5 19H7.5C6.11929 19 5 17.8807 5 16.5V7.5ZM12.8123 9.10957C13.028 9.28207 13.0629 9.59672 12.8904 9.81235L11.5403 11.5H18.5C18.7761 11.5 19 11.7239 19 12C19 12.2761 18.7761 12.5 18.5 12.5H11.5403L12.8904 14.1877C13.0629 14.4033 13.028 14.7179 12.8123 14.8904C12.5967 15.0629 12.2821 15.028 12.1096 14.8123L10.1096 12.3123C9.96348 12.1297 9.96348 11.8703 10.1096 11.6877L12.1096 9.18765C12.2821 8.97202 12.5967 8.93706 12.8123 9.10957Z" fill="#10C986"/>
</svg>
