<svg width="24" height="24" viewBox="0 0 24 24" fill="none" xmlns="http://www.w3.org/2000/svg">
<path fill-rule="evenodd" clip-rule="evenodd" d="M8.5 5.5C8.5 5.22386 8.72386 5 9 5H15C15.2761 5 15.5 5.22386 15.5 5.5V7.5H16.4964C16.4985 7.49999 16.5007 7.49999 16.5028 7.5H18.5C18.7761 7.5 19 7.72386 19 8C19 8.27614 18.7761 8.5 18.5 8.5H16.9768L16.5901 16.6189C16.5267 17.9519 15.4275 19 14.093 19H9.90703C8.57255 19 7.47333 17.9519 7.40986 16.6189L7.02324 8.5H5.5C5.22386 8.5 5 8.27614 5 8C5 7.72386 5.22386 7.5 5.5 7.5H7.49716C7.49932 7.49999 7.50148 7.49999 7.50364 7.5H8.5V5.5ZM9.5 7.5H14.5V6H9.5V7.5ZM8.02438 8.5L8.40873 16.5713C8.44681 17.3711 9.10634 18 9.90703 18H14.093C14.8937 18 15.5532 17.3711 15.5913 16.5713L15.9756 8.5H8.02438ZM10 10C10.2761 10 10.5 10.2239 10.5 10.5V15.5C10.5 15.7761 10.2761 16 10 16C9.72386 16 9.5 15.7761 9.5 15.5V10.5C9.5 10.2239 9.72386 10 10 10ZM12 10C12.2761 10 12.5 10.2239 12.5 10.5V15.5C12.5 15.7761 12.2761 16 12 16C11.7239 16 11.5 15.7761 11.5 15.5V10.5C11.5 10.2239 11.7239 10 12 10ZM14 10C14.2761 10 14.5 10.2239 14.5 10.5V15.5C14.5 15.7761 14.2761 16 14 16C13.7239 16 13.5 15.7761 13.5 15.5V10.5C13.5 10.2239 13.7239 10 14 10Z" fill="#C91052"/>
</svg>
