<svg width="21" height="20" viewBox="0 0 21 20" fill="none" xmlns="http://www.w3.org/2000/svg">
<path fill-rule="evenodd" clip-rule="evenodd" d="M7 3.5C7 3.22386 7.22386 3 7.5 3H13.5C13.7761 3 14 3.22386 14 3.5V5.5H14.9964C14.9985 5.49999 15.0007 5.49999 15.0028 5.5H17C17.2761 5.5 17.5 5.72386 17.5 6C17.5 6.27614 17.2761 6.5 17 6.5H15.4768L15.0901 14.6189C15.0267 15.9519 13.9275 17 12.593 17H8.40703C7.07255 17 5.97333 15.9519 5.90986 14.6189L5.52324 6.5H4C3.72386 6.5 3.5 6.27614 3.5 6C3.5 5.72386 3.72386 5.5 4 5.5H5.99716C5.99932 5.49999 6.00148 5.49999 6.00364 5.5H7V3.5ZM8 5.5H13V4H8V5.5ZM6.52438 6.5L6.90873 14.5713C6.94681 15.3711 7.60634 16 8.40703 16H12.593C13.3937 16 14.0532 15.3711 14.0913 14.5713L14.4756 6.5H6.52438ZM8.5 8C8.77614 8 9 8.22386 9 8.5V13.5C9 13.7761 8.77614 14 8.5 14C8.22386 14 8 13.7761 8 13.5V8.5C8 8.22386 8.22386 8 8.5 8ZM10.5 8C10.7761 8 11 8.22386 11 8.5V13.5C11 13.7761 10.7761 14 10.5 14C10.2239 14 10 13.7761 10 13.5V8.5C10 8.22386 10.2239 8 10.5 8ZM12.5 8C12.7761 8 13 8.22386 13 8.5V13.5C13 13.7761 12.7761 14 12.5 14C12.2239 14 12 13.7761 12 13.5V8.5C12 8.22386 12.2239 8 12.5 8Z" fill="#C91052"/>
</svg>
