<svg width="36" height="36" viewBox="0 0 36 36" fill="none" xmlns="http://www.w3.org/2000/svg">
<path fill-rule="evenodd" clip-rule="evenodd" d="M12 6C10.8954 6 10 6.89543 10 8V28C10 29.1046 10.8954 30 12 30H24C25.1046 30 26 29.1046 26 28V13H22C19.7909 13 18 11.2091 18 9V6H12ZM20 7.20377L24.3386 11H22C20.8954 11 20 10.1046 20 9V7.20377ZM8 8C8 5.79086 9.79086 4 12 4H19C19.2422 4 19.4762 4.08792 19.6585 4.24742L27.6585 11.2474C27.8755 11.4373 28 11.7116 28 12V28C28 30.2091 26.2091 32 24 32H12C9.79086 32 8 30.2091 8 28V8Z" fill="#2161ED"/>
</svg>
