<svg width="24" height="24" viewBox="0 0 24 24" fill="none" xmlns="http://www.w3.org/2000/svg">
<path fill-rule="evenodd" clip-rule="evenodd" d="M6 7.5C6 6.11929 7.11929 5 8.5 5H12.5C13.7095 5 14.7184 5.85888 14.95 7H15.5C16.8807 7 18 8.11929 18 9.5V16.5C18 17.8807 16.8807 19 15.5 19H11.5C10.2905 19 9.28164 18.1411 9.05001 17H8.5C7.11929 17 6 15.8807 6 14.5V7.5ZM9 16V9.5C9 8.11929 10.1193 7 11.5 7H13.9146C13.7087 6.4174 13.1531 6 12.5 6H8.5C7.67157 6 7 6.67157 7 7.5V14.5C7 15.3284 7.67157 16 8.5 16H9ZM11.5 8C10.6716 8 10 8.67157 10 9.5V16.5C10 17.3284 10.6716 18 11.5 18H15.5C16.3284 18 17 17.3284 17 16.5V9.5C17 8.67157 16.3284 8 15.5 8H11.5ZM11 11.5C11 11.2239 11.2239 11 11.5 11H15.5C15.7761 11 16 11.2239 16 11.5C16 11.7761 15.7761 12 15.5 12H11.5C11.2239 12 11 11.7761 11 11.5ZM11 14.5C11 14.2239 11.2239 14 11.5 14H15.5C15.7761 14 16 14.2239 16 14.5C16 14.7761 15.7761 15 15.5 15H11.5C11.2239 15 11 14.7761 11 14.5Z" fill="#83858A"/>
</svg>
