<svg width="24" height="24" viewBox="0 0 24 24" fill="none" xmlns="http://www.w3.org/2000/svg">
<path fill-rule="evenodd" clip-rule="evenodd" d="M15.1464 5.14645C15.3417 4.95118 15.6583 4.95118 15.8536 5.14645L18.8536 8.14645C19.0488 8.34171 19.0488 8.65829 18.8536 8.85355L8.85355 18.8536C8.75979 18.9473 8.63261 19 8.5 19H5.5C5.22386 19 5 18.7761 5 18.5V15.5C5 15.3674 5.05268 15.2402 5.14645 15.1464L15.1464 5.14645ZM14.2071 7.5L16.5 9.79289L17.7929 8.5L15.5 6.20711L14.2071 7.5ZM15.7929 10.5L13.5 8.20711L6 15.7071V18H8.29289L15.7929 10.5Z" fill="#2161ED"/>
</svg>
