<svg width="24" height="24" viewBox="0 0 24 24" fill="none" xmlns="http://www.w3.org/2000/svg">
<path fill-rule="evenodd" clip-rule="evenodd" d="M10.7361 8C10.1679 8 9.64852 8.321 9.39443 8.82918L9.30902 9H14.691L14.6056 8.82918C14.3515 8.321 13.8321 8 13.2639 8H10.7361ZM15.809 9L15.5 8.38197C15.0765 7.53501 14.2109 7 13.2639 7H10.7361C9.78914 7 8.92348 7.53501 8.5 8.38197L8.19098 9H7.5C6.11929 9 5 10.1193 5 11.5V14.5C5 15.8807 6.11929 17 7.5 17H16.5C17.8807 17 19 15.8807 19 14.5V11.5C19 10.1193 17.8807 9 16.5 9H15.809ZM7.5 10C6.67157 10 6 10.6716 6 11.5V14.5C6 15.3284 6.67157 16 7.5 16H16.5C17.3284 16 18 15.3284 18 14.5V11.5C18 10.6716 17.3284 10 16.5 10H7.5ZM12 11.5C11.1716 11.5 10.5 12.1716 10.5 13C10.5 13.8284 11.1716 14.5 12 14.5C12.8284 14.5 13.5 13.8284 13.5 13C13.5 12.1716 12.8284 11.5 12 11.5ZM9.5 13C9.5 11.6193 10.6193 10.5 12 10.5C13.3807 10.5 14.5 11.6193 14.5 13C14.5 14.3807 13.3807 15.5 12 15.5C10.6193 15.5 9.5 14.3807 9.5 13Z" fill="#83858A"/>
</svg>
