<svg width="36" height="36" viewBox="0 0 36 36" fill="none" xmlns="http://www.w3.org/2000/svg">
<path fill-rule="evenodd" clip-rule="evenodd" d="M18 6C15.7909 6 14 7.79086 14 10C14 12.2091 15.7909 14 18 14C20.2091 14 22 12.2091 22 10C22 7.79086 20.2091 6 18 6ZM12 10C12 6.68629 14.6863 4 18 4C21.3137 4 24 6.68629 24 10C24 13.3137 21.3137 16 18 16C14.6863 16 12 13.3137 12 10ZM9 22.4412V30H16.1315L15.168 28.5547C15.0182 28.3301 14.9656 28.0544 15.0222 27.7905L16.4337 21.2034L15.1778 19.3195C13.6302 19.671 12.2995 20.2663 11.2461 20.8682C10.4237 21.3382 9.77909 21.8074 9.34345 22.1559C9.20813 22.2641 9.09333 22.3604 9 22.4412ZM17.3788 19.0154L18 19.9472L18.6212 19.0154C18.4167 19.0053 18.2096 19 18 19C17.7904 19 17.5833 19.0053 17.3788 19.0154ZM20.8222 19.3195L19.5663 21.2034L20.9778 27.7905C21.0344 28.0544 20.9818 28.3301 20.8321 28.5547L19.8685 30H27V22.4412C26.9067 22.3604 26.7919 22.2641 26.6566 22.1559C26.2209 21.8074 25.5763 21.3382 24.7539 20.8682C23.7005 20.2663 22.3698 19.671 20.8222 19.3195ZM28 22L28.7071 21.2929C28.8946 21.4804 29 21.7348 29 22V31C29 31.5523 28.5523 32 28 32H8C7.44772 32 7 31.5523 7 31V22C7 21.7348 7.10536 21.4804 7.29289 21.2929L7.2942 21.2917L7.29571 21.2901L7.30001 21.2858L7.31305 21.273C7.32371 21.2626 7.33829 21.2485 7.35673 21.2309C7.39361 21.1958 7.44596 21.1468 7.51331 21.086C7.64794 20.9644 7.84282 20.7951 8.09405 20.5941C8.59591 20.1926 9.32625 19.6618 10.2539 19.1318C12.1049 18.074 14.7762 17 18 17C21.2238 17 23.8951 18.074 25.7461 19.1318C26.6738 19.6618 27.4041 20.1926 27.9059 20.5941C28.1572 20.7951 28.3521 20.9644 28.4867 21.086C28.554 21.1468 28.6064 21.1958 28.6433 21.2309C28.6617 21.2485 28.6763 21.2626 28.6869 21.273L28.7 21.2858L28.7043 21.2901L28.7071 21.2929C28.7071 21.2929 28.7071 21.2929 28 22ZM18 29.1972L18.9337 27.7966L18 23.4393L17.0663 27.7966L18 29.1972Z" fill="#2161ED"/>
</svg>
