<svg width="36" height="36" viewBox="0 0 36 36" fill="none" xmlns="http://www.w3.org/2000/svg">
<path fill-rule="evenodd" clip-rule="evenodd" d="M18 6C15.7909 6 14 7.79086 14 10C14 12.2091 15.7909 14 18 14C20.2091 14 22 12.2091 22 10C22 7.79086 20.2091 6 18 6ZM12 10C12 6.68629 14.6863 4 18 4C21.3137 4 24 6.68629 24 10C24 13.3137 21.3137 16 18 16C14.6863 16 12 13.3137 12 10ZM16.7948 19.0509L17.502 20H18.498L19.2052 19.0509C18.8224 19.0177 18.421 19 18 19C17.579 19 17.1776 19.0177 16.7948 19.0509ZM21.4017 19.4504L20.0785 21.2262L21.1703 25.9574C21.4281 27.0746 21.1941 28.2487 20.5277 29.1817L19.9432 30H25C26.1046 30 27 29.1046 27 28V24.4868C27 24.2639 26.9648 24.0987 26.9074 23.9758C26.4606 23.0195 24.9764 20.483 21.4017 19.4504ZM18 29.2795L18.9002 28.0193C19.2334 27.5528 19.3504 26.9657 19.2215 26.4071L18.2045 22H17.7955L16.7785 26.4071C16.6496 26.9657 16.7666 27.5528 17.0998 28.0193L18 29.2795ZM15.9215 21.2262L14.5983 19.4504C11.0236 20.483 9.53944 23.0195 9.09261 23.9758C9.03519 24.0987 9 24.2639 9 24.4868V28C9 29.1046 9.89543 30 11 30H16.0568L15.4723 29.1817C14.8059 28.2487 14.5719 27.0746 14.8297 25.9574L15.9215 21.2262ZM14.7813 17.34C15.7476 17.1234 16.8176 17 18 17C19.1824 17 20.2524 17.1234 21.2187 17.34C26.084 18.4306 28.1076 21.8199 28.7193 23.1291C28.9349 23.5905 29 24.0649 29 24.4868V28C29 30.2091 27.2091 32 25 32H11C8.79086 32 7 30.2091 7 28V24.4868C7 24.0649 7.06508 23.5905 7.28066 23.1291C7.89243 21.8199 9.91602 18.4306 14.7813 17.34Z" fill="#2161ED"/>
</svg>
