<svg width="24" height="24" viewBox="0 0 24 24" fill="none" xmlns="http://www.w3.org/2000/svg">
<path fill-rule="evenodd" clip-rule="evenodd" d="M12 6C10.8133 6 9.65328 6.35189 8.66658 7.01118C7.67989 7.67047 6.91085 8.60754 6.45673 9.7039C6.0026 10.8003 5.88378 12.0067 6.11529 13.1705C6.3468 14.3344 6.91825 15.4035 7.75736 16.2426C8.59648 17.0818 9.66558 17.6532 10.8295 17.8847C11.9933 18.1162 13.1997 17.9974 14.2961 17.5433C15.3925 17.0892 16.3295 16.3201 16.9888 15.3334C17.6481 14.3467 18 13.1867 18 12C18 11.7239 18.2239 11.5 18.5 11.5C18.7761 11.5 19 11.7239 19 12C19 13.3845 18.5895 14.7378 17.8203 15.889C17.0511 17.0401 15.9579 17.9373 14.6788 18.4672C13.3997 18.997 11.9922 19.1356 10.6344 18.8655C9.2765 18.5954 8.02922 17.9287 7.05026 16.9497C6.07129 15.9708 5.4046 14.7235 5.13451 13.3656C4.86441 12.0078 5.00303 10.6003 5.53285 9.32122C6.06266 8.04213 6.95987 6.94888 8.11101 6.17971C9.26216 5.41054 10.6155 5 12 5C12.2761 5 12.5 5.22386 12.5 5.5C12.5 5.77614 12.2761 6 12 6ZM16.6464 5.64645C16.8417 5.45118 17.1583 5.45118 17.3536 5.64645L18.8536 7.14645C19.0488 7.34171 19.0488 7.65829 18.8536 7.85355L15.8536 10.8536C15.7598 10.9473 15.6326 11 15.5 11H14C13.7239 11 13.5 10.7761 13.5 10.5V9C13.5 8.86739 13.5527 8.74021 13.6464 8.64645L16.6464 5.64645ZM14.5 9.20711V10H15.2929L17.7929 7.5L17 6.70711L14.5 9.20711ZM12 7C12.2761 7 12.5 7.22386 12.5 7.5V11.7929L14.8536 14.1464C15.0488 14.3417 15.0488 14.6583 14.8536 14.8536C14.6583 15.0488 14.3417 15.0488 14.1464 14.8536L11.6464 12.3536C11.5527 12.2598 11.5 12.1326 11.5 12V7.5C11.5 7.22386 11.7239 7 12 7Z" fill="#2161ED"/>
</svg>
