<svg width="36" height="36" viewBox="0 0 36 36" fill="none" xmlns="http://www.w3.org/2000/svg">
<path fill-rule="evenodd" clip-rule="evenodd" d="M9.08309 22H26.9169C26.9005 21.876 26.8809 21.7429 26.8574 21.6019C26.712 20.7299 26.4232 19.5825 25.8556 18.4472C25.2899 17.3158 24.4571 16.2149 23.2265 15.3946C22.0023 14.5784 20.325 14 18 14C15.675 14 13.9977 14.5784 12.7735 15.3946C11.5429 16.2149 10.7101 17.3158 10.1444 18.4472C9.57678 19.5825 9.28798 20.7299 9.14264 21.6019C9.11914 21.7429 9.0995 21.876 9.08309 22ZM28.9318 22C28.9075 21.7847 28.8747 21.5404 28.8301 21.2731C28.663 20.2701 28.3268 18.9175 27.6444 17.5528C26.9601 16.1842 25.9179 14.7851 24.336 13.7304C22.7477 12.6716 20.675 12 18 12C15.325 12 13.2523 12.6716 11.664 13.7304C10.0821 14.7851 9.03989 16.1842 8.35557 17.5528C7.67322 18.9175 7.33702 20.2701 7.16986 21.2731C7.1253 21.5404 7.09246 21.7847 7.06824 22H5C4.44772 22 4 22.4477 4 23C4 23.5523 4.44772 24 5 24H31C31.5523 24 32 23.5523 32 23C32 22.4477 31.5523 22 31 22H28.9318Z" fill="#2161ED"/>
</svg>
