<svg width="20" height="20" viewBox="0 0 20 20" fill="none" xmlns="http://www.w3.org/2000/svg">
<path fill-rule="evenodd" clip-rule="evenodd" d="M7 4C6.44772 4 6 4.44772 6 5C6 5.55228 6.44772 6 7 6C7.55228 6 8 5.55228 8 5C8 4.44772 7.55228 4 7 4ZM5.06301 4.5C5.28503 3.63739 6.06808 3 7 3C7.93192 3 8.71497 3.63739 8.93699 4.5H16.5C16.7761 4.5 17 4.72386 17 5C17 5.27614 16.7761 5.5 16.5 5.5H8.93699C8.71497 6.36261 7.93192 7 7 7C6.06808 7 5.28503 6.36261 5.06301 5.5H3.5C3.22386 5.5 3 5.27614 3 5C3 4.72386 3.22386 4.5 3.5 4.5H5.06301ZM13 9C12.4477 9 12 9.44772 12 10C12 10.5523 12.4477 11 13 11C13.5523 11 14 10.5523 14 10C14 9.44772 13.5523 9 13 9ZM11.063 9.5C11.285 8.63739 12.0681 8 13 8C13.9319 8 14.715 8.63739 14.937 9.5H16.5C16.7761 9.5 17 9.72386 17 10C17 10.2761 16.7761 10.5 16.5 10.5H14.937C14.715 11.3626 13.9319 12 13 12C12.0681 12 11.285 11.3626 11.063 10.5H3.5C3.22386 10.5 3 10.2761 3 10C3 9.72386 3.22386 9.5 3.5 9.5H11.063ZM7 14C6.44772 14 6 14.4477 6 15C6 15.5523 6.44772 16 7 16C7.55228 16 8 15.5523 8 15C8 14.4477 7.55228 14 7 14ZM5.06301 14.5C5.28503 13.6374 6.06808 13 7 13C7.93192 13 8.71497 13.6374 8.93699 14.5H16.5C16.7761 14.5 17 14.7239 17 15C17 15.2761 16.7761 15.5 16.5 15.5H8.93699C8.71497 16.3626 7.93192 17 7 17C6.06808 17 5.28503 16.3626 5.06301 15.5H3.5C3.22386 15.5 3 15.2761 3 15C3 14.7239 3.22386 14.5 3.5 14.5H5.06301Z" fill="#83858A"/>
</svg>
