<svg width="36" height="36" viewBox="0 0 36 36" fill="none" xmlns="http://www.w3.org/2000/svg">
<path fill-rule="evenodd" clip-rule="evenodd" d="M15.8293 10C15.4175 8.83481 14.3062 8 13 8C11.6938 8 10.5825 8.83481 10.1707 10H8C5.79086 10 4 11.7909 4 14V24C4 26.2091 5.79086 28 8 28H28C30.2091 28 32 26.2091 32 24V14C32 11.7909 30.2091 10 28 10H15.8293ZM8 12C6.89543 12 6 12.8954 6 14V24C6 25.1046 6.89543 26 8 26H28C29.1046 26 30 25.1046 30 24V14C30 12.8954 29.1046 12 28 12H8ZM18 16C16.3431 16 15 17.3431 15 19C15 20.6569 16.3431 22 18 22C19.6569 22 21 20.6569 21 19C21 17.3431 19.6569 16 18 16ZM13 19C13 16.2386 15.2386 14 18 14C20.7614 14 23 16.2386 23 19C23 21.7614 20.7614 24 18 24C15.2386 24 13 21.7614 13 19Z" fill="#2161ED"/>
<path d="M29 15C29 16.1046 28.1046 17 27 17C25.8954 17 25 16.1046 25 15C25 13.8954 25.8954 13 27 13C28.1046 13 29 13.8954 29 15Z" fill="#2161ED"/>
</svg>
