<svg width="36" height="36" viewBox="0 0 36 36" fill="none" xmlns="http://www.w3.org/2000/svg">
<path fill-rule="evenodd" clip-rule="evenodd" d="M9 9C9 7.89543 9.89543 7 11 7H13C14.1046 7 15 7.89543 15 9H27C29.7614 9 32 11.2386 32 14V24C32 26.7614 29.7614 29 27 29H9C6.23858 29 4 26.7614 4 24V14C4 11.2386 6.23858 9 9 9ZM9 11C7.34315 11 6 12.3431 6 14V24C6 25.6569 7.34315 27 9 27H27C28.6569 27 30 25.6569 30 24V14C30 12.3431 28.6569 11 27 11H9ZM26.5 14C26.2239 14 26 14.2239 26 14.5C26 14.7761 26.2239 15 26.5 15C26.7761 15 27 14.7761 27 14.5C27 14.2239 26.7761 14 26.5 14ZM24 14.5C24 13.1193 25.1193 12 26.5 12C27.8807 12 29 13.1193 29 14.5C29 15.8807 27.8807 17 26.5 17C25.1193 17 24 15.8807 24 14.5ZM18 14.5C15.5147 14.5 13.5 16.5147 13.5 19C13.5 21.4853 15.5147 23.5 18 23.5C20.4853 23.5 22.5 21.4853 22.5 19C22.5 16.5147 20.4853 14.5 18 14.5ZM11.5 19C11.5 15.4101 14.4101 12.5 18 12.5C21.5899 12.5 24.5 15.4101 24.5 19C24.5 22.5899 21.5899 25.5 18 25.5C14.4101 25.5 11.5 22.5899 11.5 19Z" fill="#2161ED"/>
</svg>
