<svg width="64" height="24" viewBox="0 0 64 24" fill="none" xmlns="http://www.w3.org/2000/svg">
<path fill-rule="evenodd" clip-rule="evenodd" d="M64 0H0V12C0 18.6274 5.37258 24 12 24H52C58.6274 24 64 18.6274 64 12V0ZM39.7433 7.66897C40.1128 7.25846 40.0795 6.62617 39.669 6.25671C39.2585 5.88726 38.6262 5.92053 38.2567 6.33104L29.9618 15.5476L25.7071 11.2929C25.3166 10.9024 24.6834 10.9024 24.2929 11.2929C23.9024 11.6834 23.9024 12.3166 24.2929 12.7071L29.2929 17.7071C29.4869 17.9011 29.752 18.0069 30.0263 17.9997C30.3005 17.9925 30.5598 17.8729 30.7433 17.669L39.7433 7.66897Z" fill="#10C986"/>
</svg>
