<svg width="36" height="36" viewBox="0 0 36 36" fill="none" xmlns="http://www.w3.org/2000/svg">
<path d="M25.43 6.57352C25.0573 4.54072 23.3503 3 21.3059 3C18.9897 3 17.1054 4.9773 17.1054 7.40766V8.83576C16.2797 9.19107 15.5181 9.71941 14.8643 10.4054C13.0252 12.3352 12.4004 15.1421 13.1996 17.6998L11.5083 19.4746L11.3158 20.9522L9.90763 21.1542L8.41218 22.7234L8.21976 24.2011L6.81154 24.403L4.5 26.8286L7.10944 29.5668H10.6383L17.5737 22.2893C18.878 22.7368 20.27 22.7604 21.5759 22.3671V22.5999L22.4357 23.7875L21.5759 24.9752V27.1944L22.4357 28.3821L21.5759 29.5697V33H25.2663L27.7616 30.3816V20.09C30.0503 18.8745 31.5 16.4261 31.5 13.6969C31.5001 10.0144 28.8398 6.97201 25.43 6.57352ZM24.6688 11.4922C25.0943 11.4922 25.4404 11.8554 25.4404 12.3019C25.4404 12.7484 25.0943 13.1115 24.6688 13.1115C24.2434 13.1115 23.8972 12.7483 23.8972 12.3019C23.8972 11.8554 24.2434 11.4922 24.6688 11.4922ZM18.7806 7.40766C18.7806 5.9465 19.9135 4.75781 21.306 4.75781C22.4299 4.75781 23.3844 5.53248 23.7108 6.59959C22.3588 6.79963 21.1328 7.41627 20.1547 8.32178C19.6913 8.28855 19.2314 8.30443 18.7806 8.36725V7.40766ZM21.5759 20.5128C20.3288 21.0265 18.9375 21.0124 17.6875 20.4589L17.1682 20.2289L9.94443 27.8089H7.80331L6.86905 26.8286L7.59726 26.0645L9.70727 25.7619L9.99558 23.5478L10.6933 22.8156L12.8034 22.5131L13.0917 20.299L15.1634 18.1252L14.9441 17.5802C14.1241 15.5413 14.5578 13.2129 16.0488 11.6483C16.7947 10.8657 17.7268 10.3547 18.7308 10.1562C18.1626 11.2014 17.8375 12.41 17.8375 13.6969C17.8375 16.4261 19.2872 18.8744 21.5759 20.09V20.5128ZM26.6087 18.711L26.0865 18.9338V29.6535L24.5725 31.2422H23.2512V30.1615L24.5392 28.382L23.2512 26.6024V25.567L24.5392 23.7875L23.2512 22.0079V18.9337L22.7289 18.711C20.7752 17.8777 19.5127 15.9096 19.5127 13.6969C19.5127 11.0128 21.3851 8.77939 23.8312 8.35828V9.88934C22.8933 10.249 22.222 11.1946 22.222 12.3018C22.222 13.7175 23.3196 14.8692 24.6688 14.8692C26.0179 14.8692 27.1156 13.7174 27.1156 12.3018C27.1156 11.1946 26.4443 10.249 25.5064 9.88934V8.35834C27.9524 8.77945 29.8248 11.0129 29.8248 13.6969C29.8249 15.9097 28.5624 17.8778 26.6087 18.711Z" fill="#2161ED"/>
</svg>
