<svg width="24" height="24" viewBox="0 0 24 24" fill="none" xmlns="http://www.w3.org/2000/svg">
<path fill-rule="evenodd" clip-rule="evenodd" d="M11.6584 19.8651L11.662 19.8685L11.6634 19.8698C11.759 19.9566 11.88 19.9999 12.0009 19.9996C12.1214 19.9994 12.2418 19.9559 12.3369 19.8694L12.338 19.8685L12.3416 19.8651L12.3548 19.8531L12.4035 19.8077C12.4457 19.7682 12.5067 19.7105 12.584 19.6357C12.7385 19.4862 12.9579 19.2688 13.2207 18.994C13.7457 18.4452 14.4464 17.6649 15.1483 16.7397C16.5331 14.9143 18 12.4252 18 10C18 6.68629 15.3137 4 12 4C8.68629 4 6 6.68629 6 10C6 12.4252 7.46686 14.9143 8.85165 16.7397C9.55356 17.6649 10.2543 18.4452 10.7793 18.994C11.0421 19.2688 11.2615 19.4862 11.416 19.6357C11.4933 19.7105 11.5543 19.7682 11.5965 19.8077L11.6452 19.8531L11.6584 19.8651ZM12 5C9.23858 5 7 7.23858 7 10C7 12.0748 8.28314 14.3357 9.64835 16.1353C10.3214 17.0226 10.9957 17.7736 11.5019 18.3028C11.6964 18.5061 11.8656 18.6763 12 18.8084C12.1343 18.6763 12.3036 18.5061 12.4981 18.3028C13.0043 17.7736 13.6786 17.0226 14.3517 16.1353C15.7169 14.3357 17 12.0748 17 10C17 7.23858 14.7614 5 12 5Z" fill="white"/>
<path fill-rule="evenodd" clip-rule="evenodd" d="M10.5 7.5C10.5 7.22386 10.2761 7 10 7C9.72386 7 9.5 7.22386 9.5 7.5V12.5C9.5 12.7761 9.72386 13 10 13C10.2761 13 10.5 12.7761 10.5 12.5V10.5H13.5V12.5C13.5 12.7761 13.7239 13 14 13C14.2761 13 14.5 12.7761 14.5 12.5V7.5C14.5 7.22386 14.2761 7 14 7C13.7239 7 13.5 7.22386 13.5 7.5V9.5H10.5V7.5Z" fill="white"/>
</svg>
