<svg width="24" height="24" viewBox="0 0 24 24" fill="none" xmlns="http://www.w3.org/2000/svg">
<path fill-rule="evenodd" clip-rule="evenodd" d="M12 6C10.8954 6 10 6.89543 10 8C10 9.10457 10.8954 10 12 10C13.1046 10 14 9.10457 14 8C14 6.89543 13.1046 6 12 6ZM9 8C9 6.34315 10.3431 5 12 5C13.6569 5 15 6.34315 15 8C15 9.65685 13.6569 11 12 11C10.3431 11 9 9.65685 9 8ZM6 13.5C6 12.6716 6.67157 12 7.5 12H16.5C17.3284 12 18 12.6716 18 13.5V15.1972C18 15.4901 17.9149 15.7956 17.713 16.0513C17.1274 16.7927 15.1307 19 12 19C8.86931 19 6.87255 16.7927 6.28703 16.0513C6.08513 15.7956 6 15.4901 6 15.1972V13.5ZM7.5 13C7.22386 13 7 13.2239 7 13.5V15.1972C7 15.2992 7.02901 15.3773 7.07182 15.4315C7.61206 16.1156 9.35007 18 12 18C14.6499 18 16.3879 16.1156 16.9282 15.4315C16.971 15.3773 17 15.2992 17 15.1972V13.5C17 13.2239 16.7761 13 16.5 13H7.5Z" fill="#83858A"/>
</svg>
