<svg width="36" height="36" viewBox="0 0 36 36" fill="none" xmlns="http://www.w3.org/2000/svg">
<path d="M32.1197 25.2145H10.8856C10.3028 25.2145 9.82883 24.7389 9.82883 24.1543V7.23801C9.82883 5.72825 8.60464 4.50002 7.09984 4.50002H3.88013C3.39404 4.49996 3 4.89536 3 5.38299C3 5.87063 3.39404 6.26603 3.88013 6.26603H7.0999C7.63409 6.26603 8.06868 6.70205 8.06868 7.23801V24.1542C8.06868 25.7127 9.33237 26.9805 10.8857 26.9805H12.1653C11.9623 27.3965 11.8481 27.8637 11.8481 28.3572C11.8481 30.0902 13.2533 31.5 14.9806 31.5C16.7079 31.5 18.1131 30.0902 18.1131 28.3572C18.1131 27.8636 17.9987 27.3965 17.7958 26.9805H24.1094C23.9064 27.3965 23.7922 27.8637 23.7922 28.3572C23.7922 30.0902 25.1974 31.5 26.9247 31.5C28.652 31.5 30.0572 30.0902 30.0572 28.3572C30.0572 27.8636 29.9429 27.3965 29.7399 26.9805H32.1199C32.6059 26.9805 33 26.5851 33 26.0975C32.9998 25.6099 32.6058 25.2145 32.1197 25.2145ZM14.9805 29.7341C14.2238 29.7341 13.6082 29.1164 13.6082 28.3573C13.6082 27.5983 14.2238 26.9806 14.9805 26.9806C15.7372 26.9806 16.3527 27.5982 16.3527 28.3573C16.3527 29.1164 15.7372 29.7341 14.9805 29.7341ZM26.9245 29.7341C26.1678 29.7341 25.5523 29.1164 25.5523 28.3573C25.5523 27.5983 26.1678 26.9806 26.9245 26.9806C27.6812 26.9806 28.2968 27.5982 28.2968 28.3573C28.2968 29.1164 27.6812 29.7341 26.9245 29.7341Z" fill="#10C986"/>
<path d="M27.9364 15.443H26.6283V11.5537C26.6283 10.7338 25.9635 10.0667 25.1462 10.0667H16.1198C15.3026 10.0667 14.6378 10.7338 14.6378 11.5537V15.443H13.3296C12.484 15.443 11.796 16.1332 11.796 16.9816V22.202C11.7961 23.0504 12.4841 23.7407 13.3297 23.7407H27.9365C28.7822 23.7407 29.4702 23.0504 29.4702 22.202V16.9816C29.4702 16.1332 28.7821 15.443 27.9364 15.443ZM16.398 11.8327H24.8681V15.443H16.398V11.8327ZM27.7099 21.9746H13.5563V17.209H27.7099V21.9746Z" fill="#10C986"/>
</svg>
