<svg width="36" height="36" viewBox="0 0 36 36" fill="none" xmlns="http://www.w3.org/2000/svg">
<path fill-rule="evenodd" clip-rule="evenodd" d="M4 7C4 6.44772 4.44772 6 5 6H31C31.5523 6 32 6.44772 32 7C32 7.55228 31.5523 8 31 8H5C4.44772 8 4 7.55228 4 7ZM26.2929 10.2929C26.6834 9.90237 27.3166 9.90237 27.7071 10.2929L31.7071 14.2929C32.0976 14.6834 32.0976 15.3166 31.7071 15.7071L22.7071 24.7071C22.5196 24.8946 22.2652 25 22 25H18C17.4477 25 17 24.5523 17 24V20C17 19.7348 17.1054 19.4804 17.2929 19.2929L26.2929 10.2929ZM25.4142 14L28 16.5858L29.5858 15L27 12.4142L25.4142 14ZM26.5858 18L24 15.4142L19 20.4142V23H21.5858L26.5858 18ZM4 18C4 17.4477 4.44772 17 5 17H14C14.5523 17 15 17.4477 15 18C15 18.5523 14.5523 19 14 19H5C4.44772 19 4 18.5523 4 18ZM4 29C4 28.4477 4.44772 28 5 28H31C31.5523 28 32 28.4477 32 29C32 29.5523 31.5523 30 31 30H5C4.44772 30 4 29.5523 4 29Z" fill="#2161ED"/>
</svg>
