<svg width="24" height="24" viewBox="0 0 24 24" fill="none" xmlns="http://www.w3.org/2000/svg">
<path fill-rule="evenodd" clip-rule="evenodd" d="M5 7.5C5 7.22386 5.22386 7 5.5 7H10.5C10.6326 7 10.7598 7.05268 10.8536 7.14645L12.2071 8.5H15.5C15.7761 8.5 16 8.72386 16 9V11H18.5C18.6801 11 18.8463 11.0969 18.9351 11.2537C19.0239 11.4104 19.0214 11.6028 18.9287 11.7572L15.9287 16.7572C15.8384 16.9079 15.6756 17 15.5 17H5.5C5.22386 17 5 16.7761 5 16.5V7.5ZM15 11V9.5H12C11.8674 9.5 11.7402 9.44732 11.6464 9.35355L10.2929 8H6V14.6948L8.07125 11.2428C8.16162 11.0921 8.32437 11 8.5 11H15ZM6.3831 16H15.2169L17.6169 12H8.7831L6.3831 16Z" fill="#2161ED"/>
</svg>
