<svg width="64" height="24" viewBox="0 0 64 24" fill="none" xmlns="http://www.w3.org/2000/svg">
<path d="M20.3065 11.7353C20.3065 10.5107 20.0931 9.58021 19.6664 8.94385C19.2397 8.30749 18.6308 7.9893 17.8398 7.9893C17.054 7.9893 16.4477 8.30481 16.021 8.93583C15.5942 9.5615 15.3783 10.4813 15.373 11.6952V12.2647C15.373 13.4572 15.5864 14.3824 16.0131 15.0401C16.4399 15.6979 17.054 16.0267 17.8554 16.0267C18.6412 16.0267 19.2449 15.7112 19.6664 15.0802C20.0879 14.4438 20.3013 13.5187 20.3065 12.3048V11.7353Z" fill="#2161ED"/>
<path d="M47.0892 13.484H44.2477L45.6606 9.1123L47.0892 13.484Z" fill="#2161ED"/>
<path fill-rule="evenodd" clip-rule="evenodd" d="M64 0H0V12C0 18.6274 5.37258 24 12 24H52C58.6274 24 64 18.6274 64 12V0ZM22.6795 12.2647C22.6795 13.4144 22.4818 14.4225 22.0863 15.2888C21.6908 16.1551 21.1235 16.8235 20.3846 17.2941C19.6508 17.7647 18.8077 18 17.8554 18C16.9134 18 16.073 17.7674 15.334 17.3021C14.595 16.8369 14.0226 16.1738 13.6167 15.3128C13.2108 14.4465 13.0052 13.4519 13 12.3289V11.7513C13 10.6016 13.2004 9.59091 13.6011 8.71925C14.007 7.84225 14.5768 7.17112 15.3106 6.70588C16.0496 6.23529 16.8926 6 17.8398 6C18.7869 6 19.6274 6.23529 20.3611 6.70588C21.1001 7.17112 21.67 7.84225 22.0707 8.71925C22.4766 9.59091 22.6795 10.5989 22.6795 11.7433V12.2647ZM36.4495 8.10963H32.968V17.8396H30.6261V8.10963H27.1915V6.16043H36.4495V8.10963ZM43.6154 15.4332H47.7214L48.5099 17.8396H51L46.7457 6.16043H44.5756L40.3447 17.8396H42.8348L43.6154 15.4332Z" fill="#2161ED"/>
</svg>
