<svg width="36" height="36" viewBox="0 0 36 36" fill="none" xmlns="http://www.w3.org/2000/svg">
<path fill-rule="evenodd" clip-rule="evenodd" d="M10 6C8.34315 6 7 7.34315 7 9C7 10.6569 8.34315 12 10 12C11.6569 12 13 10.6569 13 9C13 7.34315 11.6569 6 10 6ZM5 9C5 6.23858 7.23858 4 10 4C12.7614 4 15 6.23858 15 9C15 11.7614 12.7614 14 10 14C7.23858 14 5 11.7614 5 9ZM26 6C24.3431 6 23 7.34315 23 9C23 10.6569 24.3431 12 26 12C27.6569 12 29 10.6569 29 9C29 7.34315 27.6569 6 26 6ZM21 9C21 6.23858 23.2386 4 26 4C28.7614 4 31 6.23858 31 9C31 11.7614 28.7614 14 26 14C23.2386 14 21 11.7614 21 9ZM10 17C7.41322 17 6.37857 19.087 6.05235 19.9894C6.02052 20.0774 6 20.1978 6 20.3693V28C6 29.1046 6.89543 30 8 30H12C13.1046 30 14 29.1046 14 28V23.118L9.5528 20.8944C9.05882 20.6474 8.8586 20.0468 9.10559 19.5528C9.35258 19.0588 9.95325 18.8586 10.4472 19.1056L14 20.882V20.3693C14 20.1978 13.9795 20.0774 13.9477 19.9894C13.6214 19.0871 12.5868 17 10 17ZM16 21.882V20.3693C16 20.0502 15.9635 19.6827 15.8285 19.3094C15.4495 18.261 13.9542 15 10 15C6.04585 15 4.55053 18.261 4.1715 19.3094C4.03653 19.6827 4 20.0502 4 20.3693V28C4 30.2091 5.79086 32 8 32H12C14.2091 32 16 30.2091 16 28V24.118L18 25.118L20 24.118V28C20 30.2091 21.7909 32 24 32H28C30.2091 32 32 30.2091 32 28V20.3693C32 20.0502 31.9635 19.6827 31.8285 19.3094C31.4495 18.261 29.9542 15 26 15C22.0459 15 20.5505 18.261 20.1715 19.3094C20.0365 19.6827 20 20.0502 20 20.3693V21.882L18 22.882L16 21.882ZM26 17C23.4132 17 22.3786 19.087 22.0523 19.9894C22.0205 20.0774 22 20.1978 22 20.3693V28C22 29.1046 22.8954 30 24 30H28C29.1046 30 30 29.1046 30 28V20.3693C30 20.1978 29.9795 20.0774 29.9477 19.9894C29.6214 19.0871 28.5868 17 26 17Z" fill="#2161ED"/>
</svg>
