<svg width="36" height="36" viewBox="0 0 36 36" fill="none" xmlns="http://www.w3.org/2000/svg">
<path fill-rule="evenodd" clip-rule="evenodd" d="M9 6C7.89543 6 7 6.89543 7 8C7 9.10457 7.89543 10 9 10C10.1046 10 11 9.10457 11 8C11 6.89543 10.1046 6 9 6ZM5 8C5 5.79086 6.79086 4 9 4C11.2091 4 13 5.79086 13 8C13 10.2091 11.2091 12 9 12C6.79086 12 5 10.2091 5 8ZM27 6C25.8954 6 25 6.89543 25 8C25 9.10457 25.8954 10 27 10C28.1046 10 29 9.10457 29 8C29 6.89543 28.1046 6 27 6ZM23 8C23 5.79086 24.7909 4 27 4C29.2091 4 31 5.79086 31 8C31 10.2091 29.2091 12 27 12C24.7909 12 23 10.2091 23 8ZM6 18.0043L6.00042 17.9884C6.001 17.9709 6.00233 17.9406 6.00527 17.8994C6.01118 17.8166 6.0235 17.6918 6.04889 17.5394C6.10048 17.2299 6.20178 16.8325 6.39443 16.4472C6.58511 16.0658 6.85544 15.7149 7.2422 15.4571C7.6227 15.2034 8.17498 15 9 15C9.82502 15 10.3773 15.2034 10.7578 15.4571C11.1446 15.7149 11.4149 16.0658 11.6056 16.4472C11.7982 16.8325 11.8995 17.2299 11.9511 17.5394C11.9669 17.6341 11.9776 17.7182 11.9849 17.7881L9.5547 16.1679C9.09517 15.8616 8.4743 15.9858 8.16795 16.4453C7.8616 16.9048 7.98577 17.5257 8.4453 17.8321L12 20.2019V30H6V18.0043ZM14 21.5352V31C14 31.5523 13.5523 32 13 32H5C4.44772 32 4 31.5523 4 31V18L4 17.999L4 17.9979L4.00001 17.9953L4.00005 17.9892L4.00025 17.9724C4.00046 17.9593 4.00085 17.9423 4.00153 17.9218C4.0029 17.8807 4.00549 17.825 4.01035 17.7569C4.02007 17.6209 4.039 17.4332 4.07611 17.2106C4.14952 16.7701 4.29822 16.1675 4.60557 15.5528C4.91489 14.9342 5.39456 14.2851 6.1328 13.7929C6.87729 13.2966 7.82501 13 9 13C10.175 13 11.1227 13.2966 11.8672 13.7929C12.6054 14.2851 13.0851 14.9342 13.3944 15.5528C13.7018 16.1675 13.8505 16.7701 13.9239 17.2106C13.961 17.4332 13.9799 17.6209 13.9896 17.7569C13.9945 17.825 13.9971 17.8807 13.9985 17.9218C13.9992 17.9423 13.9995 17.9593 13.9997 17.9724L14 17.9892L14 17.9953L14 17.9979L14 17.999L14 18V19.1315L17.9862 21.789L22 18.9793V18V17.999L22 17.9979L22 17.9953L22 17.9892L22.0003 17.9724C22.0005 17.9593 22.0008 17.9423 22.0015 17.9218C22.0029 17.8807 22.0055 17.825 22.0104 17.7569C22.0201 17.6209 22.039 17.4332 22.0761 17.2106C22.1495 16.7701 22.2982 16.1675 22.6056 15.5528C22.9149 14.9342 23.3946 14.2851 24.1328 13.7929C24.8773 13.2966 25.825 13 27 13C28.175 13 29.1227 13.2966 29.8672 13.7929C30.6054 14.2851 31.0851 14.9342 31.3944 15.5528C31.7018 16.1675 31.8505 16.7701 31.9239 17.2106C31.961 17.4332 31.9799 17.6209 31.9896 17.7569C31.9945 17.825 31.9971 17.8807 31.9985 17.9218C31.9989 17.9347 31.9992 17.9462 31.9994 17.9563C31.9996 17.9622 31.9997 17.9675 31.9998 17.9724L32 17.9892L32 17.9953L32 17.9979L32 17.999V18V31C32 31.5523 31.5523 32 31 32H23C22.4477 32 22 31.5523 22 31V21.4207L18.5735 23.8192C18.236 24.0555 17.7881 24.0606 17.4453 23.8321L14 21.5352ZM24 18.0044L24.0004 17.9884C24.001 17.9709 24.0023 17.9406 24.0053 17.8994C24.0112 17.8166 24.0235 17.6918 24.0489 17.5394C24.1005 17.2299 24.2018 16.8325 24.3944 16.4472C24.5851 16.0658 24.8554 15.7149 25.2422 15.4571C25.6227 15.2034 26.175 15 27 15C27.825 15 28.3773 15.2034 28.7578 15.4571C29.1446 15.7149 29.4149 16.0658 29.6056 16.4472C29.7982 16.8325 29.8995 17.2299 29.9511 17.5394C29.9765 17.6918 29.9888 17.8166 29.9947 17.8994C29.9977 17.9406 29.999 17.9709 29.9996 17.9884L30 18.0044V30H24V18.0044Z" fill="#2161ED"/>
</svg>
