<svg width="24" height="24" viewBox="0 0 24 24" fill="none" xmlns="http://www.w3.org/2000/svg">
<path fill-rule="evenodd" clip-rule="evenodd" d="M9 9.00045L9.00004 8.99802L9.00058 8.97735C9.00124 8.95761 9.00263 8.92635 9.00557 8.88523C9.01145 8.80282 9.02347 8.68183 9.04788 8.53532C9.09711 8.23995 9.19464 7.85375 9.38471 7.47361C9.57381 7.09542 9.84959 6.73245 10.2539 6.4629C10.6551 6.19544 11.2125 6 12 6C12.7875 6 13.3449 6.19544 13.7461 6.4629C14.1504 6.73245 14.4262 7.09542 14.6153 7.47361C14.8054 7.85375 14.9029 8.23995 14.9521 8.53532C14.9765 8.68183 14.9885 8.80282 14.9944 8.88523C14.9974 8.92635 14.9988 8.95761 14.9994 8.97735L15 8.99802L15 9.00045C15.0007 9.27597 15.2243 9.5 15.5 9.5C15.7761 9.5 16 9.27614 16 9L16 8.99886L16 8.99739L16 8.99349L15.9998 8.9819C15.9997 8.9725 15.9994 8.95981 15.9989 8.94404C15.9978 8.9125 15.9958 8.86857 15.9919 8.81399C15.9841 8.70499 15.9688 8.55255 15.9385 8.37093C15.8784 8.01005 15.7571 7.52125 15.5097 7.02639C15.2613 6.52958 14.8808 6.01755 14.3008 5.63085C13.7176 5.24206 12.9625 5 12 5C11.0375 5 10.2824 5.24206 9.69921 5.63085C9.11916 6.01755 8.73869 6.52958 8.49029 7.02639C8.24286 7.52125 8.12164 8.01005 8.06149 8.37093C8.03122 8.55255 8.01589 8.70499 8.00811 8.81399C8.00421 8.86857 8.00218 8.9125 8.00113 8.94404C8.00061 8.95981 8.00032 8.9725 8.00017 8.9819L8.00003 8.99349L8.00001 8.99739L8 8.99886L8 9C8 9.27614 8.22386 9.5 8.5 9.5C8.77599 9.5 8.99976 9.27639 9 9.00045ZM5 13C5 11.6193 6.11929 10.5 7.5 10.5H16.5C17.8807 10.5 19 11.6193 19 13V16.5C19 17.8807 17.8807 19 16.5 19H7.5C6.11929 19 5 17.8807 5 16.5V13ZM7.5 11.5C6.67157 11.5 6 12.1716 6 13V16.5C6 17.3284 6.67157 18 7.5 18H16.5C17.3284 18 18 17.3284 18 16.5V13C18 12.1716 17.3284 11.5 16.5 11.5H7.5ZM12 13.5C11.4477 13.5 11 13.9477 11 14.5C11 15.0523 11.4477 15.5 12 15.5C12.5523 15.5 13 15.0523 13 14.5C13 13.9477 12.5523 13.5 12 13.5ZM10 14.5C10 13.3954 10.8954 12.5 12 12.5C13.1046 12.5 14 13.3954 14 14.5C14 15.6046 13.1046 16.5 12 16.5C10.8954 16.5 10 15.6046 10 14.5Z" fill="#83858A"/>
</svg>
