<svg width="36" height="36" viewBox="0 0 36 36" fill="none" xmlns="http://www.w3.org/2000/svg">
<path fill-rule="evenodd" clip-rule="evenodd" d="M11 6C10.4477 6 10 6.44772 10 7V28.9554L17.3861 23.2106C17.7472 22.9298 18.2528 22.9298 18.6139 23.2106L26 28.9554V7C26 6.44772 25.5523 6 25 6H11ZM8 7C8 5.34315 9.34315 4 11 4H25C26.6569 4 28 5.34315 28 7V31C28 31.3819 27.7824 31.7305 27.4394 31.8983C27.0963 32.0661 26.6875 32.0238 26.3861 31.7894L18 25.2669L9.61394 31.7894C9.31246 32.0238 8.90375 32.0661 8.56065 31.8983C8.21755 31.7305 8 31.3819 8 31V7ZM22.7071 8.29289C23.0976 8.68342 23.0976 9.31658 22.7071 9.70711L14.7071 17.7071C14.3166 18.0976 13.6834 18.0976 13.2929 17.7071C12.9024 17.3166 12.9024 16.6834 13.2929 16.2929L21.2929 8.29289C21.6834 7.90237 22.3166 7.90237 22.7071 8.29289Z" fill="#2161ED"/>
<path d="M23 16.5C23 17.3284 22.3284 18 21.5 18C20.6716 18 20 17.3284 20 16.5C20 15.6716 20.6716 15 21.5 15C22.3284 15 23 15.6716 23 16.5Z" fill="#2161ED"/>
<path d="M16 9.5C16 10.3284 15.3284 11 14.5 11C13.6716 11 13 10.3284 13 9.5C13 8.67157 13.6716 8 14.5 8C15.3284 8 16 8.67157 16 9.5Z" fill="#2161ED"/>
</svg>
