<svg width="36" height="36" viewBox="0 0 36 36" fill="none" xmlns="http://www.w3.org/2000/svg">
<path fill-rule="evenodd" clip-rule="evenodd" d="M12 6C10.8954 6 10 6.89543 10 8V28.7732L15.3425 24.0242C16.8581 22.6771 19.1419 22.6771 20.6575 24.0242L26 28.7732V8C26 6.89543 25.1046 6 24 6H12ZM8 8C8 5.79086 9.79086 4 12 4H24C26.2091 4 28 5.79086 28 8V31C28 31.3938 27.7689 31.7509 27.4097 31.9122C27.0504 32.0736 26.63 32.009 26.3356 31.7474L19.3287 25.519C18.571 24.8455 17.429 24.8455 16.6713 25.519L9.66436 31.7474C9.37004 32.009 8.94958 32.0736 8.59034 31.9122C8.23111 31.7509 8 31.3938 8 31V8ZM21.7071 10.2929C22.0976 10.6834 22.0976 11.3166 21.7071 11.7071L15.7071 17.7071C15.3166 18.0976 14.6834 18.0976 14.2929 17.7071C13.9024 17.3166 13.9024 16.6834 14.2929 16.2929L20.2929 10.2929C20.6834 9.90237 21.3166 9.90237 21.7071 10.2929Z" fill="#2161ED"/>
<path d="M17 11.5C17 12.3284 16.3284 13 15.5 13C14.6716 13 14 12.3284 14 11.5C14 10.6716 14.6716 10 15.5 10C16.3284 10 17 10.6716 17 11.5Z" fill="#2161ED"/>
<path d="M22 16.5C22 17.3284 21.3284 18 20.5 18C19.6716 18 19 17.3284 19 16.5C19 15.6716 19.6716 15 20.5 15C21.3284 15 22 15.6716 22 16.5Z" fill="#2161ED"/>
</svg>
