<svg width="20" height="20" viewBox="0 0 20 20" fill="none" xmlns="http://www.w3.org/2000/svg">
<path fill-rule="evenodd" clip-rule="evenodd" d="M7.5 4C7.22386 4 7 4.22386 7 4.5V7H13V4.5C13 4.22386 12.7761 4 12.5 4H7.5ZM14 7V4.5C14 3.67157 13.3284 3 12.5 3H7.5C6.67157 3 6 3.67157 6 4.5V7H4.5C3.67157 7 3 7.67157 3 8.5V13.5C3 14.3284 3.67157 15 4.5 15H6V15.5C6 16.3284 6.67157 17 7.5 17H12.5C13.3284 17 14 16.3284 14 15.5V15H15.5C16.3284 15 17 14.3284 17 13.5V8.5C17 7.67157 16.3284 7 15.5 7H14ZM14 14H15.5C15.7761 14 16 13.7761 16 13.5V8.5C16 8.22386 15.7761 8 15.5 8H4.5C4.22386 8 4 8.22386 4 8.5V13.5C4 13.7761 4.22386 14 4.5 14H6V13C6 12.1716 6.67157 11.5 7.5 11.5H12.5C13.3284 11.5 14 12.1716 14 13V14ZM7 13C7 12.7239 7.22386 12.5 7.5 12.5H12.5C12.7761 12.5 13 12.7239 13 13V15.5C13 15.7761 12.7761 16 12.5 16H7.5C7.22386 16 7 15.7761 7 15.5V13Z" fill="#2161ED"/>
</svg>
