<svg width="24" height="24" viewBox="0 0 24 24" fill="none" xmlns="http://www.w3.org/2000/svg">
<path fill-rule="evenodd" clip-rule="evenodd" d="M9.5 6C9.22386 6 9 6.22386 9 6.5V9H15V6.5C15 6.22386 14.7761 6 14.5 6H9.5ZM16 9V6.5C16 5.67157 15.3284 5 14.5 5H9.5C8.67157 5 8 5.67157 8 6.5V9H6.5C5.67157 9 5 9.67157 5 10.5V15.5C5 16.3284 5.67157 17 6.5 17H8V17.5C8 18.3284 8.67157 19 9.5 19H14.5C15.3284 19 16 18.3284 16 17.5V17H17.5C18.3284 17 19 16.3284 19 15.5V10.5C19 9.67157 18.3284 9 17.5 9H16ZM16 16H17.5C17.7761 16 18 15.7761 18 15.5V10.5C18 10.2239 17.7761 10 17.5 10H6.5C6.22386 10 6 10.2239 6 10.5V15.5C6 15.7761 6.22386 16 6.5 16H8V15C8 14.1716 8.67157 13.5 9.5 13.5H14.5C15.3284 13.5 16 14.1716 16 15V16ZM9 15C9 14.7239 9.22386 14.5 9.5 14.5H14.5C14.7761 14.5 15 14.7239 15 15V17.5C15 17.7761 14.7761 18 14.5 18H9.5C9.22386 18 9 17.7761 9 17.5V15Z" fill="#83858A"/>
</svg>
