<svg width="36" height="36" viewBox="0 0 36 36" fill="none" xmlns="http://www.w3.org/2000/svg">
<path fill-rule="evenodd" clip-rule="evenodd" d="M18 6C11.3737 6 8.26293 8.82452 7.24909 9.99561C7.09059 10.1787 6.99279 10.4555 7.00214 10.8074C7.16295 16.8588 9.11692 21.7089 11.473 25.0288C12.6526 26.6908 13.9223 27.9545 15.1005 28.7936C16.3012 29.6488 17.3158 30 18 30C18.6842 30 19.6987 29.6488 20.8995 28.7935C22.0776 27.9543 23.3474 26.6906 24.5269 25.0286C26.8831 21.7086 28.837 16.8585 28.9979 10.8074C29.0072 10.4555 28.9094 10.1787 28.7509 9.99561C27.7371 8.82453 24.6263 6 18 6ZM5.73533 8.68714C7.07217 7.14296 10.7105 4 18 4C25.2895 4 28.9278 7.14296 30.2647 8.68714C30.8182 9.3265 31.0182 10.1253 30.9987 10.8605C30.8271 17.3162 28.7404 22.5491 26.1596 26.1855C24.8708 28.0016 23.4481 29.4343 22.0613 30.4221C20.6971 31.3938 19.2742 32 18 32C16.7258 32 15.3029 31.3938 13.9387 30.4222C12.5519 29.4345 11.1292 28.0018 9.84036 26.1857C7.25963 22.5494 5.17285 17.3165 5.00129 10.8605C4.98175 10.1253 5.18182 9.3265 5.73533 8.68714ZM20.0016 11C19.4488 11 19.0008 11.4477 19.0008 12V12.9994H22.0031C22.5558 12.9994 23.0039 13.4471 23.0039 13.9994C23.0039 14.5517 22.5558 14.9994 22.0031 14.9994H19.0008V20.1254C20.7273 20.5695 22.0031 22.1355 22.0031 23.9994C22.0031 26.2085 20.2109 27.9994 18 27.9994C15.7891 27.9994 13.9969 26.2085 13.9969 23.9994C13.9969 22.1355 15.2727 20.5695 16.9992 20.1254V12C16.9992 10.3431 18.3434 9 20.0016 9H21.0023C21.555 9 22.0031 9.44771 22.0031 10C22.0031 10.5523 21.555 11 21.0023 11H20.0016ZM18 21.9994C16.8946 21.9994 15.9984 22.8948 15.9984 23.9994C15.9984 25.104 16.8946 25.9994 18 25.9994C19.1054 25.9994 20.0016 25.104 20.0016 23.9994C20.0016 22.8948 19.1054 21.9994 18 21.9994Z" fill="#2161ED"/>
</svg>
