<svg width="36" height="36" viewBox="0 0 36 36" fill="none" xmlns="http://www.w3.org/2000/svg">
<path fill-rule="evenodd" clip-rule="evenodd" d="M31 10C31 9.7348 30.8947 9.48045 30.7071 9.29292L30.7059 9.29172L30.7043 9.29007L30.6996 9.2854L30.6846 9.27072C30.6723 9.25861 30.655 9.24187 30.633 9.22083C30.5889 9.17874 30.5258 9.11938 30.4442 9.04522C30.2811 8.89697 30.0442 8.68924 29.7392 8.44196C29.13 7.94798 28.2453 7.29281 27.132 6.63794C24.913 5.33257 21.7367 3.9998 17.9999 4C14.2633 4.0002 11.087 5.33294 8.86799 6.6382C7.75477 7.29301 6.87005 7.9481 6.26085 8.44203C5.95589 8.68928 5.71894 8.89697 5.55587 9.04521C5.4743 9.11935 5.41113 9.1787 5.36708 9.22079C5.34506 9.24183 5.3278 9.25856 5.31541 9.27068L5.3006 9.28535L5.29578 9.29002L5.29292 9.29287C5.10537 9.48041 5 9.73477 5 10C5 17.0619 8.14068 22.5322 11.2351 26.2068C12.784 28.0461 14.3319 29.4488 15.4944 30.3934C16.0763 30.8661 16.5633 31.2254 16.908 31.4686C17.0804 31.5902 17.2174 31.6828 17.313 31.7461C17.3608 31.7778 17.3982 31.8022 17.4247 31.8192L17.4559 31.8391L17.4651 31.8449L17.4681 31.8468L17.4692 31.8475C17.7842 32.0443 18.1831 32.0509 18.5039 31.8638L18.5047 31.8633L18.5059 31.8626L18.509 31.8608L18.5185 31.8552L18.5503 31.8362C18.577 31.82 18.6149 31.797 18.6631 31.767C18.7594 31.7071 18.8971 31.6194 19.0703 31.5039C19.4166 31.2731 19.9053 30.9308 20.4889 30.4768C21.655 29.5699 23.2068 28.212 24.7593 26.4008C27.8646 22.7778 31 17.3057 31 10ZM7.00431 10.4325C7.12871 16.6641 9.9247 21.5458 12.7649 24.9185C14.216 26.6416 15.6681 27.9576 16.7556 28.8411C17.2734 29.2618 17.707 29.5833 18.0163 29.8027C18.3233 29.5964 18.7511 29.2948 19.2611 28.8981C20.345 28.0551 21.7932 26.788 23.2407 25.0992C26.0727 21.7953 28.8759 16.9114 28.996 10.4327C28.8648 10.3162 28.6917 10.1675 28.4796 9.99544C27.9325 9.55186 27.1297 8.95697 26.118 8.36179C24.087 7.16706 21.2633 5.99983 18.0001 6C14.7367 6.00017 11.913 7.16743 9.88201 8.36208C8.87023 8.95722 8.06745 9.55206 7.5204 9.99558C7.30845 10.1674 7.1355 10.316 7.00431 10.4325Z" fill="#2161ED"/>
<path fill-rule="evenodd" clip-rule="evenodd" d="M18 8.99963C17.4477 8.99963 17 9.44735 17 9.99963V18.1257C15.2748 18.5697 14 20.1358 14 21.9996C14 24.2088 15.7909 25.9996 18 25.9996C20.2091 25.9996 22 24.2088 22 21.9996C22 20.1358 20.7252 18.5697 19 18.1257V14.9996H20C20.5523 14.9996 21 14.5519 21 13.9996C21 13.4473 20.5523 12.9996 20 12.9996H19V10.9996H21C21.5523 10.9996 22 10.5519 22 9.99963C22 9.44735 21.5523 8.99963 21 8.99963H18ZM18 19.9996C16.8954 19.9996 16 20.8951 16 21.9996C16 23.1042 16.8954 23.9996 18 23.9996C19.1046 23.9996 20 23.1042 20 21.9996C20 20.8951 19.1046 19.9996 18 19.9996Z" fill="#2161ED"/>
</svg>
