<svg width="24" height="24" viewBox="0 0 24 24" fill="none" xmlns="http://www.w3.org/2000/svg">
<path fill-rule="evenodd" clip-rule="evenodd" d="M9.32122 5.53285C10.6003 5.00303 12.0078 4.86441 13.3656 5.13451C14.7235 5.4046 15.9708 6.07129 16.9497 7.05026C17.9287 8.02922 18.5954 9.2765 18.8655 10.6344C19.1356 11.9922 18.997 13.3997 18.4672 14.6788C17.9373 15.9579 17.0401 17.0511 15.889 17.8203C14.7378 18.5895 13.3845 19 12 19C11.7239 19 11.5 18.7761 11.5 18.5C11.5 18.2239 11.7239 18 12 18C13.1867 18 14.3467 17.6481 15.3334 16.9888C16.3201 16.3295 17.0892 15.3925 17.5433 14.2961C17.9974 13.1997 18.1162 11.9933 17.8847 10.8295C17.6532 9.66558 17.0818 8.59648 16.2426 7.75736C15.4035 6.91825 14.3344 6.3468 13.1705 6.11529C12.0067 5.88378 10.8003 6.0026 9.7039 6.45673C8.60754 6.91085 7.67047 7.67989 7.01118 8.66658C6.73243 9.08376 6.50863 9.53193 6.34314 10H7.5C7.71522 10 7.90628 10.1377 7.97434 10.3419C8.0424 10.5461 7.97217 10.7709 7.8 10.9L5.8 12.4C5.64849 12.5136 5.44579 12.5319 5.27639 12.4472C5.107 12.3625 5 12.1894 5 12C5 11.4532 5.06405 10.9112 5.18894 10.3846C5.38025 9.578 5.71434 8.80749 6.17971 8.11101C6.94888 6.95987 8.04213 6.06266 9.32122 5.53285ZM12 8.5C12.2761 8.5 12.5 8.72386 12.5 9V11.5L15 11.5C15.2761 11.5 15.5 11.7239 15.5 12C15.5 12.2761 15.2761 12.5 15 12.5L12.5 12.5V15C12.5 15.2761 12.2761 15.5 12 15.5C11.7239 15.5 11.5 15.2761 11.5 15V12.5L9 12.5C8.72386 12.5 8.5 12.2761 8.5 12C8.5 11.7239 8.72386 11.5 9 11.5L11.5 11.5V9C11.5 8.72386 11.7239 8.5 12 8.5Z" fill="#10C986"/>
</svg>
