<svg width="24" height="24" viewBox="0 0 24 24" fill="none" xmlns="http://www.w3.org/2000/svg">
<path fill-rule="evenodd" clip-rule="evenodd" d="M12 6C8.68629 6 6 8.68629 6 12C6 15.3137 8.68629 18 12 18C15.3137 18 18 15.3137 18 12C18 8.68629 15.3137 6 12 6ZM5 12C5 8.13401 8.13401 5 12 5C15.866 5 19 8.13401 19 12C19 15.866 15.866 19 12 19C8.13401 19 5 15.866 5 12Z" fill="#7710C9"/>
<path fill-rule="evenodd" clip-rule="evenodd" d="M11.0606 8.68414C10.8048 8.83028 10.5 9.14739 10.5 10C10.5 10.2762 10.2761 10.5 10 10.5C9.72386 10.5 9.5 10.2762 9.5 10C9.5 8.85264 9.94518 8.16975 10.5644 7.81589C11.1182 7.49944 11.7298 7.49984 11.9837 7.50001C11.9893 7.50001 11.9947 7.50002 12 7.50002C12.0053 7.50002 12.0107 7.50001 12.0163 7.50001C12.2702 7.49984 12.8818 7.49944 13.4356 7.81589C14.0548 8.16975 14.5 8.85264 14.5 10C14.5 10.584 14.3523 11.0326 14.0549 11.3548C13.767 11.6667 13.4004 11.7903 13.1213 11.8601C13.0252 11.8841 12.9214 11.9056 12.834 11.9237C12.7991 11.931 12.7668 11.9377 12.7387 11.9438C12.625 11.9684 12.5537 11.9881 12.5048 12.0084L12.5 12.0105V14C12.5 14.2762 12.2761 14.5 12 14.5C11.7239 14.5 11.5 14.2762 11.5 14V12C11.5 11.7868 11.5553 11.5816 11.6872 11.4073C11.8139 11.2399 11.9788 11.1443 12.1202 11.0854C12.2588 11.0276 12.4062 10.9926 12.5269 10.9664C12.5735 10.9563 12.6158 10.9476 12.656 10.9393C12.7333 10.9233 12.8027 10.909 12.8787 10.8899C13.0996 10.8347 13.233 10.7708 13.3201 10.6765C13.3977 10.5924 13.5 10.416 13.5 10C13.5 9.14739 13.1952 8.83028 12.9394 8.68414C12.6305 8.50758 12.2568 8.50002 12 8.50002C11.7432 8.50002 11.3695 8.50758 11.0606 8.68414Z" fill="#7710C9"/>
<path d="M12.5 15.5C12.5 15.7761 12.2761 16 12 16C11.7239 16 11.5 15.7761 11.5 15.5C11.5 15.2239 11.7239 15 12 15C12.2761 15 12.5 15.2239 12.5 15.5Z" fill="#7710C9"/>
</svg>
