<svg width="36" height="36" viewBox="0 0 36 36" fill="none" xmlns="http://www.w3.org/2000/svg">
<path fill-rule="evenodd" clip-rule="evenodd" d="M4 6C4 5.44772 4.44772 5 5 5H31C31.5523 5 32 5.44772 32 6C32 6.55228 31.5523 7 31 7H5C4.44772 7 4 6.55228 4 6ZM24.8787 9.70711C26.0503 8.53554 27.9497 8.53553 29.1213 9.70711L30.2929 10.8787C31.4645 12.0503 31.4645 13.9497 30.2929 15.1213L22.041 23.3733C21.7116 23.7026 21.3102 23.9507 20.8683 24.098L19.111 24.6838C16.7657 25.4655 14.5345 23.2343 15.3162 20.889L15.902 19.1317C16.0493 18.6898 16.2974 18.2884 16.6267 17.959L24.8787 9.70711ZM27.7071 11.1213C27.3166 10.7308 26.6834 10.7308 26.2929 11.1213L25.4395 11.9747L28.0055 14.5803L28.8787 13.7071C29.2692 13.3166 29.2692 12.6834 28.8787 12.2929L27.7071 11.1213ZM26.5912 15.9946L24.0253 13.3889L18.041 19.3733C17.9312 19.483 17.8485 19.6169 17.7994 19.7641L17.2136 21.5215C16.953 22.3033 17.6967 23.047 18.4785 22.7864L20.2359 22.2006C20.3831 22.1515 20.517 22.0688 20.6267 21.959L26.5912 15.9946ZM4 18C4 17.4477 4.44772 17 5 17H12C12.5523 17 13 17.4477 13 18C13 18.5523 12.5523 19 12 19H5C4.44772 19 4 18.5523 4 18ZM4 30C4 29.4477 4.44772 29 5 29H31C31.5523 29 32 29.4477 32 30C32 30.5523 31.5523 31 31 31H5C4.44772 31 4 30.5523 4 30Z" fill="#2161ED"/>
</svg>
