<svg width="24" height="24" viewBox="0 0 24 24" fill="none" xmlns="http://www.w3.org/2000/svg">
<path fill-rule="evenodd" clip-rule="evenodd" d="M14.1464 5.14645C14.3417 4.95118 14.6583 4.95118 14.8536 5.14645L17.8536 8.14645C18.0488 8.34171 18.0488 8.65829 17.8536 8.85355L14.8536 11.8536C14.6583 12.0488 14.3417 12.0488 14.1464 11.8536C13.9512 11.6583 13.9512 11.3417 14.1464 11.1464L16.2929 9H6.5C6.22386 9 6 8.77614 6 8.5C6 8.22386 6.22386 8 6.5 8H16.2929L14.1464 5.85355C13.9512 5.65829 13.9512 5.34171 14.1464 5.14645ZM9.85355 12.1464C10.0488 12.3417 10.0488 12.6583 9.85355 12.8536L7.70711 15H17.5C17.7761 15 18 15.2239 18 15.5C18 15.7761 17.7761 16 17.5 16H7.70711L9.85355 18.1464C10.0488 18.3417 10.0488 18.6583 9.85355 18.8536C9.65829 19.0488 9.34171 19.0488 9.14645 18.8536L6.14645 15.8536C5.95118 15.6583 5.95118 15.3417 6.14645 15.1464L9.14645 12.1464C9.34171 11.9512 9.65829 11.9512 9.85355 12.1464Z" fill="#10C986"/>
</svg>
