<svg width="21" height="20" viewBox="0 0 21 20" fill="none" xmlns="http://www.w3.org/2000/svg">
<path fill-rule="evenodd" clip-rule="evenodd" d="M8 5C7.17157 5 6.5 5.67157 6.5 6.5C6.5 7.32843 7.17157 8 8 8C8.82843 8 9.5 7.32843 9.5 6.5C9.5 5.67157 8.82843 5 8 5ZM5.5 6.5C5.5 5.11929 6.61929 4 8 4C9.38071 4 10.5 5.11929 10.5 6.5C10.5 7.88071 9.38071 9 8 9C6.61929 9 5.5 7.88071 5.5 6.5ZM4.5 13.5025V15.5C4.5 15.7761 4.27614 16 4 16C3.72386 16 3.5 15.7761 3.5 15.5V13.5L3.5 13.4986L3.50001 13.4968L3.50004 13.4925L3.50024 13.4806C3.50044 13.4713 3.50081 13.459 3.50147 13.4441C3.5028 13.4143 3.50531 13.3736 3.51006 13.3237C3.51956 13.224 3.5381 13.0862 3.57441 12.9228C3.64673 12.5973 3.79167 12.1611 4.08397 11.7227C4.68804 10.8165 5.85435 10 8 10C10.1457 10 11.312 10.8165 11.916 11.7227C12.2083 12.1611 12.3533 12.5973 12.4256 12.9228C12.4619 13.0862 12.4804 13.224 12.4899 13.3237C12.4947 13.3736 12.4972 13.4143 12.4985 13.4441C12.4992 13.459 12.4996 13.4713 12.4998 13.4806L12.5 13.4925L12.5 13.4968L12.5 13.4986L12.5 13.5L12.5 15.5C12.5 15.7761 12.2761 16 12 16C11.7239 16 11.5 15.7761 11.5 15.5L11.5 13.5025L11.4995 13.4885C11.4989 13.4744 11.4975 13.4506 11.4944 13.4185C11.4883 13.3541 11.4756 13.2576 11.4494 13.1397C11.3967 12.9027 11.2917 12.5889 11.084 12.2773C10.688 11.6835 9.85435 11 8 11C6.14565 11 5.31196 11.6835 4.91603 12.2773C4.70833 12.5889 4.60327 12.9027 4.55059 13.1397C4.5244 13.2576 4.51169 13.3541 4.50556 13.4185C4.5025 13.4506 4.50111 13.4744 4.50048 13.4885L4.5 13.5025Z" fill="#C91052"/>
<path d="M17.5 9C17.5 8.72386 17.2761 8.5 17 8.5H12C11.7239 8.5 11.5 8.72386 11.5 9C11.5 9.27614 11.7239 9.5 12 9.5H17C17.2761 9.5 17.5 9.27614 17.5 9Z" fill="#C91052"/>
</svg>
