<svg width="36" height="36" viewBox="0 0 36 36" fill="none" xmlns="http://www.w3.org/2000/svg">
<path fill-rule="evenodd" clip-rule="evenodd" d="M4.29292 4.29289C4.68344 3.90237 5.31661 3.90237 5.70713 4.29289L8.00003 6.58579L10.2929 4.29289C10.6834 3.90237 11.3166 3.90237 11.7071 4.29289C12.0977 4.68342 12.0977 5.31658 11.7071 5.70711L9.41424 8L11.7071 10.2929C12.0977 10.6834 12.0977 11.3166 11.7071 11.7071C11.3166 12.0976 10.6834 12.0976 10.2929 11.7071L8.00003 9.41421L5.70713 11.7071C5.31661 12.0976 4.68344 12.0976 4.29292 11.7071C3.90239 11.3166 3.90239 10.6834 4.29292 10.2929L6.58581 8L4.29292 5.70711C3.90239 5.31658 3.90239 4.68342 4.29292 4.29289ZM14 8C14 7.44772 14.4477 7 15 7H31C31.5523 7 32 7.44772 32 8C32 8.55228 31.5523 9 31 9H15C14.4477 9 14 8.55228 14 8ZM11.6585 15.2474C12.0742 15.6111 12.1163 16.2429 11.7526 16.6585L8.2526 20.6585C8.05994 20.8787 7.78053 21.0035 7.48798 20.9999C7.19543 20.9964 6.9191 20.8649 6.7318 20.6402L4.2318 17.6402C3.87824 17.2159 3.93556 16.5853 4.35984 16.2318C4.78412 15.8782 5.41468 15.9355 5.76825 16.3598L7.51857 18.4602L10.2474 15.3415C10.6111 14.9259 11.2429 14.8837 11.6585 15.2474ZM14 18C14 17.4477 14.4477 17 15 17H31C31.5523 17 32 17.4477 32 18C32 18.5523 31.5523 19 31 19H15C14.4477 19 14 18.5523 14 18ZM4.29292 24.2929C4.68344 23.9024 5.31661 23.9024 5.70713 24.2929L8.00003 26.5858L10.2929 24.2929C10.6834 23.9024 11.3166 23.9024 11.7071 24.2929C12.0977 24.6834 12.0977 25.3166 11.7071 25.7071L9.41424 28L11.7071 30.2929C12.0977 30.6834 12.0977 31.3166 11.7071 31.7071C11.3166 32.0976 10.6834 32.0976 10.2929 31.7071L8.00003 29.4142L5.70713 31.7071C5.31661 32.0976 4.68344 32.0976 4.29292 31.7071C3.90239 31.3166 3.90239 30.6834 4.29292 30.2929L6.58581 28L4.29292 25.7071C3.90239 25.3166 3.90239 24.6834 4.29292 24.2929ZM14 28C14 27.4477 14.4477 27 15 27H31C31.5523 27 32 27.4477 32 28C32 28.5523 31.5523 29 31 29H15C14.4477 29 14 28.5523 14 28Z" fill="#2161ED"/>
</svg>
