<svg width="14" height="10" viewBox="0 0 14 10" fill="none" xmlns="http://www.w3.org/2000/svg">
<path fill-rule="evenodd" clip-rule="evenodd" d="M0 0.5C0 0.223858 0.223858 0 0.5 0H5.5C5.63261 0 5.75979 0.0526784 5.85355 0.146447L7.20711 1.5H10.5C10.7761 1.5 11 1.72386 11 2V4H13.5C13.6801 4 13.8463 4.0969 13.9351 4.25365C14.0239 4.41041 14.0214 4.60278 13.9287 4.75725L10.9287 9.75725C10.8384 9.90785 10.6756 10 10.5 10H0.5C0.223858 10 0 9.77614 0 9.5V0.5ZM10 4V2.5H7C6.86739 2.5 6.74021 2.44732 6.64645 2.35355L5.29289 1H1V7.69484L3.07125 4.24275C3.16162 4.09215 3.32437 4 3.5 4H10ZM1.3831 9H10.2169L12.6169 5H3.7831L1.3831 9Z" fill="#2161ED"/>
</svg>
