<svg width="36" height="36" viewBox="0 0 36 36" fill="none" xmlns="http://www.w3.org/2000/svg">
<path fill-rule="evenodd" clip-rule="evenodd" d="M12 5.96804C10.8947 5.96804 10 6.84827 10 7.9345V26.6325C10 27.1759 9.55228 27.6165 9 27.6165C8.44772 27.6165 8 27.1759 8 26.6325V7.9345C8 5.75997 9.79156 4 12 4H28V24.6859C28 26.2604 27.0464 27.6835 25.5757 28.3037L17.5757 31.6775C14.9362 32.7906 12 30.8855 12 28.0597V12.8347C12 11.2602 12.9536 9.83713 14.4243 9.21689L22.1281 5.96804H12ZM26 6.47633L15.2122 11.0258C14.4768 11.3359 14 12.0474 14 12.8347V28.0597C14 29.4726 15.4681 30.4252 16.7878 29.8686L24.7878 26.4948C25.5232 26.1847 26 25.4732 26 24.6859V6.47633ZM23.9104 9.49693C24.1389 9.99168 23.9166 10.5751 23.4138 10.7999L17.9138 13.26C17.411 13.4849 16.8182 13.2661 16.5896 12.7714C16.3611 12.2766 16.5834 11.6932 17.0862 11.4684L22.5862 9.0083C23.089 8.78342 23.6818 9.00219 23.9104 9.49693ZM16 18.7603C16.5523 18.7603 17 19.2009 17 19.7443V22.6964C17 23.2398 16.5523 23.6804 16 23.6804C15.4477 23.6804 15 23.2398 15 22.6964V19.7443C15 19.2009 15.4477 18.7603 16 18.7603Z" fill="#2161ED"/>
</svg>
