<svg width="14" height="14" viewBox="0 0 14 14" fill="none" xmlns="http://www.w3.org/2000/svg">
<path fill-rule="evenodd" clip-rule="evenodd" d="M3.5 0.5C3.5 0.223858 3.72386 0 4 0H10C10.2761 0 10.5 0.223858 10.5 0.5V2.5H11.4964C11.4985 2.49999 11.5007 2.49999 11.5028 2.5H13.5C13.7761 2.5 14 2.72386 14 3C14 3.27614 13.7761 3.5 13.5 3.5H11.9768L11.5901 11.6189C11.5267 12.9519 10.4275 14 9.09297 14H4.90703C3.57255 14 2.47333 12.9519 2.40986 11.6189L2.02324 3.5H0.5C0.223858 3.5 0 3.27614 0 3C0 2.72386 0.223858 2.5 0.5 2.5H2.49716C2.49932 2.49999 2.50148 2.49999 2.50364 2.5H3.5V0.5ZM4.5 2.5H9.5V1H4.5V2.5ZM3.02438 3.5L3.40873 11.5713C3.44681 12.3711 4.10634 13 4.90703 13H9.09297C9.89366 13 10.5532 12.3711 10.5913 11.5713L10.9756 3.5H3.02438ZM5 5C5.27614 5 5.5 5.22386 5.5 5.5V10.5C5.5 10.7761 5.27614 11 5 11C4.72386 11 4.5 10.7761 4.5 10.5V5.5C4.5 5.22386 4.72386 5 5 5ZM7 5C7.27614 5 7.5 5.22386 7.5 5.5V10.5C7.5 10.7761 7.27614 11 7 11C6.72386 11 6.5 10.7761 6.5 10.5V5.5C6.5 5.22386 6.72386 5 7 5ZM9 5C9.27614 5 9.5 5.22386 9.5 5.5V10.5C9.5 10.7761 9.27614 11 9 11C8.72386 11 8.5 10.7761 8.5 10.5V5.5C8.5 5.22386 8.72386 5 9 5Z" fill="#C91052"/>
</svg>
