<svg width="36" height="36" viewBox="0 0 36 36" fill="none" xmlns="http://www.w3.org/2000/svg">
<path fill-rule="evenodd" clip-rule="evenodd" d="M8 5C8 4.44772 8.44772 4 9 4H27C27.5523 4 28 4.44772 28 5V28C28 28.4715 27.6706 28.879 27.2095 28.9778L13.2095 31.9778C12.9142 32.0411 12.6062 31.9675 12.3713 31.7777C12.1365 31.5878 12 31.302 12 31V8C12 7.52846 12.3294 7.121 12.7905 7.0222L17.5607 6H10V28C10 28.5523 9.55228 29 9 29C8.44772 29 8 28.5523 8 28V5ZM26 6.23699L14 8.80842V29.763L26 27.1916V6.23699ZM22.9701 9.75746C23.1041 10.2933 22.7783 10.8362 22.2425 10.9701L18.2425 11.9701C17.7067 12.1041 17.1638 11.7783 17.0299 11.2425C16.8959 10.7067 17.2217 10.1638 17.7575 10.0299L21.7575 9.02986C22.2933 8.89591 22.8362 9.22167 22.9701 9.75746ZM16 17C16.5523 17 17 17.4477 17 18V21C17 21.5523 16.5523 22 16 22C15.4477 22 15 21.5523 15 21V18C15 17.4477 15.4477 17 16 17Z" fill="#2161ED"/>
</svg>
