<svg width="14" height="14" viewBox="0 0 14 14" fill="none" xmlns="http://www.w3.org/2000/svg">
<path fill-rule="evenodd" clip-rule="evenodd" d="M10.1464 0.146447C10.3417 -0.0488155 10.6583 -0.0488155 10.8536 0.146447L13.8536 3.14645C14.0488 3.34171 14.0488 3.65829 13.8536 3.85355L3.85355 13.8536C3.75979 13.9473 3.63261 14 3.5 14H0.5C0.223858 14 0 13.7761 0 13.5V10.5C0 10.3674 0.0526784 10.2402 0.146447 10.1464L10.1464 0.146447ZM9.20711 2.5L11.5 4.79289L12.7929 3.5L10.5 1.20711L9.20711 2.5ZM10.7929 5.5L8.5 3.20711L1 10.7071V13H3.29289L10.7929 5.5Z" fill="#83858A"/>
</svg>
