<svg width="24" height="24" viewBox="0 0 24 24" fill="none" xmlns="http://www.w3.org/2000/svg">
<path fill-rule="evenodd" clip-rule="evenodd" d="M11 4C7.13401 4 4 7.13401 4 11C4 14.866 7.13401 18 11 18C14.866 18 18 14.866 18 11C18 7.13401 14.866 4 11 4ZM3 11C3 6.58172 6.58172 3 11 3C15.4183 3 19 6.58172 19 11C19 13.0301 18.2438 14.8836 16.9977 16.2942L20.8534 20.1463C21.0487 20.3415 21.0489 20.658 20.8537 20.8534C20.6585 21.0487 20.342 21.0489 20.1466 20.8537L16.2904 17.0011C14.8803 18.2452 13.0283 19 11 19C6.58172 19 3 15.4183 3 11Z" fill="#83858A"/>
</svg>
