<svg width="20" height="20" viewBox="0 0 20 20" fill="none" xmlns="http://www.w3.org/2000/svg">
<path fill-rule="evenodd" clip-rule="evenodd" d="M10.4231 4.08877C10.213 3.80374 9.78696 3.80374 9.57692 4.08877L8.78177 5.16781C8.47337 5.58631 7.95854 5.79956 7.44454 5.72171L6.11929 5.52097C5.76922 5.46794 5.46794 5.76922 5.52097 6.11929L5.72171 7.44454C5.79956 7.95854 5.58631 8.47337 5.16781 8.78177L4.08877 9.57692C3.80374 9.78696 3.80374 10.213 4.08877 10.4231L5.16781 11.2182C5.58631 11.5266 5.79956 12.0415 5.72171 12.5555L5.52097 13.8807C5.46794 14.2308 5.76922 14.5321 6.1193 14.479L7.44454 14.2783C7.95854 14.2004 8.47337 14.4137 8.78177 14.8322L9.57692 15.9112C9.78696 16.1963 10.213 16.1963 10.4231 15.9112L11.2182 14.8322C11.5266 14.4137 12.0415 14.2004 12.5555 14.2783L13.8807 14.479C14.2308 14.5321 14.5321 14.2308 14.479 13.8807L14.2783 12.5555C14.2004 12.0415 14.4137 11.5266 14.8322 11.2182L15.9112 10.4231C16.1963 10.213 16.1963 9.78696 15.9112 9.57692L14.8322 8.78177C14.4137 8.47337 14.2004 7.95854 14.2783 7.44454L14.479 6.1193C14.5321 5.76922 14.2308 5.46794 13.8807 5.52097L12.5555 5.72171C12.0415 5.79956 11.5266 5.58631 11.2182 5.16781L10.4231 4.08877ZM8.87252 3.5697C9.43227 2.8101 10.5677 2.8101 11.1275 3.5697L11.9226 4.64873C12.0384 4.80577 12.2315 4.88579 12.4244 4.85658L13.7497 4.65584C14.6826 4.51453 15.4855 5.31742 15.3442 6.25034L15.1434 7.57558C15.1142 7.76846 15.1942 7.96165 15.3513 8.07737L16.4303 8.87252C17.1899 9.43227 17.1899 10.5677 16.4303 11.1275L15.3513 11.9226C15.1942 12.0384 15.1142 12.2315 15.1434 12.4244L15.3442 13.7497C15.4855 14.6826 14.6826 15.4855 13.7497 15.3442L12.4244 15.1434C12.2315 15.1142 12.0384 15.1942 11.9226 15.3513L11.1275 16.4303C10.5677 17.1899 9.43227 17.1899 8.87252 16.4303L8.07737 15.3513C7.96165 15.1942 7.76846 15.1142 7.57558 15.1434L6.25034 15.3442C5.31742 15.4855 4.51453 14.6826 4.65584 13.7497L4.85658 12.4244C4.88579 12.2315 4.80577 12.0384 4.64873 11.9226L3.5697 11.1275C2.8101 10.5677 2.8101 9.43227 3.5697 8.87252L4.64873 8.07737C4.80577 7.96165 4.88579 7.76846 4.85658 7.57558L4.65584 6.25034C4.51453 5.31742 5.31742 4.51453 6.25034 4.65584L7.57558 4.85658C7.76846 4.88579 7.96165 4.80577 8.07737 4.64873L8.87252 3.5697ZM10 8.25C9.0335 8.25 8.25 9.0335 8.25 10C8.25 10.9665 9.0335 11.75 10 11.75C10.9665 11.75 11.75 10.9665 11.75 10C11.75 9.0335 10.9665 8.25 10 8.25ZM7.375 10C7.375 8.55025 8.55025 7.375 10 7.375C11.4497 7.375 12.625 8.55025 12.625 10C12.625 11.4497 11.4497 12.625 10 12.625C8.55025 12.625 7.375 11.4497 7.375 10Z" fill="white"/>
</svg>
