<svg width="36" height="36" viewBox="0 0 36 36" fill="none" xmlns="http://www.w3.org/2000/svg">
<path fill-rule="evenodd" clip-rule="evenodd" d="M7 9C6.44772 9 6 9.44772 6 10V22C6 22.5523 6.44772 23 7 23H8V14C8 12.3431 9.34315 11 11 11H26V10C26 9.44772 25.5523 9 25 9H7ZM28 11V10C28 8.34315 26.6569 7 25 7H7C5.34315 7 4 8.34315 4 10V22C4 23.6569 5.34315 25 7 25H8V26C8 27.6569 9.34315 29 11 29H29C30.6569 29 32 27.6569 32 26V14C32 12.3431 30.6569 11 29 11H28ZM11 13C10.4477 13 10 13.4477 10 14V26C10 26.5523 10.4477 27 11 27H29C29.5523 27 30 26.5523 30 26V14C30 13.4477 29.5523 13 29 13H11ZM20 17C18.3431 17 17 18.3431 17 20C17 21.6569 18.3431 23 20 23C21.6569 23 23 21.6569 23 20C23 18.3431 21.6569 17 20 17ZM15 20C15 17.2386 17.2386 15 20 15C22.7614 15 25 17.2386 25 20C25 22.7614 22.7614 25 20 25C17.2386 25 15 22.7614 15 20Z" fill="#2161ED"/>
</svg>
