<svg width="36" height="36" viewBox="0 0 36 36" fill="none" xmlns="http://www.w3.org/2000/svg">
<path fill-rule="evenodd" clip-rule="evenodd" d="M4 12C4 9.79138 5.78914 8 7.9988 8H24.005C26.2163 8 28 9.79304 28 12C30.2091 12 32 13.7909 32 16V24C32 26.2091 30.2091 28 28 28H12C9.79086 28 8 26.2091 8 24C5.79086 24 4 22.2091 4 20V12ZM10 24C10 25.1046 10.8954 26 12 26H28C29.1046 26 30 25.1046 30 24V16C30 14.8954 29.1046 14 28 14H11.9988C10.8948 14 10 14.8949 10 16V24ZM26 12C26 10.8933 25.1074 10 24.005 10H7.9988C6.89475 10 6 10.8949 6 12V20C6 21.1046 6.89543 22 8 22V16C8 13.7914 9.78914 12 11.9988 12H26ZM20 17C18.3431 17 17 18.3431 17 20C17 21.6569 18.3431 23 20 23C21.6569 23 23 21.6569 23 20C23 18.3431 21.6569 17 20 17ZM15 20C15 17.2386 17.2386 15 20 15C22.7614 15 25 17.2386 25 20C25 22.7614 22.7614 25 20 25C17.2386 25 15 22.7614 15 20Z" fill="#2161ED"/>
</svg>
