<svg width="24" height="24" viewBox="0 0 24 24" fill="none" xmlns="http://www.w3.org/2000/svg">
<path fill-rule="evenodd" clip-rule="evenodd" d="M8.57037 6C8.06884 6 7.60049 6.25065 7.32229 6.66795L6.43426 8H17.5657L16.6777 6.66795C16.3995 6.25065 15.9312 6 15.4296 6H8.57037ZM18 9H6V16.5C6 17.3284 6.67157 18 7.5 18H16.5C17.3284 18 18 17.3284 18 16.5V9ZM6.49024 6.11325C6.95391 5.41775 7.73448 5 8.57037 5H15.4296C16.2655 5 17.0461 5.41775 17.5098 6.11325L18.916 8.22265C18.9708 8.30478 19 8.40129 19 8.5V16.5C19 17.8807 17.8807 19 16.5 19H7.5C6.11929 19 5 17.8807 5 16.5V8.5C5 8.40129 5.02922 8.30478 5.08397 8.22265L6.49024 6.11325ZM11.6464 10.1464C11.8417 9.95118 12.1583 9.95118 12.3536 10.1464L14.8536 12.6464C15.0488 12.8417 15.0488 13.1583 14.8536 13.3536C14.6583 13.5488 14.3417 13.5488 14.1464 13.3536L12.5 11.7071V16.5C12.5 16.7761 12.2761 17 12 17C11.7239 17 11.5 16.7761 11.5 16.5V11.7071L9.85355 13.3536C9.65829 13.5488 9.34171 13.5488 9.14645 13.3536C8.95118 13.1583 8.95118 12.8417 9.14645 12.6464L11.6464 10.1464Z" fill="#2161ED"/>
</svg>
