<svg width="64" height="24" viewBox="0 0 64 24" fill="none" xmlns="http://www.w3.org/2000/svg">
<path d="M41.1094 11.0938H39.0156V7.52344H41.1641C41.7422 7.53385 42.1953 7.71094 42.5234 8.05469C42.8516 8.39844 43.0156 8.84896 43.0156 9.40625C43.0156 9.94792 42.8516 10.3646 42.5234 10.6562C42.2005 10.9479 41.7292 11.0938 41.1094 11.0938Z" fill="#AD55F2"/>
<path fill-rule="evenodd" clip-rule="evenodd" d="M64 0H0V12C0 18.6274 5.37258 24 12 24H52C58.6274 24 64 18.6274 64 12V0ZM26.8125 5.625L24.2344 14.1797L21.6719 5.625H19.0703L23.0156 17H25.4609L29.4219 5.625H26.8125ZM31.3984 17H33.7422V5.625H31.3984V17ZM39.0156 17V12.9922H41.0703C42.4193 12.9922 43.474 12.6719 44.2344 12.0312C45 11.3854 45.3828 10.5052 45.3828 9.39062C45.3828 8.65625 45.2083 8.0026 44.8594 7.42969C44.5104 6.85156 44.0104 6.40625 43.3594 6.09375C42.7135 5.78125 41.9635 5.625 41.1094 5.625H36.6719V17H39.0156Z" fill="#AD55F2"/>
</svg>
