<svg width="20" height="20" viewBox="0 0 20 20" fill="none" xmlns="http://www.w3.org/2000/svg">
<path fill-rule="evenodd" clip-rule="evenodd" d="M18 10C18 14.4183 14.4182 18 10 18C5.58179 18 2 14.4183 2 10C2 5.58173 5.58179 2 10 2C14.4182 2 18 5.58173 18 10ZM10 4C10.5522 4 11 4.44772 11 5V12C11 12.5523 10.5522 13 10 13C9.44775 13 9 12.5523 9 12V5C9 4.44772 9.44775 4 10 4ZM10 16C10.5522 16 11 15.5523 11 15C11 14.4477 10.5522 14 10 14C9.44775 14 9 14.4477 9 15C9 15.5523 9.44775 16 10 16Z" fill="#C91052"/>
</svg>
