<svg width="24" height="24" viewBox="0 0 24 24" fill="none" xmlns="http://www.w3.org/2000/svg">
<path d="M4 6C4 4.89543 4.89543 4 6 4H9C10.1046 4 11 4.89543 11 6V9C11 10.1046 10.1046 11 9 11H6C4.89543 11 4 10.1046 4 9V6Z" fill="#83858A"/>
<path fill-rule="evenodd" clip-rule="evenodd" d="M18 5H15C14.4477 5 14 5.44772 14 6V9C14 9.55228 14.4477 10 15 10H18C18.5523 10 19 9.55228 19 9V6C19 5.44772 18.5523 5 18 5ZM15 4C13.8954 4 13 4.89543 13 6V9C13 10.1046 13.8954 11 15 11H18C19.1046 11 20 10.1046 20 9V6C20 4.89543 19.1046 4 18 4H15Z" fill="#83858A"/>
<path d="M13 15C13 13.8954 13.8954 13 15 13H18C19.1046 13 20 13.8954 20 15V18C20 19.1046 19.1046 20 18 20H15C13.8954 20 13 19.1046 13 18V15Z" fill="#83858A"/>
<path fill-rule="evenodd" clip-rule="evenodd" d="M9 14H6C5.44772 14 5 14.4477 5 15V18C5 18.5523 5.44772 19 6 19H9C9.55228 19 10 18.5523 10 18V15C10 14.4477 9.55228 14 9 14ZM6 13C4.89543 13 4 13.8954 4 15V18C4 19.1046 4.89543 20 6 20H9C10.1046 20 11 19.1046 11 18V15C11 13.8954 10.1046 13 9 13H6Z" fill="#83858A"/>
</svg>
