<svg width="24" height="24" viewBox="0 0 24 24" fill="none" xmlns="http://www.w3.org/2000/svg">
<path fill-rule="evenodd" clip-rule="evenodd" d="M4.00391 4.43804C4.03816 4.16403 4.28806 3.96966 4.56207 4.00391L4.56376 4.00413L4.56691 4.00453L4.57748 4.00592L4.61511 4.0111C4.64727 4.01566 4.69332 4.02246 4.75127 4.03178C4.86708 4.05039 5.03096 4.07909 5.22703 4.11994C5.61729 4.20124 6.14385 4.33248 6.67561 4.53189C7.20195 4.72926 7.76493 5.00494 8.2043 5.38939C8.65011 5.77947 9.00005 6.31237 9.00005 7.00005V9.00005H11.3453C11.877 9.00005 12.3949 9.16959 12.8237 9.48404L18.9785 13.9975C19.6206 14.4685 20.0001 15.2172 20.0001 16.0135V17.5001C20.0001 18.8808 18.8808 20.0001 17.5001 20.0001H6.50005C5.11934 20.0001 4.00005 18.8808 4.00005 17.5001V11.5001C4.00005 10.1193 5.11934 9.00005 6.50005 9.00005H8.00005V7.00005C8.00005 6.68774 7.85 6.40814 7.5458 6.14197C7.23517 5.87017 6.79816 5.64584 6.32449 5.46822C5.85626 5.29263 5.38282 5.17386 5.02308 5.09892C4.84414 5.06164 4.69553 5.03565 4.59259 5.01911C4.54116 5.01084 4.50127 5.00496 4.47484 5.00121L4.44558 4.99718L4.439 4.99632L4.43784 4.99617C4.16393 4.96182 3.96967 4.71198 4.00391 4.43804ZM6.50005 10.0001C5.67163 10.0001 5.00005 10.6716 5.00005 11.5001V17.5001C5.00005 18.3285 5.67163 19.0001 6.50005 19.0001H17.5001C18.3285 19.0001 19.0001 18.3285 19.0001 17.5001V16.0135C19.0001 15.5357 18.7724 15.0865 18.3871 14.8039L12.2324 10.2904C11.9751 10.1018 11.6644 10.0001 11.3453 10.0001H6.50005Z" fill="#83858A"/>
</svg>
