<svg width="24" height="24" viewBox="0 0 24 24" fill="none" xmlns="http://www.w3.org/2000/svg">
<path fill-rule="evenodd" clip-rule="evenodd" d="M12 4C12.2761 4 12.5 4.22386 12.5 4.5V7C12.5 7.27614 12.2761 7.5 12 7.5C11.7239 7.5 11.5 7.27614 11.5 7V4.5C11.5 4.22386 11.7239 4 12 4ZM10.5 9C9.67157 9 9 9.67157 9 10.5V13.5C9 14.3284 9.67157 15 10.5 15H13.5C14.3284 15 15 14.3284 15 13.5V10.5C15 9.67157 14.3284 9 13.5 9H10.5ZM8 10.5C8 9.11929 9.11929 8 10.5 8H13.5C14.8807 8 16 9.11929 16 10.5V13.5C16 14.8807 14.8807 16 13.5 16H10.5C9.11929 16 8 14.8807 8 13.5V10.5ZM10 10.5C10 10.2239 10.2239 10 10.5 10H13.5C13.7761 10 14 10.2239 14 10.5C14 10.7761 13.7761 11 13.5 11H10.5C10.2239 11 10 10.7761 10 10.5ZM4 12C4 11.7239 4.22386 11.5 4.5 11.5H7C7.27614 11.5 7.5 11.7239 7.5 12C7.5 12.2761 7.27614 12.5 7 12.5H4.5C4.22386 12.5 4 12.2761 4 12ZM10.5 12C10.5 11.7239 10.7239 11.5 11 11.5H13C13.2761 11.5 13.5 11.7239 13.5 12C13.5 12.2761 13.2761 12.5 13 12.5H11C10.7239 12.5 10.5 12.2761 10.5 12ZM16.5 12C16.5 11.7239 16.7239 11.5 17 11.5H19.5C19.7761 11.5 20 11.7239 20 12C20 12.2761 19.7761 12.5 19.5 12.5H17C16.7239 12.5 16.5 12.2761 16.5 12ZM10 13.5C10 13.2239 10.2239 13 10.5 13H13.5C13.7761 13 14 13.2239 14 13.5C14 13.7761 13.7761 14 13.5 14H10.5C10.2239 14 10 13.7761 10 13.5ZM12 16.5C12.2761 16.5 12.5 16.7239 12.5 17V19.5C12.5 19.7761 12.2761 20 12 20C11.7239 20 11.5 19.7761 11.5 19.5V17C11.5 16.7239 11.7239 16.5 12 16.5Z" fill="#83858A"/>
</svg>
