<svg width="24" height="24" viewBox="0 0 24 24" fill="none" xmlns="http://www.w3.org/2000/svg">
<path fill-rule="evenodd" clip-rule="evenodd" d="M9 5H6C5.44772 5 5 5.44772 5 6V11C5 11.5523 5.44772 12 6 12H9C9.55228 12 10 11.5523 10 11V6C10 5.44772 9.55228 5 9 5ZM6 4C4.89543 4 4 4.89543 4 6V11C4 12.1046 4.89543 13 6 13H9C10.1046 13 11 12.1046 11 11V6C11 4.89543 10.1046 4 9 4H6Z" fill="#83858A"/>
<path d="M13 6C13 4.89543 13.8954 4 15 4H18C19.1046 4 20 4.89543 20 6V9C20 10.1046 19.1046 11 18 11H15C13.8954 11 13 10.1046 13 9V6Z" fill="#83858A"/>
<path d="M4 17C4 15.8954 4.89543 15 6 15H9C10.1046 15 11 15.8954 11 17V18C11 19.1046 10.1046 20 9 20H6C4.89543 20 4 19.1046 4 18V17Z" fill="#83858A"/>
<path fill-rule="evenodd" clip-rule="evenodd" d="M18 14H15C14.4477 14 14 14.4477 14 15V18C14 18.5523 14.4477 19 15 19H18C18.5523 19 19 18.5523 19 18V15C19 14.4477 18.5523 14 18 14ZM15 13C13.8954 13 13 13.8954 13 15V18C13 19.1046 13.8954 20 15 20H18C19.1046 20 20 19.1046 20 18V15C20 13.8954 19.1046 13 18 13H15Z" fill="#83858A"/>
</svg>
