<svg width="24" height="24" viewBox="0 0 24 24" fill="none" xmlns="http://www.w3.org/2000/svg">
<path fill-rule="evenodd" clip-rule="evenodd" d="M8.5 5C7.67157 5 7 5.67157 7 6.5V17.5C7 18.3284 7.67157 19 8.5 19H15.5C16.3284 19 17 18.3284 17 17.5V6.5C17 5.67157 16.3284 5 15.5 5H8.5ZM6 6.5C6 5.11929 7.11929 4 8.5 4H15.5C16.8807 4 18 5.11929 18 6.5V17.5C18 18.8807 16.8807 20 15.5 20H8.5C7.11929 20 6 18.8807 6 17.5V6.5ZM9.5 7C9.22386 7 9 7.22386 9 7.5V9C9 9.27614 9.22386 9.5 9.5 9.5H14.5C14.7761 9.5 15 9.27614 15 9V7.5C15 7.22386 14.7761 7 14.5 7H9.5ZM8 7.5C8 6.67157 8.67157 6 9.5 6H14.5C15.3284 6 16 6.67157 16 7.5V9C16 9.82843 15.3284 10.5 14.5 10.5H9.5C8.67157 10.5 8 9.82843 8 9V7.5ZM9.5 12.5C9.22386 12.5 9 12.7239 9 13C9 13.2761 9.22386 13.5 9.5 13.5C9.77614 13.5 10 13.2761 10 13C10 12.7239 9.77614 12.5 9.5 12.5ZM8 13C8 12.1716 8.67157 11.5 9.5 11.5C10.3284 11.5 11 12.1716 11 13C11 13.8284 10.3284 14.5 9.5 14.5C8.67157 14.5 8 13.8284 8 13ZM13 12.5C12.7239 12.5 12.5 12.7239 12.5 13C12.5 13.2761 12.7239 13.5 13 13.5C13.2761 13.5 13.5 13.2761 13.5 13C13.5 12.7239 13.2761 12.5 13 12.5ZM11.5 13C11.5 12.1716 12.1716 11.5 13 11.5C13.8284 11.5 14.5 12.1716 14.5 13C14.5 13.8284 13.8284 14.5 13 14.5C12.1716 14.5 11.5 13.8284 11.5 13ZM15.5 11.5C15.7761 11.5 16 11.7239 16 12V17.5C16 17.7761 15.7761 18 15.5 18C15.2239 18 15 17.7761 15 17.5V12C15 11.7239 15.2239 11.5 15.5 11.5ZM9.5 16C9.22386 16 9 16.2239 9 16.5C9 16.7761 9.22386 17 9.5 17C9.77614 17 10 16.7761 10 16.5C10 16.2239 9.77614 16 9.5 16ZM8 16.5C8 15.6716 8.67157 15 9.5 15C10.3284 15 11 15.6716 11 16.5C11 17.3284 10.3284 18 9.5 18C8.67157 18 8 17.3284 8 16.5ZM13 16C12.7239 16 12.5 16.2239 12.5 16.5C12.5 16.7761 12.7239 17 13 17C13.2761 17 13.5 16.7761 13.5 16.5C13.5 16.2239 13.2761 16 13 16ZM11.5 16.5C11.5 15.6716 12.1716 15 13 15C13.8284 15 14.5 15.6716 14.5 16.5C14.5 17.3284 13.8284 18 13 18C12.1716 18 11.5 17.3284 11.5 16.5Z" fill="#83858A"/>
</svg>
