<svg width="24" height="24" viewBox="0 0 24 24" fill="none" xmlns="http://www.w3.org/2000/svg">
<path fill-rule="evenodd" clip-rule="evenodd" d="M12 5C10.8954 5 10 5.89543 10 7C10 8.10457 10.8954 9 12 9C13.1046 9 14 8.10457 14 7C14 5.89543 13.1046 5 12 5ZM9 7C9 5.34315 10.3431 4 12 4C13.6569 4 15 5.34315 15 7C15 8.65685 13.6569 10 12 10C10.3431 10 9 8.65685 9 7ZM8.5 12C8.22386 12 8 12.2239 8 12.5V14H16V12.5C16 12.2239 15.7761 12 15.5 12H8.5ZM17 14.05V12.5C17 11.6716 16.3284 11 15.5 11H8.5C7.67157 11 7 11.6716 7 12.5V14.05C5.85888 14.2816 5 15.2905 5 16.5V19.5C5 19.7761 5.22386 20 5.5 20C5.77614 20 6 19.7761 6 19.5V16.5C6 15.6716 6.67157 15 7.5 15H16.5C17.3284 15 18 15.6716 18 16.5V19.5C18 19.7761 18.2239 20 18.5 20C18.7761 20 19 19.7761 19 19.5V16.5C19 15.2905 18.1411 14.2816 17 14.05Z" fill="#83858A"/>
</svg>
