<svg width="96" height="32" viewBox="0 0 96 32" fill="none" xmlns="http://www.w3.org/2000/svg">
<path d="M16.1775 23.1355L17.664 23.4452C17.8622 23.4968 17.9613 23.6516 17.9613 23.9097V25.0194H11.9659V23.9097C11.9659 23.6344 12.0981 23.471 12.3623 23.4194L13.7497 23.1355V16.6065H4.18684V23.1355C5.376 23.3936 5.97058 23.6516 5.97058 23.9097V25.0194H0V23.9097C0 23.6344 0.123871 23.471 0.371613 23.4194L1.78374 23.1355V8.40001L0.29729 8.09033C0.0990968 8.03872 0 7.88388 0 7.62581V6.54194H5.97058V7.62581C5.97058 7.88388 5.888 8.03872 5.72284 8.09033C5.54116 8.14194 5.03742 8.24517 4.21161 8.40001V14.7742H13.7745V8.40001L12.288 8.09033C12.0898 8.03872 11.9907 7.88388 11.9907 7.62581V6.54194H17.9861V7.62581C17.9861 7.90108 17.8622 8.06452 17.6145 8.11614L16.1775 8.40001V23.1355Z" fill="#323438"/>
<path d="M25.5293 11.7548C26.4377 11.7548 27.2635 11.9097 28.0067 12.2194C28.7334 12.529 29.3693 12.9764 29.9143 13.5613C30.4263 14.1118 30.8227 14.8172 31.1035 15.6774C31.3843 16.5204 31.5246 17.4495 31.5246 18.4645C31.5246 19.4796 31.3843 20.4086 31.1035 21.2516C30.8227 22.1118 30.4263 22.8172 29.9143 23.3678C29.3693 23.9527 28.7334 24.4 28.0067 24.7097C27.2635 25.0194 26.4377 25.1742 25.5293 25.1742C24.6209 25.1742 23.7951 25.0194 23.0519 24.7097C22.3252 24.4 21.6893 23.9527 21.1443 23.3678C20.6488 22.8344 20.2441 22.129 19.9303 21.2516C19.6661 20.5118 19.5339 19.5828 19.5339 18.4645C19.5339 17.3462 19.6661 16.4172 19.9303 15.6774C20.2441 14.8 20.6488 14.0946 21.1443 13.5613C21.6893 12.9764 22.3252 12.529 23.0519 12.2194C23.7951 11.9097 24.6209 11.7548 25.5293 11.7548ZM25.5293 23.4194C26.801 23.4194 27.7259 22.9893 28.304 22.129C28.9151 21.2344 29.2206 20.0215 29.2206 18.4903C29.2206 16.9591 28.9151 15.7462 28.304 14.8516C27.7259 13.9914 26.801 13.5613 25.5293 13.5613C24.8852 13.5613 24.3401 13.6645 23.8942 13.871C23.4648 14.0774 23.0849 14.4043 22.7546 14.8516C22.4408 15.2989 22.2095 15.8151 22.0609 16.4C21.8957 17.0882 21.8132 17.7936 21.8132 18.5161C21.8132 19.2043 21.8957 19.8925 22.0609 20.5807C22.2095 21.1656 22.4408 21.6817 22.7546 22.129C23.0354 22.5247 23.4152 22.8344 23.8942 23.0581C24.4227 23.2989 24.9677 23.4194 25.5293 23.4194Z" fill="#323438"/>
<path d="M37.7117 25.2258C36.7537 25.2258 35.994 24.9333 35.4324 24.3484C34.9039 23.7979 34.6397 22.9721 34.6397 21.871V13.871H33.1285C32.9798 13.871 32.8642 13.8366 32.7816 13.7677C32.699 13.6989 32.6577 13.5699 32.6577 13.3807V12.4774L34.714 12.1936L35.2095 8.14194C35.2095 8.00431 35.259 7.90108 35.3581 7.83227C35.4407 7.76345 35.5563 7.72904 35.705 7.72904H36.8198V12.2194H40.4121V13.8968H36.8198V21.7419C36.8198 22.3097 36.9437 22.7226 37.1914 22.9807C37.4392 23.2387 37.7777 23.3678 38.2072 23.3678C38.3888 23.3678 38.5953 23.3333 38.8265 23.2645C38.9752 23.2129 39.1238 23.1441 39.2725 23.0581C39.322 23.0237 39.3715 22.9893 39.4211 22.9548C39.4706 22.9204 39.5202 22.886 39.5697 22.8516C39.7019 22.7828 39.7845 22.7484 39.8175 22.7484C39.9331 22.7484 40.0322 22.8172 40.1148 22.9548L40.7589 24.0387C40.313 24.4344 39.8505 24.7269 39.3715 24.9161C38.8265 25.1226 38.2732 25.2258 37.7117 25.2258Z" fill="#323438"/>
<path d="M47.9607 11.7548C48.6874 11.7548 49.3728 11.8839 50.017 12.1419C50.6776 12.4 51.2226 12.7699 51.6521 13.2516C52.1475 13.8022 52.5109 14.4129 52.7421 15.0839C53.0064 15.8581 53.1385 16.6839 53.1385 17.5613C53.1385 17.957 53.1055 18.1979 53.0394 18.2839C52.9568 18.4043 52.8082 18.4645 52.5935 18.4645H44.2694C44.2694 19.2903 44.3685 20.0129 44.5666 20.6323C44.7318 21.1656 45.0126 21.6645 45.409 22.129C45.7723 22.5591 46.1852 22.8688 46.6477 23.0581C47.1432 23.2645 47.6717 23.3678 48.2332 23.3678C48.8278 23.3678 49.3068 23.3075 49.6701 23.1871C50.017 23.0667 50.3638 22.9204 50.7106 22.7484C51.074 22.5591 51.3217 22.4215 51.4539 22.3355C51.6686 22.1979 51.8337 22.129 51.9494 22.129C52.131 22.129 52.2714 22.2065 52.3705 22.3613L52.9899 23.2129C52.7586 23.5226 52.4283 23.8151 51.9989 24.0903C51.5034 24.4172 51.0988 24.6323 50.785 24.7355C50.2895 24.9075 49.8435 25.028 49.4472 25.0968C48.9517 25.1828 48.4975 25.2258 48.0846 25.2258C47.2257 25.2258 46.4247 25.071 45.6815 24.7613C44.9713 24.4688 44.3354 24.0129 43.7739 23.3936C43.2454 22.8258 42.8325 22.0946 42.5352 21.2C42.2379 20.3226 42.0892 19.3247 42.0892 18.2065C42.0892 17.3118 42.2296 16.4688 42.5104 15.6774C42.7912 14.8688 43.1793 14.1807 43.6748 13.6129C44.1868 13.028 44.8061 12.5721 45.5328 12.2452C46.2595 11.9183 47.0688 11.7548 47.9607 11.7548ZM48.0103 13.4323C46.9367 13.4323 46.1026 13.7505 45.5081 14.3871C44.897 15.0581 44.5171 15.9527 44.3685 17.071H51.1814C51.1814 16.5376 51.107 16.0559 50.9584 15.6258C50.7767 15.0925 50.5785 14.7054 50.3638 14.4645C50.083 14.1548 49.7444 13.9054 49.3481 13.7161C48.9682 13.5441 48.514 13.4581 47.9855 13.4581L48.0103 13.4323Z" fill="#323438"/>
<path d="M60.2389 23.4194C60.5032 23.471 60.6353 23.6344 60.6353 23.9097V25.0194H54.8381V23.9097C54.8381 23.6344 54.9703 23.471 55.2345 23.4194L56.6219 23.1355V7.88388C55.8621 7.72904 55.3997 7.62581 55.2345 7.5742C54.9703 7.52259 54.8381 7.36775 54.8381 7.10969V6.00001H58.8515V23.1097C59.6113 23.2645 60.0737 23.3677 60.2389 23.4194Z" fill="#323438"/>
<path d="M64.0654 8.99356C63.9333 8.85592 63.8177 8.68388 63.7186 8.47743C63.636 8.30538 63.5947 8.09893 63.5947 7.85807C63.5947 7.60001 63.636 7.38495 63.7186 7.21291C63.8342 6.97205 63.9498 6.79141 64.0654 6.67098C64.1975 6.53334 64.3627 6.41291 64.5609 6.30969C64.7261 6.22366 64.9243 6.18065 65.1555 6.18065C65.3867 6.18065 65.5849 6.22366 65.7501 6.30969C65.9483 6.41291 66.1134 6.53334 66.2456 6.67098C66.3612 6.79141 66.4768 6.97205 66.5924 7.21291C66.6915 7.41936 66.741 7.63442 66.741 7.85807C66.741 8.06452 66.6915 8.27098 66.5924 8.47743C66.4933 8.68388 66.3777 8.85592 66.2456 8.99356C66.1134 9.13119 65.9483 9.25162 65.7501 9.35485C65.5849 9.44087 65.3867 9.48388 65.1555 9.48388C64.9243 9.48388 64.7261 9.44087 64.5609 9.35485C64.3627 9.25162 64.1975 9.13119 64.0654 8.99356ZM67.6577 23.4194C67.7733 23.4366 67.8641 23.4968 67.9302 23.6C67.9963 23.686 68.0293 23.7893 68.0293 23.9097V25.0194H62.2569V23.9097C62.2569 23.7893 62.2899 23.686 62.356 23.6C62.4221 23.4968 62.5129 23.4366 62.6285 23.4194L64.0654 23.1355V13.8194L62.6285 13.5355C62.5129 13.5183 62.4221 13.4667 62.356 13.3807C62.2899 13.2774 62.2569 13.1656 62.2569 13.0452V11.9613H66.2456V23.1355L67.6577 23.4194Z" fill="#323438"/>
<path d="M75.2752 11.7548C76.0019 11.7548 76.6874 11.8839 77.3315 12.1419C77.9921 12.4 78.5372 12.7699 78.9666 13.2516C79.4621 13.8022 79.8254 14.4129 80.0566 15.0839C80.3209 15.8581 80.453 16.6839 80.453 17.5613C80.453 17.957 80.42 18.1979 80.3539 18.2839C80.2713 18.4043 80.1227 18.4645 79.908 18.4645H71.5839C71.5839 19.2903 71.683 20.0129 71.8812 20.6323C72.0463 21.1656 72.3271 21.6645 72.7235 22.129C73.0868 22.5591 73.4997 22.8688 73.9622 23.0581C74.4577 23.2645 74.9862 23.3678 75.5477 23.3678C76.1423 23.3678 76.6213 23.3075 76.9846 23.1871C77.3315 23.0667 77.6783 22.9204 78.0252 22.7484C78.3885 22.5591 78.6363 22.4215 78.7684 22.3355C78.9831 22.1979 79.1483 22.129 79.2639 22.129C79.4455 22.129 79.5859 22.2065 79.685 22.3613L80.3044 23.2129C80.0732 23.5226 79.7428 23.8151 79.3134 24.0903C78.8179 24.4172 78.4133 24.6323 78.0995 24.7355C77.604 24.9075 77.1581 25.028 76.7617 25.0968C76.2662 25.1828 75.812 25.2258 75.3991 25.2258C74.5403 25.2258 73.7392 25.071 72.996 24.7613C72.2858 24.4688 71.6499 24.0129 71.0884 23.3936C70.5599 22.8258 70.147 22.0946 69.8497 21.2C69.5524 20.3226 69.4037 19.3247 69.4037 18.2065C69.4037 17.3118 69.5441 16.4688 69.8249 15.6774C70.1057 14.8688 70.4938 14.1807 70.9893 13.6129C71.5013 13.028 72.1206 12.5721 72.8474 12.2452C73.5741 11.9183 74.3834 11.7548 75.2752 11.7548ZM75.3248 13.4323C74.2512 13.4323 73.4172 13.7505 72.8226 14.3871C72.2115 15.0581 71.8316 15.9527 71.683 17.071H78.4959C78.4959 16.5376 78.4215 16.0559 78.2729 15.6258C78.0912 15.0925 77.893 14.7054 77.6783 14.4645C77.3976 14.1548 77.059 13.9054 76.6626 13.7161C76.2827 13.5441 75.8285 13.4581 75.3 13.4581L75.3248 13.4323Z" fill="#323438"/>
<path d="M86.0917 14.6194C87.0166 12.6753 88.2884 11.7032 89.907 11.7032C90.5511 11.7032 91.1209 11.8581 91.6164 12.1677L91.3439 13.8968C91.2943 14.1204 91.187 14.2323 91.0218 14.2323C90.9062 14.2323 90.708 14.1893 90.4272 14.1032C90.1465 14.0172 89.8079 13.9742 89.4115 13.9742C87.9581 13.9742 86.8845 14.886 86.1908 16.7097V23.1613L87.603 23.4452C87.8507 23.4968 87.9746 23.6602 87.9746 23.9355V25.0194H82.2022V23.9355C82.2022 23.6602 82.3261 23.4968 82.5738 23.4452L83.9859 23.1613V13.8452C83.1932 13.6903 82.7225 13.5871 82.5738 13.5355C82.3261 13.4839 82.2022 13.3204 82.2022 13.0452V11.9613H85.2494C85.4806 11.9613 85.6375 12.0043 85.7201 12.0903C85.8027 12.1764 85.8688 12.3398 85.9183 12.5807L86.067 14.6194H86.0917Z" fill="#323438"/>
</svg>
