<svg width="24" height="24" viewBox="0 0 24 24" fill="none" xmlns="http://www.w3.org/2000/svg">
<path fill-rule="evenodd" clip-rule="evenodd" d="M4 4.5C4 4.22386 4.22386 4 4.5 4H19.5C19.7761 4 20 4.22386 20 4.5C20 4.77614 19.7761 5 19.5 5H4.5C4.22386 5 4 4.77614 4 4.5ZM7.35355 9.14645C7.54882 9.34171 7.54882 9.65829 7.35355 9.85355L5.20711 12L7.35355 14.1464C7.54882 14.3417 7.54882 14.6583 7.35355 14.8536C7.15829 15.0488 6.84171 15.0488 6.64645 14.8536L4.14645 12.3536C3.95118 12.1583 3.95118 11.8417 4.14645 11.6464L6.64645 9.14645C6.84171 8.95118 7.15829 8.95118 7.35355 9.14645ZM8 12C8 11.7239 8.22386 11.5 8.5 11.5H19.5C19.7761 11.5 20 11.7239 20 12C20 12.2761 19.7761 12.5 19.5 12.5H8.5C8.22386 12.5 8 12.2761 8 12ZM4 19.5C4 19.2239 4.22386 19 4.5 19H19.5C19.7761 19 20 19.2239 20 19.5C20 19.7761 19.7761 20 19.5 20H4.5C4.22386 20 4 19.7761 4 19.5Z" fill="#83858A"/>
</svg>
