<svg width="24" height="24" viewBox="0 0 24 24" fill="none" xmlns="http://www.w3.org/2000/svg">
<path fill-rule="evenodd" clip-rule="evenodd" d="M8.5 5C7.67157 5 7 5.67157 7 6.5V17.5C7 18.3284 7.67157 19 8.5 19H15.5C16.3284 19 17 18.3284 17 17.5V6.5C17 5.67157 16.3284 5 15.5 5H8.5ZM6 6.5C6 5.11929 7.11929 4 8.5 4H15.5C16.8807 4 18 5.11929 18 6.5V17.5C18 18.8807 16.8807 20 15.5 20H8.5C7.11929 20 6 18.8807 6 17.5V6.5ZM8.5 7.5C8.5 7.22386 8.72386 7 9 7H15C15.2761 7 15.5 7.22386 15.5 7.5C15.5 7.77614 15.2761 8 15 8H9C8.72386 8 8.5 7.77614 8.5 7.5ZM8.5 10.5C8.5 10.2239 8.72386 10 9 10H12C12.2761 10 12.5 10.2239 12.5 10.5C12.5 10.7761 12.2761 11 12 11H9C8.72386 11 8.5 10.7761 8.5 10.5ZM8.5 13.5C8.5 13.2239 8.72386 13 9 13H14C14.2761 13 14.5 13.2239 14.5 13.5C14.5 13.7761 14.2761 14 14 14H9C8.72386 14 8.5 13.7761 8.5 13.5ZM8.5 16.5C8.5 16.2239 8.72386 16 9 16H15C15.2761 16 15.5 16.2239 15.5 16.5C15.5 16.7761 15.2761 17 15 17H9C8.72386 17 8.5 16.7761 8.5 16.5Z" fill="#83858A"/>
</svg>
