<svg width="24" height="24" viewBox="0 0 24 24" fill="none" xmlns="http://www.w3.org/2000/svg">
<path fill-rule="evenodd" clip-rule="evenodd" d="M4 5.5C4 4.67157 4.67157 4 5.5 4H6.5C7.32843 4 8 4.67157 8 5.5V6.5C8 7.32843 7.32843 8 6.5 8H5.5C4.67157 8 4 7.32843 4 6.5V5.5ZM10 5.5C10 4.67157 10.6716 4 11.5 4H12.5C13.3284 4 14 4.67157 14 5.5V6.5C14 7.32843 13.3284 8 12.5 8H11.5C10.6716 8 10 7.32843 10 6.5V5.5ZM11.5 5C11.2239 5 11 5.22386 11 5.5V6.5C11 6.77614 11.2239 7 11.5 7H12.5C12.7761 7 13 6.77614 13 6.5V5.5C13 5.22386 12.7761 5 12.5 5H11.5ZM16 5.5C16 4.67157 16.6716 4 17.5 4H18.5C19.3284 4 20 4.67157 20 5.5V6.5C20 7.32843 19.3284 8 18.5 8H17.5C16.6716 8 16 7.32843 16 6.5V5.5ZM4 11.5C4 10.6716 4.67157 10 5.5 10H6.5C7.32843 10 8 10.6716 8 11.5V12.5C8 13.3284 7.32843 14 6.5 14H5.5C4.67157 14 4 13.3284 4 12.5V11.5ZM5.5 11C5.22386 11 5 11.2239 5 11.5V12.5C5 12.7761 5.22386 13 5.5 13H6.5C6.77614 13 7 12.7761 7 12.5V11.5C7 11.2239 6.77614 11 6.5 11H5.5ZM10 11.5C10 10.6716 10.6716 10 11.5 10H12.5C13.3284 10 14 10.6716 14 11.5V12.5C14 13.3284 13.3284 14 12.5 14H11.5C10.6716 14 10 13.3284 10 12.5V11.5ZM16 11.5C16 10.6716 16.6716 10 17.5 10H18.5C19.3284 10 20 10.6716 20 11.5V12.5C20 13.3284 19.3284 14 18.5 14H17.5C16.6716 14 16 13.3284 16 12.5V11.5ZM17.5 11C17.2239 11 17 11.2239 17 11.5V12.5C17 12.7761 17.2239 13 17.5 13H18.5C18.7761 13 19 12.7761 19 12.5V11.5C19 11.2239 18.7761 11 18.5 11H17.5ZM4 17.5C4 16.6716 4.67157 16 5.5 16H6.5C7.32843 16 8 16.6716 8 17.5V18.5C8 19.3284 7.32843 20 6.5 20H5.5C4.67157 20 4 19.3284 4 18.5V17.5ZM10 17.5C10 16.6716 10.6716 16 11.5 16H12.5C13.3284 16 14 16.6716 14 17.5V18.5C14 19.3284 13.3284 20 12.5 20H11.5C10.6716 20 10 19.3284 10 18.5V17.5ZM11.5 17C11.2239 17 11 17.2239 11 17.5V18.5C11 18.7761 11.2239 19 11.5 19H12.5C12.7761 19 13 18.7761 13 18.5V17.5C13 17.2239 12.7761 17 12.5 17H11.5ZM16 17.5C16 16.6716 16.6716 16 17.5 16H18.5C19.3284 16 20 16.6716 20 17.5V18.5C20 19.3284 19.3284 20 18.5 20H17.5C16.6716 20 16 19.3284 16 18.5V17.5Z" fill="#83858A"/>
</svg>
