<svg width="24" height="24" viewBox="0 0 24 24" fill="none" xmlns="http://www.w3.org/2000/svg">
<path fill-rule="evenodd" clip-rule="evenodd" d="M12.4835 5.24431C12.2435 4.91856 11.7565 4.91856 11.5165 5.24431L10.6077 6.47749C10.2553 6.95578 9.6669 7.1995 9.07947 7.11052L7.56491 6.88111C7.16483 6.82051 6.82051 7.16483 6.88111 7.56491L7.11052 9.07947C7.1995 9.6669 6.95578 10.2553 6.47749 10.6077L5.24431 11.5165C4.91856 11.7565 4.91856 12.2435 5.24431 12.4835L6.47749 13.3923C6.95578 13.7447 7.1995 14.3331 7.11052 14.9205L6.88111 16.4351C6.82051 16.8352 7.16483 17.1795 7.56491 17.1189L9.07947 16.8895C9.6669 16.8005 10.2553 17.0442 10.6077 17.5225L11.5165 18.7557C11.7565 19.0814 12.2435 19.0814 12.4835 18.7557L13.3923 17.5225C13.7447 17.0442 14.3331 16.8005 14.9205 16.8895L16.4351 17.1189C16.8352 17.1795 17.1795 16.8352 17.1189 16.4351L16.8895 14.9205C16.8005 14.3331 17.0442 13.7447 17.5225 13.3923L18.7557 12.4835C19.0814 12.2435 19.0814 11.7565 18.7557 11.5165L17.5225 10.6077C17.0442 10.2553 16.8005 9.6669 16.8895 9.07947L17.1189 7.56491C17.1795 7.16483 16.8352 6.82051 16.4351 6.88111L14.9205 7.11052C14.3331 7.1995 13.7447 6.95578 13.3923 6.47749L12.4835 5.24431ZM10.7114 4.65108C11.3512 3.78297 12.6488 3.78297 13.2886 4.65108L14.1973 5.88426C14.3295 6.06374 14.5503 6.15519 14.7708 6.1218L16.2853 5.89239C17.3515 5.73089 18.2691 6.64848 18.1076 7.71467L17.8782 9.22924C17.8448 9.44967 17.9363 9.67045 18.1157 9.80271L19.3489 10.7114C20.217 11.3512 20.217 12.6488 19.3489 13.2886L18.1157 14.1973C17.9363 14.3295 17.8448 14.5503 17.8782 14.7708L18.1076 16.2853C18.2691 17.3515 17.3515 18.2691 16.2853 18.1076L14.7708 17.8782C14.5503 17.8448 14.3295 17.9363 14.1973 18.1157L13.2886 19.3489C12.6488 20.217 11.3512 20.217 10.7114 19.3489L9.80271 18.1157C9.67045 17.9363 9.44967 17.8448 9.22924 17.8782L7.71467 18.1076C6.64848 18.2691 5.73089 17.3515 5.89239 16.2853L6.1218 14.7708C6.15519 14.5503 6.06374 14.3295 5.88426 14.1973L4.65108 13.2886C3.78297 12.6488 3.78297 11.3512 4.65108 10.7114L5.88426 9.80271C6.06374 9.67045 6.15519 9.44967 6.1218 9.22924L5.89239 7.71467C5.73089 6.64848 6.64848 5.73089 7.71467 5.89239L9.22924 6.1218C9.44967 6.15519 9.67045 6.06374 9.80271 5.88426L10.7114 4.65108ZM12 10C10.8954 10 10 10.8954 10 12C10 13.1046 10.8954 14 12 14C13.1046 14 14 13.1046 14 12C14 10.8954 13.1046 10 12 10ZM9 12C9 10.3431 10.3431 9 12 9C13.6569 9 15 10.3431 15 12C15 13.6569 13.6569 15 12 15C10.3431 15 9 13.6569 9 12Z" fill="#83858A"/>
</svg>
