<svg width="24" height="24" viewBox="0 0 24 24" fill="none" xmlns="http://www.w3.org/2000/svg">
<path fill-rule="evenodd" clip-rule="evenodd" d="M4.5 4C4.77614 4 5 4.22386 5 4.5V19.5C5 19.7761 4.77614 20 4.5 20C4.22386 20 4 19.7761 4 19.5V4.5C4 4.22386 4.22386 4 4.5 4ZM9.5 7C9.77614 7 10 7.22386 10 7.5V19.5C10 19.7761 9.77614 20 9.5 20C9.22386 20 9 19.7761 9 19.5V7.5C9 7.22386 9.22386 7 9.5 7ZM14.5 9.5C14.7761 9.5 15 9.72386 15 10V19.5C15 19.7761 14.7761 20 14.5 20C14.2239 20 14 19.7761 14 19.5V10C14 9.72386 14.2239 9.5 14.5 9.5ZM19.5 12.5C19.7761 12.5 20 12.7239 20 13V19.5C20 19.7761 19.7761 20 19.5 20C19.2239 20 19 19.7761 19 19.5V13C19 12.7239 19.2239 12.5 19.5 12.5Z" fill="#83858A"/>
</svg>
