<svg width="170" height="170" viewBox="0 0 170 170" fill="none" xmlns="http://www.w3.org/2000/svg">
<path d="M136.5 169.5H33.5C29.0817 169.5 25.5 165.918 25.5 161.5V8.5C25.5 4.08172 29.0817 0.5 33.5 0.5H85H99.875L144.5 42.75V85V161.5C144.5 165.918 140.918 169.5 136.5 169.5Z" fill="white"/>
<path fill-rule="evenodd" clip-rule="evenodd" d="M33.5 1C29.3579 1 26 4.35787 26 8.5V161.5C26 165.642 29.3579 169 33.5 169H136.5C140.642 169 144 165.642 144 161.5V43.25H107.875C103.181 43.25 99.375 39.4444 99.375 34.75V1H33.5ZM100.375 1.66193L143.245 42.25H107.875C103.733 42.25 100.375 38.8921 100.375 34.75V1.66193ZM25 8.5C25 3.80558 28.8056 0 33.5 0H99.875C100.003 0 100.126 0.0489974 100.219 0.136917L144.844 42.3869C144.943 42.4813 145 42.6126 145 42.75V161.5C145 166.194 141.194 170 136.5 170H33.5C28.8056 170 25 166.194 25 161.5V8.5Z" fill="#E0E1E2"/>
<path fill-rule="evenodd" clip-rule="evenodd" d="M49.5 65C49.5 64.4477 49.9477 64 50.5 64H119.5C120.052 64 120.5 64.4477 120.5 65C120.5 65.5523 120.052 66 119.5 66H50.5C49.9477 66 49.5 65.5523 49.5 65ZM49.5 73C49.5 72.4477 49.9477 72 50.5 72H119.5C120.052 72 120.5 72.4477 120.5 73C120.5 73.5523 120.052 74 119.5 74H50.5C49.9477 74 49.5 73.5523 49.5 73ZM49.5 81C49.5 80.4477 49.9477 80 50.5 80H119.5C120.052 80 120.5 80.4477 120.5 81C120.5 81.5523 120.052 82 119.5 82H50.5C49.9477 82 49.5 81.5523 49.5 81ZM49.5 89C49.5 88.4477 49.9477 88 50.5 88H119.5C120.052 88 120.5 88.4477 120.5 89C120.5 89.5523 120.052 90 119.5 90H50.5C49.9477 90 49.5 89.5523 49.5 89ZM49.5 97C49.5 96.4477 49.9477 96 50.5 96H119.5C120.052 96 120.5 96.4477 120.5 97C120.5 97.5523 120.052 98 119.5 98H50.5C49.9477 98 49.5 97.5523 49.5 97ZM49.5 105C49.5 104.448 49.9477 104 50.5 104H119.5C120.052 104 120.5 104.448 120.5 105C120.5 105.552 120.052 106 119.5 106H50.5C49.9477 106 49.5 105.552 49.5 105Z" fill="#323438"/>
</svg>
