<svg width="170" height="170" viewBox="0 0 170 170" fill="none" xmlns="http://www.w3.org/2000/svg">
<path d="M0.5 136.5V33.5C0.5 29.0817 4.08172 25.5 8.5 25.5H85H127.25L169.5 70.125V85V136.5C169.5 140.918 165.918 144.5 161.5 144.5H8.5C4.08172 144.5 0.5 140.918 0.5 136.5Z" fill="white"/>
<path fill-rule="evenodd" clip-rule="evenodd" d="M8.5 26C4.35786 26 1 29.3579 1 33.5V136.5C1 140.642 4.35786 144 8.5 144H161.5C165.642 144 169 140.642 169 136.5V70.625H135.25C130.556 70.625 126.75 66.8194 126.75 62.125V26H8.5ZM127.75 26.7554L168.338 69.625H135.25C131.108 69.625 127.75 66.2671 127.75 62.125V26.7554ZM0 33.5C0 28.8056 3.80558 25 8.5 25H127.25C127.387 25 127.519 25.0565 127.613 25.1562L169.863 69.7812C169.951 69.8741 170 69.9971 170 70.125V136.5C170 141.194 166.194 145 161.5 145H8.5C3.80558 145 0 141.194 0 136.5V33.5Z" fill="#E0E1E2"/>
<path fill-rule="evenodd" clip-rule="evenodd" d="M49.5 65.5C49.5 64.9477 49.9477 64.5 50.5 64.5H119.5C120.052 64.5 120.5 64.9477 120.5 65.5C120.5 66.0523 120.052 66.5 119.5 66.5H50.5C49.9477 66.5 49.5 66.0523 49.5 65.5ZM49.5 73.5C49.5 72.9477 49.9477 72.5 50.5 72.5H119.5C120.052 72.5 120.5 72.9477 120.5 73.5C120.5 74.0523 120.052 74.5 119.5 74.5H50.5C49.9477 74.5 49.5 74.0523 49.5 73.5ZM49.5 81.5C49.5 80.9477 49.9477 80.5 50.5 80.5H119.5C120.052 80.5 120.5 80.9477 120.5 81.5C120.5 82.0523 120.052 82.5 119.5 82.5H50.5C49.9477 82.5 49.5 82.0523 49.5 81.5ZM49.5 89.5C49.5 88.9477 49.9477 88.5 50.5 88.5H119.5C120.052 88.5 120.5 88.9477 120.5 89.5C120.5 90.0523 120.052 90.5 119.5 90.5H50.5C49.9477 90.5 49.5 90.0523 49.5 89.5ZM49.5 97.5C49.5 96.9477 49.9477 96.5 50.5 96.5H119.5C120.052 96.5 120.5 96.9477 120.5 97.5C120.5 98.0523 120.052 98.5 119.5 98.5H50.5C49.9477 98.5 49.5 98.0523 49.5 97.5ZM49.5 105.5C49.5 104.948 49.9477 104.5 50.5 104.5H119.5C120.052 104.5 120.5 104.948 120.5 105.5C120.5 106.052 120.052 106.5 119.5 106.5H50.5C49.9477 106.5 49.5 106.052 49.5 105.5Z" fill="#323438"/>
</svg>
