<svg width="36" height="36" viewBox="0 0 36 36" fill="none" xmlns="http://www.w3.org/2000/svg">
<path fill-rule="evenodd" clip-rule="evenodd" d="M18 4C18.5523 4 19 4.44772 19 5V17H31C31.5523 17 32 17.4477 32 18C32 18.5523 31.5523 19 31 19H19V31C19 31.5523 18.5523 32 18 32C17.4477 32 17 31.5523 17 31V19H5C4.44772 19 4 18.5523 4 18C4 17.4477 4.44772 17 5 17H17V5C17 4.44772 17.4477 4 18 4ZM10 6C10.5523 6 11 6.44772 11 7V9.5H13.5C14.0523 9.5 14.5 9.94772 14.5 10.5C14.5 11.0523 14.0523 11.5 13.5 11.5H11V14C11 14.5523 10.5523 15 10 15C9.44772 15 9 14.5523 9 14V11.5H6.5C5.94772 11.5 5.5 11.0523 5.5 10.5C5.5 9.94772 5.94772 9.5 6.5 9.5H9V7C9 6.44772 9.44772 6 10 6ZM21.5 10.5C21.5 9.94772 21.9477 9.5 22.5 9.5H29.5C30.0523 9.5 30.5 9.94772 30.5 10.5C30.5 11.0523 30.0523 11.5 29.5 11.5H22.5C21.9477 11.5 21.5 11.0523 21.5 10.5ZM14.2071 21.2929C14.5976 21.6834 14.5976 22.3166 14.2071 22.7071L7.20711 29.7071C6.81658 30.0976 6.18342 30.0976 5.79289 29.7071C5.40237 29.3166 5.40237 28.6834 5.79289 28.2929L12.7929 21.2929C13.1834 20.9024 13.8166 20.9024 14.2071 21.2929ZM21.7929 22.7071C21.4024 22.3166 21.4024 21.6834 21.7929 21.2929C22.1834 20.9024 22.8166 20.9024 23.2071 21.2929L26 24.0858L28.7929 21.2929C29.1834 20.9024 29.8166 20.9024 30.2071 21.2929C30.5976 21.6834 30.5976 22.3166 30.2071 22.7071L27.4142 25.5L30.2071 28.2929C30.5976 28.6834 30.5976 29.3166 30.2071 29.7071C29.8166 30.0976 29.1834 30.0976 28.7929 29.7071L26 26.9142L23.2071 29.7071C22.8166 30.0976 22.1834 30.0976 21.7929 29.7071C21.4024 29.3166 21.4024 28.6834 21.7929 28.2929L24.5858 25.5L21.7929 22.7071Z" fill="#2161ED"/>
<path d="M14.5 28.5C14.5 29.3284 13.8284 30 13 30C12.1716 30 11.5 29.3284 11.5 28.5C11.5 27.6716 12.1716 27 13 27C13.8284 27 14.5 27.6716 14.5 28.5Z" fill="#2161ED"/>
<path d="M8.5 22.5C8.5 23.3284 7.82843 24 7 24C6.17157 24 5.5 23.3284 5.5 22.5C5.5 21.6716 6.17157 21 7 21C7.82843 21 8.5 21.6716 8.5 22.5Z" fill="#2161ED"/>
</svg>
