<svg width="36" height="36" viewBox="0 0 36 36" fill="none" xmlns="http://www.w3.org/2000/svg">
<path fill-rule="evenodd" clip-rule="evenodd" d="M10 4C10.5523 4 11 4.44772 11 5V9H15C15.5523 9 16 9.44772 16 10C16 10.5523 15.5523 11 15 11H11V15C11 15.5523 10.5523 16 10 16C9.44772 16 9 15.5523 9 15V11H5C4.44772 11 4 10.5523 4 10C4 9.44772 4.44772 9 5 9H9V5C9 4.44772 9.44772 4 10 4ZM20 10C20 9.44772 20.4477 9 21 9H31C31.5523 9 32 9.44772 32 10C32 10.5523 31.5523 11 31 11H21C20.4477 11 20 10.5523 20 10ZM15.7071 20.2929C16.0976 20.6834 16.0976 21.3166 15.7071 21.7071L5.70711 31.7071C5.31658 32.0976 4.68342 32.0976 4.29289 31.7071C3.90237 31.3166 3.90237 30.6834 4.29289 30.2929L14.2929 20.2929C14.6834 19.9024 15.3166 19.9024 15.7071 20.2929ZM20.2929 21.7071C19.9024 21.3166 19.9024 20.6834 20.2929 20.2929C20.6834 19.9024 21.3166 19.9024 21.7071 20.2929L26 24.5858L30.2929 20.2929C30.6834 19.9024 31.3166 19.9024 31.7071 20.2929C32.0976 20.6834 32.0976 21.3166 31.7071 21.7071L27.4142 26L31.7071 30.2929C32.0976 30.6834 32.0976 31.3166 31.7071 31.7071C31.3166 32.0976 30.6834 32.0976 30.2929 31.7071L26 27.4142L21.7071 31.7071C21.3166 32.0976 20.6834 32.0976 20.2929 31.7071C19.9024 31.3166 19.9024 30.6834 20.2929 30.2929L24.5858 26L20.2929 21.7071Z" fill="#2161ED"/>
<path d="M16 30C16 31.1046 15.1046 32 14 32C12.8954 32 12 31.1046 12 30C12 28.8954 12.8954 28 14 28C15.1046 28 16 28.8954 16 30Z" fill="#2161ED"/>
<path d="M8 22C8 23.1046 7.10457 24 6 24C4.89543 24 4 23.1046 4 22C4 20.8954 4.89543 20 6 20C7.10457 20 8 20.8954 8 22Z" fill="#2161ED"/>
</svg>
