<svg width="36" height="36" viewBox="0 0 36 36" fill="none" xmlns="http://www.w3.org/2000/svg">
<path fill-rule="evenodd" clip-rule="evenodd" d="M4 9C4 6.23858 6.23858 4 9 4H17C17.5523 4 18 4.44772 18 5C18 5.55228 17.5523 6 17 6H9C7.34315 6 6 7.34315 6 9V27C6 28.6569 7.34315 30 9 30H17C17.5523 30 18 30.4477 18 31C18 31.5523 17.5523 32 17 32H9C6.23858 32 4 29.7614 4 27V9ZM27 6C25.3431 6 24 7.34315 24 9C24 10.6569 25.3431 12 27 12C28.6569 12 30 10.6569 30 9C30 7.34315 28.6569 6 27 6ZM22 9C22 6.23858 24.2386 4 27 4C29.7614 4 32 6.23858 32 9C32 11.7614 29.7614 14 27 14C24.2386 14 22 11.7614 22 9ZM27 6.4C27.5523 6.4 28 6.84772 28 7.4V8.58579L28.9071 9.49289C29.2976 9.88342 29.2976 10.5166 28.9071 10.9071C28.5166 11.2976 27.8834 11.2976 27.4929 10.9071L26.2929 9.70711C26.1054 9.51957 26 9.26522 26 9V7.4C26 6.84772 26.4477 6.4 27 6.4ZM19.6247 12.2191C20.056 12.5641 20.1259 13.1934 19.7809 13.6247L17.0806 17H31C31.5523 17 32 17.4477 32 18C32 18.5523 31.5523 19 31 19H17.0806L19.7809 22.3753C20.1259 22.8066 20.056 23.4359 19.6247 23.7809C19.1934 24.1259 18.5641 24.056 18.2191 23.6247L14.2191 18.6247C13.927 18.2595 13.927 17.7405 14.2191 17.3753L18.2191 12.3753C18.5641 11.944 19.1934 11.8741 19.6247 12.2191Z" fill="#2161ED"/>
</svg>
