<svg width="36" height="36" viewBox="0 0 36 36" fill="none" xmlns="http://www.w3.org/2000/svg">
<path fill-rule="evenodd" clip-rule="evenodd" d="M10.2929 10.2929C10.6834 9.90237 11.3166 9.90237 11.7071 10.2929L14.6678 13.2535C15.628 12.9674 16.5116 12.4605 17.4961 11.8862C17.5179 11.8735 17.5398 11.8607 17.5617 11.8479C19.0258 10.9936 20.7285 10 23 10C25.1815 10 26.8171 10.5498 28.1215 11.0715C28.3648 11.1688 28.5847 11.26 28.7902 11.3452C29.1561 11.4969 29.4763 11.6297 29.8017 11.7445C30.2869 11.9158 30.6638 12 31 12C31.5523 12 32 12.4477 32 13V23C32 23.5523 31.5523 24 31 24C30.3363 24 29.7132 23.8342 29.136 23.6305C28.7629 23.4988 28.3559 23.3303 27.9547 23.1643C27.7598 23.0836 27.5663 23.0035 27.3787 22.9285C26.2774 22.488 25.033 22.0713 23.4224 22.0082L25.7071 24.2929C26.0976 24.6834 26.0976 25.3166 25.7071 25.7071C25.3166 26.0976 24.6834 26.0976 24.2929 25.7071L20.9564 22.3707C20.1375 22.6673 19.3587 23.1151 18.5039 23.6138C18.482 23.6265 18.4602 23.6393 18.4382 23.6521C16.9742 24.5064 15.2715 25.5 13 25.5C10.8185 25.5 9.18288 24.9502 7.87853 24.4285C7.63524 24.3312 7.41534 24.24 7.20984 24.1548C6.84392 24.0031 6.52366 23.8703 6.19832 23.7555C5.71306 23.5842 5.33622 23.5 5 23.5C4.44772 23.5 4 23.0523 4 22.5V12.5C4 11.9477 4.44772 11.5 5 11.5C5.66371 11.5 6.28683 11.6658 6.86407 11.8695C7.23724 12.0012 7.64433 12.1697 8.04549 12.3358C8.24038 12.4164 8.43387 12.4965 8.62139 12.5715C9.59763 12.962 10.6864 13.3338 12.0429 13.4571L10.2929 11.7071C9.90237 11.3166 9.90237 10.6834 10.2929 10.2929ZM14.0182 15.4324C13.6917 15.476 13.3527 15.5 13 15.5C10.8185 15.5 9.18294 14.9502 7.87861 14.4285C7.63537 14.3312 7.4155 14.24 7.21003 14.1548C6.84408 14.0031 6.52379 13.8703 6.19843 13.7555C6.13021 13.7314 6.06413 13.7091 6 13.6884V21.6161C6.29821 21.6823 6.5864 21.7715 6.86397 21.8695C7.23709 22.0012 7.64414 22.1697 8.04526 22.3357C8.24019 22.4164 8.43373 22.4965 8.62129 22.5715C9.817 23.0498 11.1815 23.5 13 23.5C14.6945 23.5 15.9749 22.7736 17.4961 21.8862C17.5179 21.8735 17.5398 21.8607 17.5618 21.8479C18.1395 21.5108 18.7544 21.152 19.4268 20.8411L19.2934 20.7076C18.9018 20.895 18.4631 21 18 21C16.3431 21 15 19.6569 15 18C15 17.5369 15.105 17.0982 15.2924 16.7066L14.0182 15.4324ZM20.7076 19.2934C20.895 18.9018 21 18.4631 21 18C21 16.3431 19.6569 15 18 15C17.5369 15 17.0982 15.105 16.7066 15.2924L16.2266 14.8124C17.0363 14.4702 17.7627 14.0463 18.4382 13.6521C18.4602 13.6393 18.482 13.6265 18.5039 13.6138C20.0251 12.7264 21.3055 12 23 12C24.8185 12 26.183 12.4502 27.3787 12.9285C27.5663 13.0035 27.7598 13.0836 27.9547 13.1643C28.3558 13.3303 28.7629 13.4988 29.136 13.6305C29.4136 13.7285 29.7018 13.8177 30 13.8839V21.8116C29.9359 21.7909 29.8699 21.7686 29.8017 21.7445C29.4763 21.6297 29.1561 21.4969 28.7901 21.3452C28.5847 21.26 28.3648 21.1688 28.1215 21.0715C26.8171 20.5498 25.1815 20 23 20C22.4898 20 22.0083 20.0501 21.5518 20.1375L20.7076 19.2934Z" fill="#2161ED"/>
</svg>
