<svg width="36" height="36" viewBox="0 0 36 36" fill="none" xmlns="http://www.w3.org/2000/svg">
<path fill-rule="evenodd" clip-rule="evenodd" d="M4 9C4 6.23858 6.23858 4 9 4H17C17.5523 4 18 4.44772 18 5C18 5.55228 17.5523 6 17 6H9C7.34315 6 6 7.34315 6 9V27C6 28.6569 7.34315 30 9 30H17C17.5523 30 18 30.4477 18 31C18 31.5523 17.5523 32 17 32H9C6.23858 32 4 29.7614 4 27V9ZM22 6C20.3431 6 19 7.34315 19 9C19 10.6569 20.3431 12 22 12C23.6569 12 25 10.6569 25 9C25 7.34315 23.6569 6 22 6ZM17 9C17 6.23858 19.2386 4 22 4C24.7614 4 27 6.23858 27 9C27 11.7614 24.7614 14 22 14C19.2386 14 17 11.7614 17 9ZM22 6.4C22.5523 6.4 23 6.84772 23 7.4V8.58579L23.9071 9.49289C24.2976 9.88342 24.2976 10.5166 23.9071 10.9071C23.5166 11.2976 22.8834 11.2976 22.4929 10.9071L21.2929 9.70711C21.1054 9.51957 21 9.26522 21 9V7.4C21 6.84772 21.4477 6.4 22 6.4ZM26.3753 12.2191C26.8066 11.8741 27.4359 11.944 27.7809 12.3753L31.7809 17.3753C32.073 17.7405 32.073 18.2595 31.7809 18.6247L27.7809 23.6247C27.4359 24.056 26.8066 24.1259 26.3753 23.7809C25.944 23.4359 25.8741 22.8066 26.2191 22.3753L28.9194 19H15C14.4477 19 14 18.5523 14 18C14 17.4477 14.4477 17 15 17H28.9194L26.2191 13.6247C25.8741 13.1934 25.944 12.5641 26.3753 12.2191Z" fill="#2161ED"/>
</svg>
