<svg width="48" height="48" viewBox="0 0 48 48" fill="none" xmlns="http://www.w3.org/2000/svg">
<path fill-rule="evenodd" clip-rule="evenodd" d="M0 4C0 1.79086 1.79086 0 4 0H44C46.2091 0 48 1.79086 48 4V44C48 46.2091 46.2091 48 44 48H4C1.79086 48 0 46.2091 0 44V4ZM30.8343 29.9733L40.585 41.3492C41.141 41.9979 40.6801 43 39.8258 43H8.23296C7.36914 43 6.9117 41.9786 7.48691 41.3341L14.9348 32.9898C15.3774 32.4939 16.1716 32.5598 16.5264 33.1218L20.7022 39.7363C21.0824 40.3385 21.9522 40.3616 22.3638 39.7805L29.259 30.0461C29.6353 29.5149 30.4107 29.4791 30.8343 29.9733ZM39.5 4C39.5 2.89543 38.6046 2 37.5 2C36.3954 2 35.5 2.89543 35.5 4V8.5H31C29.8954 8.5 29 9.39543 29 10.5C29 11.6046 29.8954 12.5 31 12.5H35.5V17C35.5 18.1046 36.3954 19 37.5 19C38.6046 19 39.5 18.1046 39.5 17V12.5H44C45.1046 12.5 46 11.6046 46 10.5C46 9.39543 45.1046 8.5 44 8.5H39.5V4Z" fill="#83858A"/>
</svg>
